G04 EAGLE Gerber RS-274X export*
G75*
%MOMM*%
%FSLAX34Y34*%
%LPD*%
%INBottom Paste*%
%IPPOS*%
%AMOC8*
5,1,8,0,0,1.08239X$1,22.5*%
G01*
%ADD10R,1.300000X1.500000*%
%ADD11R,1.500000X1.300000*%
%ADD12C,0.295000*%


D10*
X203860Y172720D03*
X222860Y172720D03*
D11*
X220980Y74320D03*
X220980Y93320D03*
X198120Y56540D03*
X198120Y75540D03*
X175260Y43840D03*
X175260Y62840D03*
X129540Y46380D03*
X129540Y65380D03*
X106680Y56540D03*
X106680Y75540D03*
X83820Y71780D03*
X83820Y90780D03*
D12*
X168925Y179275D02*
X185475Y179275D01*
X185475Y176325D01*
X168925Y176325D01*
X168925Y179275D01*
X168925Y179127D02*
X185475Y179127D01*
X185475Y166575D02*
X168925Y166575D01*
X185475Y166575D02*
X185475Y163625D01*
X168925Y163625D01*
X168925Y166575D01*
X168925Y166427D02*
X185475Y166427D01*
X185475Y153875D02*
X168925Y153875D01*
X185475Y153875D02*
X185475Y150925D01*
X168925Y150925D01*
X168925Y153875D01*
X168925Y153727D02*
X185475Y153727D01*
X185475Y141175D02*
X168925Y141175D01*
X185475Y141175D02*
X185475Y138225D01*
X168925Y138225D01*
X168925Y141175D01*
X168925Y141027D02*
X185475Y141027D01*
X185475Y128475D02*
X168925Y128475D01*
X185475Y128475D02*
X185475Y125525D01*
X168925Y125525D01*
X168925Y128475D01*
X168925Y128327D02*
X185475Y128327D01*
X185475Y115775D02*
X168925Y115775D01*
X185475Y115775D02*
X185475Y112825D01*
X168925Y112825D01*
X168925Y115775D01*
X168925Y115627D02*
X185475Y115627D01*
X185475Y103075D02*
X168925Y103075D01*
X185475Y103075D02*
X185475Y100125D01*
X168925Y100125D01*
X168925Y103075D01*
X168925Y102927D02*
X185475Y102927D01*
X135875Y103075D02*
X119325Y103075D01*
X135875Y103075D02*
X135875Y100125D01*
X119325Y100125D01*
X119325Y103075D01*
X119325Y102927D02*
X135875Y102927D01*
X135875Y115775D02*
X119325Y115775D01*
X135875Y115775D02*
X135875Y112825D01*
X119325Y112825D01*
X119325Y115775D01*
X119325Y115627D02*
X135875Y115627D01*
X135875Y128475D02*
X119325Y128475D01*
X135875Y128475D02*
X135875Y125525D01*
X119325Y125525D01*
X119325Y128475D01*
X119325Y128327D02*
X135875Y128327D01*
X135875Y141175D02*
X119325Y141175D01*
X135875Y141175D02*
X135875Y138225D01*
X119325Y138225D01*
X119325Y141175D01*
X119325Y141027D02*
X135875Y141027D01*
X135875Y153875D02*
X119325Y153875D01*
X135875Y153875D02*
X135875Y150925D01*
X119325Y150925D01*
X119325Y153875D01*
X119325Y153727D02*
X135875Y153727D01*
X135875Y166575D02*
X119325Y166575D01*
X135875Y166575D02*
X135875Y163625D01*
X119325Y163625D01*
X119325Y166575D01*
X119325Y166427D02*
X135875Y166427D01*
X135875Y179275D02*
X119325Y179275D01*
X135875Y179275D02*
X135875Y176325D01*
X119325Y176325D01*
X119325Y179275D01*
X119325Y179127D02*
X135875Y179127D01*
M02*
