G04 EAGLE Gerber RS-274X export*
G75*
%MOMM*%
%FSLAX34Y34*%
%LPD*%
%INBottom Solder Mask*%
%IPPOS*%
%AMOC8*
5,1,8,0,0,1.08239X$1,22.5*%
G01*
%ADD10C,2.351600*%
%ADD11C,1.856600*%
%ADD12R,1.401600X1.601600*%
%ADD13C,1.778000*%
%ADD14R,1.601600X1.401600*%
%ADD15C,1.609600*%
%ADD16C,3.317600*%
%ADD17C,1.609600*%
%ADD18C,1.001600*%
%ADD19C,0.394209*%


D10*
X152400Y265100D03*
D11*
X152400Y65100D03*
D12*
X203860Y172720D03*
X222860Y172720D03*
D13*
X60960Y170180D03*
X60960Y144780D03*
X60960Y119380D03*
D14*
X220980Y74320D03*
X220980Y93320D03*
X198120Y56540D03*
X198120Y75540D03*
X175260Y43840D03*
X175260Y62840D03*
X129540Y46380D03*
X129540Y65380D03*
X106680Y56540D03*
X106680Y75540D03*
X83820Y71780D03*
X83820Y90780D03*
D15*
X177400Y209700D03*
X152400Y209700D03*
X127400Y209700D03*
D16*
X207400Y139700D03*
X97400Y139700D03*
D17*
X171278Y250018D02*
X181941Y260681D01*
X234974Y207648D02*
X224311Y196985D01*
D18*
X196734Y238704D03*
X212997Y222441D03*
D17*
X80182Y196678D02*
X69519Y207341D01*
X122552Y260374D02*
X133215Y249711D01*
D18*
X91496Y222134D03*
X107759Y238397D03*
D19*
X168913Y179287D02*
X185487Y179287D01*
X185487Y176313D01*
X168913Y176313D01*
X168913Y179287D01*
X168913Y166587D02*
X185487Y166587D01*
X185487Y163613D01*
X168913Y163613D01*
X168913Y166587D01*
X168913Y153887D02*
X185487Y153887D01*
X185487Y150913D01*
X168913Y150913D01*
X168913Y153887D01*
X168913Y141187D02*
X185487Y141187D01*
X185487Y138213D01*
X168913Y138213D01*
X168913Y141187D01*
X168913Y128487D02*
X185487Y128487D01*
X185487Y125513D01*
X168913Y125513D01*
X168913Y128487D01*
X168913Y115787D02*
X185487Y115787D01*
X185487Y112813D01*
X168913Y112813D01*
X168913Y115787D01*
X168913Y103087D02*
X185487Y103087D01*
X185487Y100113D01*
X168913Y100113D01*
X168913Y103087D01*
X135887Y103087D02*
X119313Y103087D01*
X135887Y103087D02*
X135887Y100113D01*
X119313Y100113D01*
X119313Y103087D01*
X119313Y115787D02*
X135887Y115787D01*
X135887Y112813D01*
X119313Y112813D01*
X119313Y115787D01*
X119313Y128487D02*
X135887Y128487D01*
X135887Y125513D01*
X119313Y125513D01*
X119313Y128487D01*
X119313Y141187D02*
X135887Y141187D01*
X135887Y138213D01*
X119313Y138213D01*
X119313Y141187D01*
X119313Y153887D02*
X135887Y153887D01*
X135887Y150913D01*
X119313Y150913D01*
X119313Y153887D01*
X119313Y166587D02*
X135887Y166587D01*
X135887Y163613D01*
X119313Y163613D01*
X119313Y166587D01*
X119313Y179287D02*
X135887Y179287D01*
X135887Y176313D01*
X119313Y176313D01*
X119313Y179287D01*
M02*
