%
M48
M72
T01C0.01378
T02C0.03543
T03C0.03937
T04C0.04000
T05C0.04606
T06C0.05906
T07C0.08661
%
T01
X25300Y18300
X34300Y12300
X48300Y14300
X54300Y12300
X36300Y32300
X49300Y41300
X52300Y46300
X55300Y61300
X48300Y61300
X31300Y66300
X67300Y58300
X77300Y19300
X75053Y17053
T02
X68754Y90278
X75157Y83875
X33725Y90157
X27322Y83754
T03
X58732Y94732
X61143Y78859
X51300Y78859
X41457Y78859
X43747Y94611
X22868Y73732
X79611Y73853
T04
X15300Y63300
X15300Y53300
X15300Y43300
T05
X51300Y21930
T06
X51300Y100670
T07
X72954Y51300
X29646Y51300
M30
