M48
;GenerationSoftware,Autodesk,EAGLE,9.3.0*%
;CreationDate,2019-01-28T19:58:58Z*%
FMAT,2
ICI,OFF
METRIC,TZ,000.000
T7C0.350
T6C0.900
T5C1.000
T4C1.016
T3C1.170
T2C1.500
T1C2.200
%
G90
M71
T1
X20740Y13970
X9740Y13970
T2
X15240Y26510
T3
X15240Y6510
T4
X6096Y17018
X6096Y14478
X6096Y11938
T5
X17740Y20970
X15240Y20970
X12740Y20970
X17128Y25002
X22431Y19698
X8018Y19668
X13322Y24971
T6
X19673Y23870
X21300Y22244
X9150Y22213
X10776Y23840
T7
X10160Y17780
X21844Y5842
X21273Y5271
X16002Y4064
X14478Y4572
X10922Y4064
X8636Y5588
X14478Y16510
X19304Y15748
X16256Y16510
X15494Y12700
X14732Y11430
X11430Y9144
M30