G75*
%MOIN*%
%OFA0B0*%
%FSLAX25Y25*%
%IPPOS*%
%LPD*%
%AMOC8*
5,1,8,0,0,1.08239X$1,22.5*
%
%ADD10C,0.00600*%
%ADD11C,0.08858*%
%ADD12C,0.06909*%
%ADD13R,0.05118X0.05906*%
%ADD14C,0.06600*%
%ADD15R,0.05906X0.05118*%
%ADD16C,0.05937*%
%ADD17C,0.12661*%
%ADD18C,0.05937*%
%ADD19C,0.00000*%
%ADD20C,0.01161*%
%ADD21C,0.02578*%
D10*
X0019072Y0020240D02*
X0023100Y0020240D01*
X0023100Y0019642D02*
X0019673Y0019642D01*
X0020275Y0019043D02*
X0023100Y0019043D01*
X0023100Y0018803D02*
X0023111Y0018792D01*
X0023111Y0017393D01*
X0024393Y0016111D01*
X0026207Y0016111D01*
X0027489Y0017393D01*
X0027489Y0019207D01*
X0026207Y0020489D01*
X0025500Y0020489D01*
X0025500Y0021101D01*
X0027626Y0021101D01*
X0028153Y0021628D01*
X0028153Y0027492D01*
X0027626Y0028019D01*
X0020974Y0028019D01*
X0020447Y0027492D01*
X0020447Y0021628D01*
X0020974Y0021101D01*
X0023100Y0021101D01*
X0023100Y0018803D01*
X0023111Y0018445D02*
X0020876Y0018445D01*
X0021477Y0017846D02*
X0023111Y0017846D01*
X0023256Y0017248D02*
X0022079Y0017248D01*
X0022499Y0016830D02*
X0016966Y0022337D01*
X0012470Y0028719D01*
X0009147Y0035783D01*
X0007097Y0043315D01*
X0006382Y0051089D01*
X0007023Y0058869D01*
X0009003Y0066421D01*
X0012259Y0073515D01*
X0014801Y0077196D01*
X0014801Y0077161D01*
X0015390Y0075739D01*
X0020676Y0070453D01*
X0022098Y0069864D01*
X0023637Y0069864D01*
X0025059Y0070453D01*
X0026147Y0071541D01*
X0026736Y0072963D01*
X0026736Y0074502D01*
X0026147Y0075924D01*
X0020861Y0081210D01*
X0019439Y0081799D01*
X0018529Y0081799D01*
X0022176Y0085498D01*
X0028537Y0090024D01*
X0030854Y0091254D01*
X0030653Y0090768D01*
X0030653Y0089546D01*
X0031121Y0088417D01*
X0031985Y0087553D01*
X0033114Y0087085D01*
X0034336Y0087085D01*
X0035465Y0087553D01*
X0036329Y0088417D01*
X0036797Y0089546D01*
X0036797Y0090768D01*
X0036329Y0091897D01*
X0035465Y0092761D01*
X0034336Y0093229D01*
X0033114Y0093229D01*
X0032948Y0093160D01*
X0033030Y0093390D01*
X0032900Y0093662D01*
X0032900Y0100394D01*
X0041743Y0105700D01*
X0049518Y0105700D01*
X0048281Y0105188D01*
X0046782Y0103689D01*
X0045971Y0101730D01*
X0045971Y0099610D01*
X0046782Y0097651D01*
X0048281Y0096152D01*
X0050240Y0095341D01*
X0052360Y0095341D01*
X0054319Y0096152D01*
X0055818Y0097651D01*
X0056629Y0099610D01*
X0056629Y0101730D01*
X0055818Y0103689D01*
X0054319Y0105188D01*
X0053082Y0105700D01*
X0062767Y0105700D01*
X0069700Y0100500D01*
X0069700Y0093662D01*
X0069570Y0093390D01*
X0069622Y0093243D01*
X0069365Y0093350D01*
X0068143Y0093350D01*
X0067014Y0092882D01*
X0066150Y0092018D01*
X0065683Y0090889D01*
X0065683Y0089667D01*
X0066150Y0088538D01*
X0067014Y0087674D01*
X0068143Y0087206D01*
X0069365Y0087206D01*
X0070494Y0087674D01*
X0071358Y0088538D01*
X0071826Y0089667D01*
X0071826Y0090889D01*
X0071655Y0091302D01*
X0074063Y0090024D01*
X0080424Y0085498D01*
X0083952Y0081920D01*
X0083040Y0081920D01*
X0081618Y0081331D01*
X0076332Y0076044D01*
X0075743Y0074623D01*
X0075743Y0073084D01*
X0076332Y0071662D01*
X0077420Y0070574D01*
X0078842Y0069985D01*
X0080381Y0069985D01*
X0081803Y0070574D01*
X0087089Y0075860D01*
X0087678Y0077282D01*
X0087678Y0077372D01*
X0090341Y0073515D01*
X0093597Y0066421D01*
X0095576Y0058869D01*
X0096218Y0051089D01*
X0095503Y0043315D01*
X0093453Y0035783D01*
X0090130Y0028719D01*
X0085634Y0022337D01*
X0080101Y0016830D01*
X0073698Y0012364D01*
X0066619Y0009074D01*
X0059077Y0007060D01*
X0051300Y0006381D01*
X0043523Y0007060D01*
X0035981Y0009074D01*
X0033750Y0010111D01*
X0035207Y0010111D01*
X0036489Y0011393D01*
X0036489Y0013207D01*
X0035207Y0014489D01*
X0034500Y0014489D01*
X0034500Y0015101D01*
X0036626Y0015101D01*
X0037153Y0015628D01*
X0037153Y0021492D01*
X0036626Y0022019D01*
X0029974Y0022019D01*
X0029447Y0021492D01*
X0029447Y0015628D01*
X0029974Y0015101D01*
X0032100Y0015101D01*
X0032100Y0012803D01*
X0032111Y0012792D01*
X0032111Y0011393D01*
X0033084Y0010420D01*
X0028902Y0012364D01*
X0022499Y0016830D01*
X0022758Y0016649D02*
X0023855Y0016649D01*
X0023616Y0016051D02*
X0029447Y0016051D01*
X0029447Y0016649D02*
X0026745Y0016649D01*
X0027344Y0017248D02*
X0029447Y0017248D01*
X0029447Y0017846D02*
X0027489Y0017846D01*
X0027489Y0018445D02*
X0029447Y0018445D01*
X0029447Y0019043D02*
X0027489Y0019043D01*
X0027054Y0019642D02*
X0029447Y0019642D01*
X0029447Y0020240D02*
X0026455Y0020240D01*
X0025500Y0020839D02*
X0029447Y0020839D01*
X0029447Y0021437D02*
X0027962Y0021437D01*
X0028153Y0022036D02*
X0042000Y0022036D01*
X0042000Y0021740D02*
X0038047Y0021740D01*
X0038047Y0019310D01*
X0038136Y0018979D01*
X0038307Y0018683D01*
X0038549Y0018441D01*
X0038845Y0018270D01*
X0039176Y0018181D01*
X0042000Y0018181D01*
X0042000Y0021740D01*
X0042600Y0021740D01*
X0042600Y0018181D01*
X0045424Y0018181D01*
X0045755Y0018270D01*
X0046051Y0018441D01*
X0046293Y0018683D01*
X0046464Y0018979D01*
X0046553Y0019310D01*
X0046553Y0021509D01*
X0046662Y0020817D01*
X0046894Y0020105D01*
X0047233Y0019438D01*
X0047673Y0018832D01*
X0048202Y0018303D01*
X0048808Y0017863D01*
X0049475Y0017524D01*
X0050187Y0017292D01*
X0050926Y0017175D01*
X0051000Y0017175D01*
X0051000Y0021630D01*
X0046553Y0021630D01*
X0046553Y0021740D01*
X0042600Y0021740D01*
X0042600Y0022340D01*
X0046551Y0022340D01*
X0046545Y0022304D01*
X0046545Y0022230D01*
X0051000Y0022230D01*
X0051000Y0026685D01*
X0050926Y0026685D01*
X0050187Y0026568D01*
X0049475Y0026336D01*
X0048808Y0025997D01*
X0048202Y0025557D01*
X0047673Y0025027D01*
X0047233Y0024422D01*
X0046894Y0023755D01*
X0046662Y0023043D01*
X0046553Y0022351D01*
X0046553Y0024770D01*
X0046464Y0025101D01*
X0046293Y0025397D01*
X0046051Y0025639D01*
X0045755Y0025811D01*
X0045424Y0025899D01*
X0042600Y0025899D01*
X0042600Y0022340D01*
X0042000Y0022340D01*
X0042000Y0021740D01*
X0042000Y0021437D02*
X0042600Y0021437D01*
X0042600Y0020839D02*
X0042000Y0020839D01*
X0042000Y0020240D02*
X0042600Y0020240D01*
X0042600Y0019642D02*
X0042000Y0019642D01*
X0042000Y0019043D02*
X0042600Y0019043D01*
X0042600Y0018445D02*
X0042000Y0018445D01*
X0038974Y0018019D02*
X0038447Y0017492D01*
X0038447Y0011628D01*
X0038974Y0011101D01*
X0045626Y0011101D01*
X0046153Y0011628D01*
X0046153Y0013352D01*
X0047393Y0012111D01*
X0049207Y0012111D01*
X0050489Y0013393D01*
X0050489Y0015207D01*
X0049207Y0016489D01*
X0047393Y0016489D01*
X0046664Y0015760D01*
X0046153Y0015760D01*
X0046153Y0017492D01*
X0045626Y0018019D01*
X0038974Y0018019D01*
X0038802Y0017846D02*
X0037153Y0017846D01*
X0037153Y0017248D02*
X0038447Y0017248D01*
X0038447Y0016649D02*
X0037153Y0016649D01*
X0037153Y0016051D02*
X0038447Y0016051D01*
X0038447Y0015452D02*
X0036977Y0015452D01*
X0038447Y0014854D02*
X0034500Y0014854D01*
X0035440Y0014255D02*
X0038447Y0014255D01*
X0038447Y0013657D02*
X0036039Y0013657D01*
X0036489Y0013058D02*
X0038447Y0013058D01*
X0038447Y0012460D02*
X0036489Y0012460D01*
X0036489Y0011861D02*
X0038447Y0011861D01*
X0038812Y0011263D02*
X0036358Y0011263D01*
X0035760Y0010664D02*
X0052840Y0010664D01*
X0053393Y0010111D02*
X0052111Y0011393D01*
X0052111Y0013207D01*
X0053393Y0014489D01*
X0055207Y0014489D01*
X0056196Y0013500D01*
X0056447Y0013500D01*
X0056447Y0016492D01*
X0056974Y0017019D01*
X0063626Y0017019D01*
X0064153Y0016492D01*
X0064153Y0010628D01*
X0063626Y0010101D01*
X0056974Y0010101D01*
X0056447Y0010628D01*
X0056447Y0011100D01*
X0056196Y0011100D01*
X0055207Y0010111D01*
X0053393Y0010111D01*
X0052242Y0011263D02*
X0045788Y0011263D01*
X0046153Y0011861D02*
X0052111Y0011861D01*
X0052111Y0012460D02*
X0049555Y0012460D01*
X0050154Y0013058D02*
X0052111Y0013058D01*
X0052561Y0013657D02*
X0050489Y0013657D01*
X0050489Y0014255D02*
X0053160Y0014255D01*
X0054300Y0012300D02*
X0059040Y0012300D01*
X0060300Y0013560D01*
X0060000Y0017181D02*
X0057176Y0017181D01*
X0056845Y0017270D01*
X0056549Y0017441D01*
X0056307Y0017683D01*
X0056136Y0017979D01*
X0056047Y0018310D01*
X0056047Y0020740D01*
X0060000Y0020740D01*
X0060600Y0020740D01*
X0060600Y0017181D01*
X0063424Y0017181D01*
X0063755Y0017270D01*
X0064051Y0017441D01*
X0064293Y0017683D01*
X0064464Y0017979D01*
X0064553Y0018310D01*
X0064553Y0020740D01*
X0060600Y0020740D01*
X0060600Y0021340D01*
X0064553Y0021340D01*
X0064553Y0023770D01*
X0064464Y0024101D01*
X0064293Y0024397D01*
X0064051Y0024639D01*
X0063755Y0024811D01*
X0063424Y0024899D01*
X0060600Y0024899D01*
X0060600Y0021340D01*
X0060000Y0021340D01*
X0060000Y0020740D01*
X0060000Y0017181D01*
X0060000Y0017248D02*
X0060600Y0017248D01*
X0060600Y0017846D02*
X0060000Y0017846D01*
X0060000Y0018445D02*
X0060600Y0018445D01*
X0060600Y0019043D02*
X0060000Y0019043D01*
X0060000Y0019642D02*
X0060600Y0019642D01*
X0060600Y0020240D02*
X0060000Y0020240D01*
X0060000Y0020839D02*
X0055941Y0020839D01*
X0055938Y0020817D02*
X0056047Y0021509D01*
X0056047Y0021340D01*
X0060000Y0021340D01*
X0060000Y0024899D01*
X0057176Y0024899D01*
X0056845Y0024811D01*
X0056549Y0024639D01*
X0056307Y0024397D01*
X0056136Y0024101D01*
X0056047Y0023770D01*
X0056047Y0022351D01*
X0055938Y0023043D01*
X0055706Y0023755D01*
X0055367Y0024422D01*
X0054927Y0025027D01*
X0054397Y0025557D01*
X0053792Y0025997D01*
X0053125Y0026336D01*
X0052413Y0026568D01*
X0051674Y0026685D01*
X0051600Y0026685D01*
X0051600Y0022230D01*
X0051000Y0022230D01*
X0051000Y0021630D01*
X0051600Y0021630D01*
X0051600Y0017175D01*
X0051674Y0017175D01*
X0052413Y0017292D01*
X0053125Y0017524D01*
X0053792Y0017863D01*
X0054397Y0018303D01*
X0054927Y0018832D01*
X0055367Y0019438D01*
X0055706Y0020105D01*
X0055938Y0020817D01*
X0056047Y0020240D02*
X0055750Y0020240D01*
X0055471Y0019642D02*
X0056047Y0019642D01*
X0056047Y0019043D02*
X0055080Y0019043D01*
X0054539Y0018445D02*
X0056047Y0018445D01*
X0056213Y0017846D02*
X0053759Y0017846D01*
X0052133Y0017248D02*
X0056927Y0017248D01*
X0056605Y0016649D02*
X0046153Y0016649D01*
X0046153Y0016051D02*
X0046955Y0016051D01*
X0046153Y0017248D02*
X0050467Y0017248D01*
X0051000Y0017248D02*
X0051600Y0017248D01*
X0051600Y0017846D02*
X0051000Y0017846D01*
X0051000Y0018445D02*
X0051600Y0018445D01*
X0051600Y0019043D02*
X0051000Y0019043D01*
X0051000Y0019642D02*
X0051600Y0019642D01*
X0051600Y0020240D02*
X0051000Y0020240D01*
X0051000Y0020839D02*
X0051600Y0020839D01*
X0051600Y0021437D02*
X0051000Y0021437D01*
X0051000Y0022036D02*
X0042600Y0022036D01*
X0042600Y0022634D02*
X0042000Y0022634D01*
X0042000Y0022340D02*
X0042000Y0025899D01*
X0039176Y0025899D01*
X0038845Y0025811D01*
X0038549Y0025639D01*
X0038307Y0025397D01*
X0038136Y0025101D01*
X0038047Y0024770D01*
X0038047Y0022340D01*
X0042000Y0022340D01*
X0042000Y0023233D02*
X0042600Y0023233D01*
X0042600Y0023832D02*
X0042000Y0023832D01*
X0042000Y0024430D02*
X0042600Y0024430D01*
X0042600Y0025029D02*
X0042000Y0025029D01*
X0042000Y0025627D02*
X0042600Y0025627D01*
X0046063Y0025627D02*
X0048299Y0025627D01*
X0047674Y0025029D02*
X0046484Y0025029D01*
X0046553Y0024430D02*
X0047239Y0024430D01*
X0046933Y0023832D02*
X0046553Y0023832D01*
X0046553Y0023233D02*
X0046724Y0023233D01*
X0046598Y0022634D02*
X0046553Y0022634D01*
X0046553Y0021437D02*
X0046564Y0021437D01*
X0046553Y0020839D02*
X0046659Y0020839D01*
X0046553Y0020240D02*
X0046850Y0020240D01*
X0047129Y0019642D02*
X0046553Y0019642D01*
X0046481Y0019043D02*
X0047520Y0019043D01*
X0048061Y0018445D02*
X0046055Y0018445D01*
X0045798Y0017846D02*
X0048841Y0017846D01*
X0049645Y0016051D02*
X0056447Y0016051D01*
X0056447Y0015452D02*
X0050243Y0015452D01*
X0050489Y0014854D02*
X0056447Y0014854D01*
X0056447Y0014255D02*
X0055440Y0014255D01*
X0056039Y0013657D02*
X0056447Y0013657D01*
X0056447Y0010664D02*
X0055760Y0010664D01*
X0059128Y0007073D02*
X0043472Y0007073D01*
X0041231Y0007672D02*
X0061369Y0007672D01*
X0063610Y0008270D02*
X0038990Y0008270D01*
X0036750Y0008869D02*
X0065850Y0008869D01*
X0067465Y0009467D02*
X0035135Y0009467D01*
X0033847Y0010066D02*
X0068753Y0010066D01*
X0070041Y0010664D02*
X0064153Y0010664D01*
X0064153Y0011263D02*
X0071329Y0011263D01*
X0072617Y0011861D02*
X0064153Y0011861D01*
X0064153Y0012460D02*
X0073836Y0012460D01*
X0074694Y0013058D02*
X0064153Y0013058D01*
X0064153Y0013657D02*
X0075552Y0013657D01*
X0076410Y0014255D02*
X0064153Y0014255D01*
X0064153Y0014854D02*
X0077268Y0014854D01*
X0076548Y0015452D02*
X0078126Y0015452D01*
X0078984Y0016051D02*
X0077147Y0016051D01*
X0077242Y0016146D02*
X0077242Y0017111D01*
X0078207Y0017111D01*
X0079489Y0018393D01*
X0079489Y0020207D01*
X0078500Y0021196D01*
X0078500Y0022101D01*
X0081626Y0022101D01*
X0082153Y0022628D01*
X0082153Y0028492D01*
X0081626Y0029019D01*
X0074974Y0029019D01*
X0074447Y0028492D01*
X0074447Y0022628D01*
X0074974Y0022101D01*
X0076100Y0022101D01*
X0076100Y0021196D01*
X0075111Y0020207D01*
X0075111Y0019242D01*
X0074146Y0019242D01*
X0073157Y0018253D01*
X0073153Y0018253D01*
X0073153Y0021492D01*
X0072626Y0022019D01*
X0065974Y0022019D01*
X0065447Y0021492D01*
X0065447Y0015628D01*
X0065974Y0015101D01*
X0072626Y0015101D01*
X0073153Y0015628D01*
X0073153Y0015853D01*
X0073157Y0015853D01*
X0074146Y0014864D01*
X0075960Y0014864D01*
X0077242Y0016146D01*
X0077242Y0016649D02*
X0079842Y0016649D01*
X0080521Y0017248D02*
X0078344Y0017248D01*
X0078942Y0017846D02*
X0081123Y0017846D01*
X0081724Y0018445D02*
X0079489Y0018445D01*
X0079489Y0019043D02*
X0082325Y0019043D01*
X0082927Y0019642D02*
X0079489Y0019642D01*
X0079455Y0020240D02*
X0083528Y0020240D01*
X0084129Y0020839D02*
X0078857Y0020839D01*
X0078500Y0021437D02*
X0084731Y0021437D01*
X0085332Y0022036D02*
X0078500Y0022036D01*
X0076100Y0022036D02*
X0064553Y0022036D01*
X0064553Y0022634D02*
X0065355Y0022634D01*
X0065307Y0022683D02*
X0065549Y0022441D01*
X0065845Y0022270D01*
X0066176Y0022181D01*
X0069000Y0022181D01*
X0069000Y0025740D01*
X0069600Y0025740D01*
X0069600Y0022181D01*
X0072424Y0022181D01*
X0072755Y0022270D01*
X0073051Y0022441D01*
X0073293Y0022683D01*
X0073464Y0022979D01*
X0073553Y0023310D01*
X0073553Y0025740D01*
X0069600Y0025740D01*
X0069600Y0026340D01*
X0073553Y0026340D01*
X0073553Y0028770D01*
X0073464Y0029101D01*
X0073293Y0029397D01*
X0073051Y0029639D01*
X0072755Y0029811D01*
X0072424Y0029899D01*
X0069600Y0029899D01*
X0069600Y0026340D01*
X0069000Y0026340D01*
X0069000Y0025740D01*
X0065047Y0025740D01*
X0065047Y0023310D01*
X0065136Y0022979D01*
X0065307Y0022683D01*
X0065068Y0023233D02*
X0064553Y0023233D01*
X0064536Y0023832D02*
X0065047Y0023832D01*
X0065047Y0024430D02*
X0064260Y0024430D01*
X0065047Y0025029D02*
X0054926Y0025029D01*
X0055361Y0024430D02*
X0056340Y0024430D01*
X0056064Y0023832D02*
X0055667Y0023832D01*
X0055876Y0023233D02*
X0056047Y0023233D01*
X0056047Y0022634D02*
X0056002Y0022634D01*
X0056036Y0021437D02*
X0056047Y0021437D01*
X0054301Y0025627D02*
X0065047Y0025627D01*
X0065047Y0026340D02*
X0065047Y0028770D01*
X0065136Y0029101D01*
X0065307Y0029397D01*
X0065549Y0029639D01*
X0065845Y0029811D01*
X0066176Y0029899D01*
X0069000Y0029899D01*
X0069000Y0026340D01*
X0065047Y0026340D01*
X0065047Y0026824D02*
X0037553Y0026824D01*
X0037553Y0026340D02*
X0037553Y0028770D01*
X0037464Y0029101D01*
X0037293Y0029397D01*
X0037051Y0029639D01*
X0036755Y0029811D01*
X0036424Y0029899D01*
X0033600Y0029899D01*
X0033600Y0026340D01*
X0037553Y0026340D01*
X0037553Y0025740D02*
X0033600Y0025740D01*
X0033600Y0022181D01*
X0036424Y0022181D01*
X0036755Y0022270D01*
X0037051Y0022441D01*
X0037293Y0022683D01*
X0037464Y0022979D01*
X0037553Y0023310D01*
X0037553Y0025740D01*
X0037553Y0025627D02*
X0038537Y0025627D01*
X0038116Y0025029D02*
X0037553Y0025029D01*
X0037553Y0024430D02*
X0038047Y0024430D01*
X0038047Y0023832D02*
X0037553Y0023832D01*
X0037532Y0023233D02*
X0038047Y0023233D01*
X0038047Y0022634D02*
X0037245Y0022634D01*
X0037153Y0021437D02*
X0038047Y0021437D01*
X0038047Y0020839D02*
X0037153Y0020839D01*
X0037153Y0020240D02*
X0038047Y0020240D01*
X0038047Y0019642D02*
X0037153Y0019642D01*
X0037153Y0019043D02*
X0038119Y0019043D01*
X0038545Y0018445D02*
X0037153Y0018445D01*
X0033300Y0018560D02*
X0033300Y0013300D01*
X0034300Y0012300D01*
X0032840Y0010664D02*
X0032559Y0010664D01*
X0032242Y0011263D02*
X0031271Y0011263D01*
X0032111Y0011861D02*
X0029983Y0011861D01*
X0028764Y0012460D02*
X0032111Y0012460D01*
X0032100Y0013058D02*
X0027906Y0013058D01*
X0027048Y0013657D02*
X0032100Y0013657D01*
X0032100Y0014255D02*
X0026190Y0014255D01*
X0025332Y0014854D02*
X0032100Y0014854D01*
X0029623Y0015452D02*
X0024474Y0015452D01*
X0025300Y0018300D02*
X0024300Y0019300D01*
X0024300Y0024560D01*
X0023100Y0020839D02*
X0018471Y0020839D01*
X0017869Y0021437D02*
X0020638Y0021437D01*
X0020447Y0022036D02*
X0017268Y0022036D01*
X0016756Y0022634D02*
X0020447Y0022634D01*
X0020447Y0023233D02*
X0016334Y0023233D01*
X0015913Y0023832D02*
X0020447Y0023832D01*
X0020447Y0024430D02*
X0015491Y0024430D01*
X0015070Y0025029D02*
X0020447Y0025029D01*
X0020447Y0025627D02*
X0014648Y0025627D01*
X0014226Y0026226D02*
X0020447Y0026226D01*
X0020447Y0026824D02*
X0013805Y0026824D01*
X0013383Y0027423D02*
X0020447Y0027423D01*
X0020845Y0028270D02*
X0021176Y0028181D01*
X0024000Y0028181D01*
X0024000Y0031740D01*
X0024600Y0031740D01*
X0024600Y0028181D01*
X0027424Y0028181D01*
X0027755Y0028270D01*
X0028051Y0028441D01*
X0028293Y0028683D01*
X0028464Y0028979D01*
X0028553Y0029310D01*
X0028553Y0031740D01*
X0024600Y0031740D01*
X0024600Y0032340D01*
X0028553Y0032340D01*
X0028553Y0034770D01*
X0028464Y0035101D01*
X0028293Y0035397D01*
X0028051Y0035639D01*
X0027755Y0035811D01*
X0027424Y0035899D01*
X0024600Y0035899D01*
X0024600Y0032340D01*
X0024000Y0032340D01*
X0024000Y0031740D01*
X0020047Y0031740D01*
X0020047Y0029310D01*
X0020136Y0028979D01*
X0020307Y0028683D01*
X0020549Y0028441D01*
X0020845Y0028270D01*
X0020370Y0028620D02*
X0012540Y0028620D01*
X0012235Y0029218D02*
X0020072Y0029218D01*
X0020047Y0029817D02*
X0011953Y0029817D01*
X0011672Y0030415D02*
X0020047Y0030415D01*
X0020047Y0031014D02*
X0011390Y0031014D01*
X0011109Y0031612D02*
X0020047Y0031612D01*
X0020047Y0032340D02*
X0020047Y0034770D01*
X0020136Y0035101D01*
X0020307Y0035397D01*
X0020549Y0035639D01*
X0020845Y0035811D01*
X0021176Y0035899D01*
X0024000Y0035899D01*
X0024000Y0032340D01*
X0020047Y0032340D01*
X0020047Y0032809D02*
X0010545Y0032809D01*
X0010264Y0033408D02*
X0020047Y0033408D01*
X0020047Y0034006D02*
X0009982Y0034006D01*
X0009701Y0034605D02*
X0020047Y0034605D01*
X0020195Y0035203D02*
X0009419Y0035203D01*
X0009141Y0035802D02*
X0020830Y0035802D01*
X0024000Y0035802D02*
X0024600Y0035802D01*
X0024600Y0035203D02*
X0024000Y0035203D01*
X0024000Y0034605D02*
X0024600Y0034605D01*
X0024600Y0034006D02*
X0024000Y0034006D01*
X0024000Y0033408D02*
X0024600Y0033408D01*
X0024600Y0032809D02*
X0024000Y0032809D01*
X0024000Y0032211D02*
X0010827Y0032211D01*
X0008978Y0036400D02*
X0036798Y0036400D01*
X0036798Y0035802D02*
X0027770Y0035802D01*
X0028405Y0035203D02*
X0036798Y0035203D01*
X0036798Y0035106D02*
X0037103Y0034800D01*
X0036792Y0034489D01*
X0035393Y0034489D01*
X0034111Y0033207D01*
X0034111Y0031393D01*
X0035393Y0030111D01*
X0037207Y0030111D01*
X0038489Y0031393D01*
X0038489Y0032792D01*
X0038736Y0033039D01*
X0045904Y0033039D01*
X0047966Y0035100D01*
X0056331Y0035100D01*
X0057193Y0034239D01*
X0064935Y0034239D01*
X0065802Y0035106D01*
X0065802Y0037494D01*
X0064935Y0038361D01*
X0057193Y0038361D01*
X0056331Y0037500D01*
X0046972Y0037500D01*
X0046275Y0036803D01*
X0046275Y0037494D01*
X0045407Y0038361D01*
X0037665Y0038361D01*
X0036798Y0037494D01*
X0036798Y0035106D01*
X0036908Y0034605D02*
X0028553Y0034605D01*
X0028553Y0034006D02*
X0034911Y0034006D01*
X0034312Y0033408D02*
X0028553Y0033408D01*
X0028553Y0032809D02*
X0034111Y0032809D01*
X0034111Y0032211D02*
X0024600Y0032211D01*
X0024600Y0031612D02*
X0024000Y0031612D01*
X0024000Y0031014D02*
X0024600Y0031014D01*
X0024600Y0030415D02*
X0024000Y0030415D01*
X0024000Y0029817D02*
X0024600Y0029817D01*
X0024600Y0029218D02*
X0024000Y0029218D01*
X0024000Y0028620D02*
X0024600Y0028620D01*
X0028230Y0028620D02*
X0029047Y0028620D01*
X0029047Y0028770D02*
X0029047Y0026340D01*
X0033000Y0026340D01*
X0033000Y0025740D01*
X0033600Y0025740D01*
X0033600Y0026340D01*
X0033000Y0026340D01*
X0033000Y0029899D01*
X0030176Y0029899D01*
X0029845Y0029811D01*
X0029549Y0029639D01*
X0029307Y0029397D01*
X0029136Y0029101D01*
X0029047Y0028770D01*
X0029203Y0029218D02*
X0028528Y0029218D01*
X0028553Y0029817D02*
X0029868Y0029817D01*
X0028553Y0030415D02*
X0035089Y0030415D01*
X0034491Y0031014D02*
X0028553Y0031014D01*
X0028553Y0031612D02*
X0034111Y0031612D01*
X0033600Y0029817D02*
X0033000Y0029817D01*
X0033000Y0029218D02*
X0033600Y0029218D01*
X0033600Y0028620D02*
X0033000Y0028620D01*
X0033000Y0028021D02*
X0033600Y0028021D01*
X0033600Y0027423D02*
X0033000Y0027423D01*
X0033000Y0026824D02*
X0033600Y0026824D01*
X0033600Y0026226D02*
X0049258Y0026226D01*
X0051000Y0026226D02*
X0051600Y0026226D01*
X0051600Y0025627D02*
X0051000Y0025627D01*
X0051000Y0025029D02*
X0051600Y0025029D01*
X0051600Y0024430D02*
X0051000Y0024430D01*
X0051000Y0023832D02*
X0051600Y0023832D01*
X0051600Y0023233D02*
X0051000Y0023233D01*
X0051000Y0022634D02*
X0051600Y0022634D01*
X0053342Y0026226D02*
X0069000Y0026226D01*
X0069000Y0026824D02*
X0069600Y0026824D01*
X0069600Y0026226D02*
X0074447Y0026226D01*
X0074447Y0026824D02*
X0073553Y0026824D01*
X0073553Y0027423D02*
X0074447Y0027423D01*
X0074447Y0028021D02*
X0073553Y0028021D01*
X0073553Y0028620D02*
X0074575Y0028620D01*
X0074845Y0029270D02*
X0075176Y0029181D01*
X0078000Y0029181D01*
X0078000Y0032740D01*
X0078600Y0032740D01*
X0078600Y0029181D01*
X0081424Y0029181D01*
X0081755Y0029270D01*
X0082051Y0029441D01*
X0082293Y0029683D01*
X0082464Y0029979D01*
X0082553Y0030310D01*
X0082553Y0032740D01*
X0078600Y0032740D01*
X0078600Y0033340D01*
X0082553Y0033340D01*
X0082553Y0035770D01*
X0082464Y0036101D01*
X0082293Y0036397D01*
X0082051Y0036639D01*
X0081755Y0036811D01*
X0081424Y0036899D01*
X0078600Y0036899D01*
X0078600Y0033340D01*
X0078000Y0033340D01*
X0078000Y0032740D01*
X0074047Y0032740D01*
X0074047Y0030310D01*
X0074136Y0029979D01*
X0074307Y0029683D01*
X0074549Y0029441D01*
X0074845Y0029270D01*
X0075038Y0029218D02*
X0073397Y0029218D01*
X0072732Y0029817D02*
X0074230Y0029817D01*
X0074047Y0030415D02*
X0037511Y0030415D01*
X0038109Y0031014D02*
X0074047Y0031014D01*
X0074047Y0031612D02*
X0038489Y0031612D01*
X0038489Y0032211D02*
X0074047Y0032211D01*
X0074047Y0033340D02*
X0074047Y0035770D01*
X0074136Y0036101D01*
X0074307Y0036397D01*
X0074549Y0036639D01*
X0074845Y0036811D01*
X0075176Y0036899D01*
X0078000Y0036899D01*
X0078000Y0033340D01*
X0074047Y0033340D01*
X0074047Y0033408D02*
X0046274Y0033408D01*
X0046872Y0034006D02*
X0074047Y0034006D01*
X0074047Y0034605D02*
X0065301Y0034605D01*
X0065802Y0035203D02*
X0074047Y0035203D01*
X0074056Y0035802D02*
X0065802Y0035802D01*
X0065802Y0036400D02*
X0074310Y0036400D01*
X0078000Y0036400D02*
X0078600Y0036400D01*
X0078600Y0035802D02*
X0078000Y0035802D01*
X0078000Y0035203D02*
X0078600Y0035203D01*
X0078600Y0034605D02*
X0078000Y0034605D01*
X0078000Y0034006D02*
X0078600Y0034006D01*
X0078600Y0033408D02*
X0078000Y0033408D01*
X0078000Y0032809D02*
X0038506Y0032809D01*
X0038239Y0034239D02*
X0036300Y0032300D01*
X0036732Y0029817D02*
X0065868Y0029817D01*
X0065203Y0029218D02*
X0037397Y0029218D01*
X0037553Y0028620D02*
X0065047Y0028620D01*
X0065047Y0028021D02*
X0037553Y0028021D01*
X0037553Y0027423D02*
X0065047Y0027423D01*
X0069000Y0027423D02*
X0069600Y0027423D01*
X0069600Y0028021D02*
X0069000Y0028021D01*
X0069000Y0028620D02*
X0069600Y0028620D01*
X0069600Y0029218D02*
X0069000Y0029218D01*
X0069000Y0029817D02*
X0069600Y0029817D01*
X0069600Y0025627D02*
X0069000Y0025627D01*
X0069000Y0025029D02*
X0069600Y0025029D01*
X0069600Y0024430D02*
X0069000Y0024430D01*
X0069000Y0023832D02*
X0069600Y0023832D01*
X0069600Y0023233D02*
X0069000Y0023233D01*
X0069000Y0022634D02*
X0069600Y0022634D01*
X0073245Y0022634D02*
X0074447Y0022634D01*
X0074447Y0023233D02*
X0073532Y0023233D01*
X0073553Y0023832D02*
X0074447Y0023832D01*
X0074447Y0024430D02*
X0073553Y0024430D01*
X0073553Y0025029D02*
X0074447Y0025029D01*
X0074447Y0025627D02*
X0073553Y0025627D01*
X0073153Y0021437D02*
X0076100Y0021437D01*
X0075743Y0020839D02*
X0073153Y0020839D01*
X0073153Y0020240D02*
X0075145Y0020240D01*
X0075111Y0019642D02*
X0073153Y0019642D01*
X0073153Y0019043D02*
X0073948Y0019043D01*
X0073349Y0018445D02*
X0073153Y0018445D01*
X0075053Y0017053D02*
X0070807Y0017053D01*
X0069300Y0018560D01*
X0065447Y0018445D02*
X0064553Y0018445D01*
X0064553Y0019043D02*
X0065447Y0019043D01*
X0065447Y0019642D02*
X0064553Y0019642D01*
X0064553Y0020240D02*
X0065447Y0020240D01*
X0065447Y0020839D02*
X0060600Y0020839D01*
X0060600Y0021437D02*
X0060000Y0021437D01*
X0060000Y0022036D02*
X0060600Y0022036D01*
X0060600Y0022634D02*
X0060000Y0022634D01*
X0060000Y0023233D02*
X0060600Y0023233D01*
X0060600Y0023832D02*
X0060000Y0023832D01*
X0060000Y0024430D02*
X0060600Y0024430D01*
X0064553Y0021437D02*
X0065447Y0021437D01*
X0065447Y0017846D02*
X0064387Y0017846D01*
X0063673Y0017248D02*
X0065447Y0017248D01*
X0065447Y0016649D02*
X0063995Y0016649D01*
X0064153Y0016051D02*
X0065447Y0016051D01*
X0065623Y0015452D02*
X0064153Y0015452D01*
X0072977Y0015452D02*
X0073558Y0015452D01*
X0077300Y0019300D02*
X0077300Y0024560D01*
X0078300Y0025560D01*
X0078000Y0029218D02*
X0078600Y0029218D01*
X0078600Y0029817D02*
X0078000Y0029817D01*
X0078000Y0030415D02*
X0078600Y0030415D01*
X0078600Y0031014D02*
X0078000Y0031014D01*
X0078000Y0031612D02*
X0078600Y0031612D01*
X0078600Y0032211D02*
X0078000Y0032211D01*
X0078600Y0032809D02*
X0092055Y0032809D01*
X0092336Y0033408D02*
X0082553Y0033408D01*
X0082553Y0034006D02*
X0092618Y0034006D01*
X0092899Y0034605D02*
X0082553Y0034605D01*
X0082553Y0035203D02*
X0093181Y0035203D01*
X0093459Y0035802D02*
X0082544Y0035802D01*
X0082290Y0036400D02*
X0093622Y0036400D01*
X0093784Y0036999D02*
X0065802Y0036999D01*
X0065699Y0037597D02*
X0093947Y0037597D01*
X0094110Y0038196D02*
X0065101Y0038196D01*
X0064935Y0039239D02*
X0065802Y0040106D01*
X0065802Y0042494D01*
X0064935Y0043361D01*
X0057193Y0043361D01*
X0056331Y0042500D01*
X0051196Y0042500D01*
X0050207Y0043489D01*
X0048393Y0043489D01*
X0047111Y0042207D01*
X0047111Y0040393D01*
X0048393Y0039111D01*
X0050207Y0039111D01*
X0051196Y0040100D01*
X0056331Y0040100D01*
X0057193Y0039239D01*
X0064935Y0039239D01*
X0065089Y0039393D02*
X0094436Y0039393D01*
X0094599Y0039991D02*
X0065688Y0039991D01*
X0065802Y0040590D02*
X0094762Y0040590D01*
X0094925Y0041188D02*
X0065802Y0041188D01*
X0065802Y0041787D02*
X0095087Y0041787D01*
X0095250Y0042385D02*
X0065802Y0042385D01*
X0065312Y0042984D02*
X0095413Y0042984D01*
X0095528Y0043582D02*
X0033852Y0043582D01*
X0033842Y0043572D02*
X0035369Y0045100D01*
X0036804Y0045100D01*
X0037665Y0044239D01*
X0045407Y0044239D01*
X0046275Y0045106D01*
X0046275Y0047494D01*
X0045407Y0048361D01*
X0037665Y0048361D01*
X0036804Y0047500D01*
X0035899Y0047500D01*
X0036877Y0049862D01*
X0036877Y0050026D01*
X0037665Y0049239D01*
X0045407Y0049239D01*
X0046275Y0050106D01*
X0046275Y0052494D01*
X0045407Y0053361D01*
X0041172Y0053361D01*
X0040295Y0054239D01*
X0045407Y0054239D01*
X0046275Y0055106D01*
X0046275Y0057494D01*
X0045407Y0058361D01*
X0037665Y0058361D01*
X0036798Y0057494D01*
X0036798Y0056803D01*
X0032500Y0061101D01*
X0032500Y0064404D01*
X0033489Y0065393D01*
X0033489Y0067207D01*
X0032207Y0068489D01*
X0030393Y0068489D01*
X0029111Y0067207D01*
X0029111Y0065393D01*
X0030100Y0064404D01*
X0030100Y0060107D01*
X0030803Y0059404D01*
X0032094Y0058113D01*
X0031085Y0058531D01*
X0028208Y0058531D01*
X0025551Y0057430D01*
X0023517Y0055396D01*
X0022416Y0052738D01*
X0022416Y0049862D01*
X0023517Y0047204D01*
X0025451Y0045269D01*
X0025028Y0045269D01*
X0019012Y0051285D01*
X0019500Y0052465D01*
X0019500Y0054135D01*
X0018861Y0055679D01*
X0017679Y0056861D01*
X0016135Y0057500D01*
X0014465Y0057500D01*
X0012921Y0056861D01*
X0011739Y0055679D01*
X0011100Y0054135D01*
X0011100Y0052465D01*
X0011739Y0050921D01*
X0012921Y0049739D01*
X0014465Y0049100D01*
X0016135Y0049100D01*
X0017315Y0049588D01*
X0024034Y0042869D01*
X0033139Y0042869D01*
X0033842Y0043572D01*
X0033253Y0042984D02*
X0037287Y0042984D01*
X0037665Y0043361D02*
X0036798Y0042494D01*
X0036798Y0040106D01*
X0037665Y0039239D01*
X0045407Y0039239D01*
X0046275Y0040106D01*
X0046275Y0042494D01*
X0045407Y0043361D01*
X0037665Y0043361D01*
X0036798Y0042385D02*
X0019812Y0042385D01*
X0019787Y0042223D02*
X0019900Y0042938D01*
X0019900Y0043000D01*
X0015600Y0043000D01*
X0015600Y0043600D01*
X0019900Y0043600D01*
X0019900Y0043662D01*
X0019787Y0044377D01*
X0019563Y0045066D01*
X0019234Y0045711D01*
X0018809Y0046297D01*
X0018297Y0046809D01*
X0017711Y0047234D01*
X0017066Y0047563D01*
X0016377Y0047787D01*
X0015662Y0047900D01*
X0015600Y0047900D01*
X0015600Y0043600D01*
X0015000Y0043600D01*
X0015000Y0047900D01*
X0014938Y0047900D01*
X0014223Y0047787D01*
X0013534Y0047563D01*
X0012889Y0047234D01*
X0012303Y0046809D01*
X0011791Y0046297D01*
X0011366Y0045711D01*
X0011037Y0045066D01*
X0010813Y0044377D01*
X0010700Y0043662D01*
X0010700Y0043600D01*
X0015000Y0043600D01*
X0015000Y0043000D01*
X0015600Y0043000D01*
X0015600Y0038700D01*
X0015662Y0038700D01*
X0016377Y0038813D01*
X0017066Y0039037D01*
X0017711Y0039366D01*
X0018297Y0039791D01*
X0018809Y0040303D01*
X0019234Y0040889D01*
X0019563Y0041534D01*
X0019787Y0042223D01*
X0019645Y0041787D02*
X0036798Y0041787D01*
X0036798Y0041188D02*
X0019387Y0041188D01*
X0019017Y0040590D02*
X0036798Y0040590D01*
X0036912Y0039991D02*
X0018497Y0039991D01*
X0017748Y0039393D02*
X0037511Y0039393D01*
X0037499Y0038196D02*
X0008490Y0038196D01*
X0008327Y0038794D02*
X0014343Y0038794D01*
X0014223Y0038813D02*
X0014938Y0038700D01*
X0015000Y0038700D01*
X0015000Y0043000D01*
X0010700Y0043000D01*
X0010700Y0042938D01*
X0010813Y0042223D01*
X0011037Y0041534D01*
X0011366Y0040889D01*
X0011791Y0040303D01*
X0012303Y0039791D01*
X0012889Y0039366D01*
X0013534Y0039037D01*
X0014223Y0038813D01*
X0015000Y0038794D02*
X0015600Y0038794D01*
X0015600Y0039393D02*
X0015000Y0039393D01*
X0015000Y0039991D02*
X0015600Y0039991D01*
X0015600Y0040590D02*
X0015000Y0040590D01*
X0015000Y0041188D02*
X0015600Y0041188D01*
X0015600Y0041787D02*
X0015000Y0041787D01*
X0015000Y0042385D02*
X0015600Y0042385D01*
X0015600Y0042984D02*
X0015000Y0042984D01*
X0015000Y0043582D02*
X0007072Y0043582D01*
X0007017Y0044181D02*
X0010782Y0044181D01*
X0010944Y0044779D02*
X0006962Y0044779D01*
X0006907Y0045378D02*
X0011196Y0045378D01*
X0011559Y0045976D02*
X0006852Y0045976D01*
X0006797Y0046575D02*
X0012070Y0046575D01*
X0012805Y0047173D02*
X0006742Y0047173D01*
X0006687Y0047772D02*
X0014177Y0047772D01*
X0015000Y0047772D02*
X0015600Y0047772D01*
X0015600Y0047173D02*
X0015000Y0047173D01*
X0015000Y0046575D02*
X0015600Y0046575D01*
X0015600Y0045976D02*
X0015000Y0045976D01*
X0015000Y0045378D02*
X0015600Y0045378D01*
X0015600Y0044779D02*
X0015000Y0044779D01*
X0015000Y0044181D02*
X0015600Y0044181D01*
X0015600Y0043582D02*
X0023321Y0043582D01*
X0023919Y0042984D02*
X0019900Y0042984D01*
X0019818Y0044181D02*
X0022722Y0044181D01*
X0022124Y0044779D02*
X0019656Y0044779D01*
X0019404Y0045378D02*
X0021525Y0045378D01*
X0020927Y0045976D02*
X0019041Y0045976D01*
X0018530Y0046575D02*
X0020328Y0046575D01*
X0019729Y0047173D02*
X0017795Y0047173D01*
X0018532Y0048370D02*
X0006632Y0048370D01*
X0006577Y0048969D02*
X0017934Y0048969D01*
X0017335Y0049568D02*
X0017264Y0049568D01*
X0016423Y0047772D02*
X0019131Y0047772D01*
X0020730Y0049568D02*
X0022538Y0049568D01*
X0022416Y0050166D02*
X0020131Y0050166D01*
X0019533Y0050765D02*
X0022416Y0050765D01*
X0022416Y0051363D02*
X0019044Y0051363D01*
X0019292Y0051962D02*
X0022416Y0051962D01*
X0022416Y0052560D02*
X0019500Y0052560D01*
X0019500Y0053159D02*
X0022590Y0053159D01*
X0022838Y0053757D02*
X0019500Y0053757D01*
X0019409Y0054356D02*
X0023086Y0054356D01*
X0023334Y0054954D02*
X0019161Y0054954D01*
X0018913Y0055553D02*
X0023673Y0055553D01*
X0024272Y0056151D02*
X0018389Y0056151D01*
X0017790Y0056750D02*
X0024870Y0056750D01*
X0025469Y0057348D02*
X0016502Y0057348D01*
X0016135Y0059100D02*
X0014465Y0059100D01*
X0012921Y0059739D01*
X0011739Y0060921D01*
X0011100Y0062465D01*
X0011100Y0064135D01*
X0011739Y0065679D01*
X0012921Y0066861D01*
X0014465Y0067500D01*
X0016135Y0067500D01*
X0017679Y0066861D01*
X0018861Y0065679D01*
X0019500Y0064135D01*
X0019500Y0062465D01*
X0018861Y0060921D01*
X0017679Y0059739D01*
X0016135Y0059100D01*
X0016241Y0059144D02*
X0031063Y0059144D01*
X0030464Y0059742D02*
X0017682Y0059742D01*
X0018280Y0060341D02*
X0030100Y0060341D01*
X0030100Y0060939D02*
X0018868Y0060939D01*
X0019116Y0061538D02*
X0030100Y0061538D01*
X0030100Y0062136D02*
X0019364Y0062136D01*
X0019500Y0062735D02*
X0030100Y0062735D01*
X0030100Y0063333D02*
X0019500Y0063333D01*
X0019500Y0063932D02*
X0030100Y0063932D01*
X0029974Y0064530D02*
X0019336Y0064530D01*
X0019089Y0065129D02*
X0029376Y0065129D01*
X0029111Y0065727D02*
X0018812Y0065727D01*
X0018214Y0066326D02*
X0029111Y0066326D01*
X0029111Y0066924D02*
X0017525Y0066924D01*
X0020614Y0070515D02*
X0010882Y0070515D01*
X0010607Y0069917D02*
X0021970Y0069917D01*
X0023766Y0069917D02*
X0050100Y0069917D01*
X0050100Y0070515D02*
X0025122Y0070515D01*
X0025720Y0071114D02*
X0050100Y0071114D01*
X0050100Y0071712D02*
X0026218Y0071712D01*
X0026466Y0072311D02*
X0050100Y0072311D01*
X0050100Y0072909D02*
X0026714Y0072909D01*
X0026736Y0073508D02*
X0050100Y0073508D01*
X0050100Y0074106D02*
X0026736Y0074106D01*
X0026652Y0074705D02*
X0040429Y0074705D01*
X0040458Y0074696D02*
X0041122Y0074591D01*
X0041157Y0074591D01*
X0041157Y0078559D01*
X0037189Y0078559D01*
X0037189Y0078523D01*
X0037294Y0077859D01*
X0037502Y0077221D01*
X0037807Y0076622D01*
X0038202Y0076078D01*
X0038677Y0075603D01*
X0039220Y0075208D01*
X0039819Y0074903D01*
X0040458Y0074696D01*
X0041157Y0074705D02*
X0041757Y0074705D01*
X0041757Y0074591D02*
X0041793Y0074591D01*
X0042457Y0074696D01*
X0043096Y0074903D01*
X0043695Y0075208D01*
X0044238Y0075603D01*
X0044713Y0076078D01*
X0045108Y0076622D01*
X0045413Y0077221D01*
X0045621Y0077859D01*
X0045726Y0078523D01*
X0045726Y0078559D01*
X0041758Y0078559D01*
X0041758Y0079159D01*
X0045726Y0079159D01*
X0045726Y0079195D01*
X0045621Y0079859D01*
X0045413Y0080498D01*
X0045108Y0081096D01*
X0044713Y0081640D01*
X0044238Y0082115D01*
X0043695Y0082510D01*
X0043096Y0082815D01*
X0042457Y0083022D01*
X0041793Y0083128D01*
X0041757Y0083128D01*
X0041757Y0079159D01*
X0041157Y0079159D01*
X0041157Y0078559D01*
X0041757Y0078559D01*
X0041757Y0074591D01*
X0041757Y0075303D02*
X0041157Y0075303D01*
X0041157Y0075902D02*
X0041757Y0075902D01*
X0041757Y0076501D02*
X0041157Y0076501D01*
X0041157Y0077099D02*
X0041757Y0077099D01*
X0041757Y0077698D02*
X0041157Y0077698D01*
X0041157Y0078296D02*
X0041757Y0078296D01*
X0041758Y0078895D02*
X0047431Y0078895D01*
X0047431Y0079493D02*
X0045679Y0079493D01*
X0045545Y0080092D02*
X0047623Y0080092D01*
X0047431Y0079629D02*
X0048020Y0081050D01*
X0049109Y0082139D01*
X0050530Y0082728D01*
X0052069Y0082728D01*
X0053491Y0082139D01*
X0054580Y0081050D01*
X0055168Y0079629D01*
X0055168Y0078090D01*
X0054580Y0076668D01*
X0053491Y0075579D01*
X0052500Y0075169D01*
X0052500Y0060628D01*
X0056325Y0056803D01*
X0056325Y0057494D01*
X0057193Y0058361D01*
X0064935Y0058361D01*
X0065111Y0058185D01*
X0065111Y0059207D01*
X0066393Y0060489D01*
X0068207Y0060489D01*
X0069489Y0059207D01*
X0069489Y0057691D01*
X0071515Y0058531D01*
X0074392Y0058531D01*
X0077049Y0057430D01*
X0079083Y0055396D01*
X0080184Y0052738D01*
X0080184Y0049862D01*
X0079083Y0047204D01*
X0077049Y0045170D01*
X0074392Y0044069D01*
X0071515Y0044069D01*
X0068858Y0045170D01*
X0066824Y0047204D01*
X0065723Y0049862D01*
X0065723Y0050026D01*
X0064935Y0049239D01*
X0057193Y0049239D01*
X0056325Y0050106D01*
X0056325Y0052494D01*
X0056870Y0053039D01*
X0056696Y0053039D01*
X0050803Y0058931D01*
X0050100Y0059634D01*
X0050100Y0060004D01*
X0049207Y0059111D01*
X0047393Y0059111D01*
X0046404Y0060100D01*
X0046269Y0060100D01*
X0045407Y0059239D01*
X0037665Y0059239D01*
X0036798Y0060106D01*
X0036798Y0062494D01*
X0037665Y0063361D01*
X0045407Y0063361D01*
X0046269Y0062500D01*
X0046404Y0062500D01*
X0047393Y0063489D01*
X0049207Y0063489D01*
X0050100Y0062596D01*
X0050100Y0075169D01*
X0049109Y0075579D01*
X0048020Y0076668D01*
X0047431Y0078090D01*
X0047431Y0079629D01*
X0047871Y0080690D02*
X0045315Y0080690D01*
X0044968Y0081289D02*
X0048259Y0081289D01*
X0048857Y0081887D02*
X0044466Y0081887D01*
X0043728Y0082486D02*
X0049946Y0082486D01*
X0052654Y0082486D02*
X0059789Y0082486D01*
X0060373Y0082728D02*
X0058951Y0082139D01*
X0057863Y0081050D01*
X0057274Y0079629D01*
X0057274Y0078090D01*
X0057863Y0076668D01*
X0058951Y0075579D01*
X0060100Y0075104D01*
X0060100Y0068361D01*
X0057193Y0068361D01*
X0056325Y0067494D01*
X0056325Y0065106D01*
X0057193Y0064239D01*
X0064935Y0064239D01*
X0065796Y0065100D01*
X0068101Y0065100D01*
X0068101Y0060974D01*
X0068628Y0060447D01*
X0074492Y0060447D01*
X0075019Y0060974D01*
X0075019Y0067626D01*
X0074492Y0068153D01*
X0068628Y0068153D01*
X0068101Y0067626D01*
X0068101Y0067500D01*
X0065796Y0067500D01*
X0064935Y0068361D01*
X0062500Y0068361D01*
X0062500Y0075234D01*
X0063334Y0075579D01*
X0064422Y0076668D01*
X0065011Y0078090D01*
X0065011Y0079629D01*
X0064422Y0081050D01*
X0063334Y0082139D01*
X0061912Y0082728D01*
X0060373Y0082728D01*
X0058700Y0081887D02*
X0053743Y0081887D01*
X0054341Y0081289D02*
X0058101Y0081289D01*
X0057714Y0080690D02*
X0054729Y0080690D01*
X0054977Y0080092D02*
X0057466Y0080092D01*
X0057274Y0079493D02*
X0055168Y0079493D01*
X0055168Y0078895D02*
X0057274Y0078895D01*
X0057274Y0078296D02*
X0055168Y0078296D01*
X0055006Y0077698D02*
X0057436Y0077698D01*
X0057684Y0077099D02*
X0054758Y0077099D01*
X0054412Y0076501D02*
X0058030Y0076501D01*
X0058629Y0075902D02*
X0053814Y0075902D01*
X0052825Y0075303D02*
X0059617Y0075303D01*
X0060100Y0074705D02*
X0052500Y0074705D01*
X0052500Y0074106D02*
X0060100Y0074106D01*
X0060100Y0073508D02*
X0052500Y0073508D01*
X0052500Y0072909D02*
X0060100Y0072909D01*
X0060100Y0072311D02*
X0052500Y0072311D01*
X0052500Y0071712D02*
X0060100Y0071712D01*
X0060100Y0071114D02*
X0052500Y0071114D01*
X0052500Y0070515D02*
X0060100Y0070515D01*
X0060100Y0069917D02*
X0052500Y0069917D01*
X0052500Y0069318D02*
X0060100Y0069318D01*
X0060100Y0068720D02*
X0052500Y0068720D01*
X0052500Y0068121D02*
X0056953Y0068121D01*
X0056354Y0067523D02*
X0052500Y0067523D01*
X0052500Y0066924D02*
X0056325Y0066924D01*
X0056325Y0066326D02*
X0052500Y0066326D01*
X0052500Y0065727D02*
X0056325Y0065727D01*
X0056325Y0065129D02*
X0052500Y0065129D01*
X0052500Y0064530D02*
X0056901Y0064530D01*
X0057193Y0063361D02*
X0056763Y0062932D01*
X0056207Y0063489D01*
X0054393Y0063489D01*
X0053111Y0062207D01*
X0053111Y0060393D01*
X0054393Y0059111D01*
X0056207Y0059111D01*
X0056763Y0059668D01*
X0057193Y0059239D01*
X0064935Y0059239D01*
X0065802Y0060106D01*
X0065802Y0062494D01*
X0064935Y0063361D01*
X0057193Y0063361D01*
X0057164Y0063333D02*
X0056362Y0063333D01*
X0054238Y0063333D02*
X0052500Y0063333D01*
X0052500Y0062735D02*
X0053639Y0062735D01*
X0053111Y0062136D02*
X0052500Y0062136D01*
X0052500Y0061538D02*
X0053111Y0061538D01*
X0053111Y0060939D02*
X0052500Y0060939D01*
X0052787Y0060341D02*
X0053164Y0060341D01*
X0053386Y0059742D02*
X0053762Y0059742D01*
X0053984Y0059144D02*
X0054361Y0059144D01*
X0054583Y0058545D02*
X0065111Y0058545D01*
X0065111Y0059144D02*
X0056239Y0059144D01*
X0056778Y0057947D02*
X0055182Y0057947D01*
X0055780Y0057348D02*
X0056325Y0057348D01*
X0054181Y0055553D02*
X0046275Y0055553D01*
X0046275Y0056151D02*
X0053583Y0056151D01*
X0052984Y0056750D02*
X0046275Y0056750D01*
X0046275Y0057348D02*
X0052386Y0057348D01*
X0051787Y0057947D02*
X0045822Y0057947D01*
X0045911Y0059742D02*
X0046762Y0059742D01*
X0047361Y0059144D02*
X0034457Y0059144D01*
X0033858Y0059742D02*
X0037161Y0059742D01*
X0036798Y0060341D02*
X0033260Y0060341D01*
X0032661Y0060939D02*
X0036798Y0060939D01*
X0036798Y0061538D02*
X0032500Y0061538D01*
X0032500Y0062136D02*
X0036798Y0062136D01*
X0037038Y0062735D02*
X0032500Y0062735D01*
X0032500Y0063333D02*
X0037637Y0063333D01*
X0037683Y0063932D02*
X0032500Y0063932D01*
X0032626Y0064530D02*
X0036808Y0064530D01*
X0036773Y0064565D02*
X0037124Y0064214D01*
X0037552Y0063967D01*
X0038031Y0063839D01*
X0041255Y0063839D01*
X0041255Y0066019D01*
X0036398Y0066019D01*
X0036398Y0065472D01*
X0036526Y0064993D01*
X0036773Y0064565D01*
X0036490Y0065129D02*
X0033224Y0065129D01*
X0033489Y0065727D02*
X0036398Y0065727D01*
X0036398Y0066581D02*
X0041255Y0066581D01*
X0041255Y0066019D01*
X0041817Y0066019D01*
X0041817Y0063839D01*
X0045042Y0063839D01*
X0045520Y0063967D01*
X0045949Y0064214D01*
X0046299Y0064565D01*
X0046547Y0064993D01*
X0046675Y0065472D01*
X0046675Y0066019D01*
X0041817Y0066019D01*
X0041817Y0066581D01*
X0041255Y0066581D01*
X0041255Y0068761D01*
X0038031Y0068761D01*
X0037552Y0068633D01*
X0037124Y0068386D01*
X0036773Y0068035D01*
X0036526Y0067607D01*
X0036398Y0067128D01*
X0036398Y0066581D01*
X0036398Y0066924D02*
X0033489Y0066924D01*
X0033489Y0066326D02*
X0041255Y0066326D01*
X0041817Y0066326D02*
X0050100Y0066326D01*
X0050100Y0066924D02*
X0046675Y0066924D01*
X0046675Y0067128D02*
X0046547Y0067607D01*
X0046299Y0068035D01*
X0045949Y0068386D01*
X0045520Y0068633D01*
X0045042Y0068761D01*
X0041817Y0068761D01*
X0041817Y0066581D01*
X0046675Y0066581D01*
X0046675Y0067128D01*
X0046569Y0067523D02*
X0050100Y0067523D01*
X0050100Y0068121D02*
X0046213Y0068121D01*
X0045197Y0068720D02*
X0050100Y0068720D01*
X0050100Y0069318D02*
X0010333Y0069318D01*
X0010058Y0068720D02*
X0037876Y0068720D01*
X0036859Y0068121D02*
X0032574Y0068121D01*
X0033173Y0067523D02*
X0036503Y0067523D01*
X0041255Y0067523D02*
X0041817Y0067523D01*
X0041817Y0068121D02*
X0041255Y0068121D01*
X0041255Y0068720D02*
X0041817Y0068720D01*
X0041817Y0066924D02*
X0041255Y0066924D01*
X0041255Y0065727D02*
X0041817Y0065727D01*
X0041817Y0065129D02*
X0041255Y0065129D01*
X0041255Y0064530D02*
X0041817Y0064530D01*
X0041817Y0063932D02*
X0041255Y0063932D01*
X0041536Y0061300D02*
X0048300Y0061300D01*
X0049838Y0059742D02*
X0050100Y0059742D01*
X0050590Y0059144D02*
X0049239Y0059144D01*
X0051189Y0058545D02*
X0035055Y0058545D01*
X0035654Y0057947D02*
X0037250Y0057947D01*
X0036798Y0057348D02*
X0036252Y0057348D01*
X0037665Y0054239D02*
X0031300Y0060604D01*
X0031300Y0066300D01*
X0030026Y0068121D02*
X0009783Y0068121D01*
X0009509Y0067523D02*
X0029427Y0067523D01*
X0026404Y0075303D02*
X0039089Y0075303D01*
X0038378Y0075902D02*
X0026156Y0075902D01*
X0025570Y0076501D02*
X0037895Y0076501D01*
X0037564Y0077099D02*
X0024972Y0077099D01*
X0024373Y0077698D02*
X0037347Y0077698D01*
X0037225Y0078296D02*
X0023775Y0078296D01*
X0023176Y0078895D02*
X0041157Y0078895D01*
X0041157Y0079159D02*
X0037189Y0079159D01*
X0037189Y0079195D01*
X0037294Y0079859D01*
X0037502Y0080498D01*
X0037807Y0081096D01*
X0038202Y0081640D01*
X0038677Y0082115D01*
X0039220Y0082510D01*
X0039819Y0082815D01*
X0040458Y0083022D01*
X0041122Y0083128D01*
X0041157Y0083128D01*
X0041157Y0079159D01*
X0041157Y0079493D02*
X0041757Y0079493D01*
X0041757Y0080092D02*
X0041157Y0080092D01*
X0041157Y0080690D02*
X0041757Y0080690D01*
X0041757Y0081289D02*
X0041157Y0081289D01*
X0041157Y0081887D02*
X0041757Y0081887D01*
X0041757Y0082486D02*
X0041157Y0082486D01*
X0041157Y0083084D02*
X0041757Y0083084D01*
X0042067Y0083084D02*
X0072160Y0083084D01*
X0072085Y0083264D02*
X0072553Y0082135D01*
X0073417Y0081271D01*
X0074546Y0080803D01*
X0075768Y0080803D01*
X0076897Y0081271D01*
X0077761Y0082135D01*
X0078229Y0083264D01*
X0078229Y0084486D01*
X0077761Y0085615D01*
X0076897Y0086479D01*
X0075768Y0086947D01*
X0074546Y0086947D01*
X0073417Y0086479D01*
X0072553Y0085615D01*
X0072085Y0084486D01*
X0072085Y0083264D01*
X0072085Y0083683D02*
X0030394Y0083683D01*
X0030394Y0083143D02*
X0030394Y0084365D01*
X0029926Y0085494D01*
X0029062Y0086358D01*
X0027933Y0086826D01*
X0026711Y0086826D01*
X0025582Y0086358D01*
X0024718Y0085494D01*
X0024250Y0084365D01*
X0024250Y0083143D01*
X0024718Y0082014D01*
X0025582Y0081150D01*
X0026711Y0080683D01*
X0027933Y0080683D01*
X0029062Y0081150D01*
X0029926Y0082014D01*
X0030394Y0083143D01*
X0030369Y0083084D02*
X0040847Y0083084D01*
X0039187Y0082486D02*
X0030121Y0082486D01*
X0029799Y0081887D02*
X0038449Y0081887D01*
X0037947Y0081289D02*
X0029200Y0081289D01*
X0027951Y0080690D02*
X0037600Y0080690D01*
X0037370Y0080092D02*
X0021979Y0080092D01*
X0021381Y0080690D02*
X0026693Y0080690D01*
X0025444Y0081289D02*
X0020671Y0081289D01*
X0019796Y0083084D02*
X0024275Y0083084D01*
X0024250Y0083683D02*
X0020386Y0083683D01*
X0020976Y0084281D02*
X0024250Y0084281D01*
X0024463Y0084880D02*
X0021566Y0084880D01*
X0022157Y0085478D02*
X0024711Y0085478D01*
X0025301Y0086077D02*
X0022989Y0086077D01*
X0023831Y0086675D02*
X0026347Y0086675D01*
X0024672Y0087274D02*
X0032659Y0087274D01*
X0031666Y0087872D02*
X0025513Y0087872D01*
X0026354Y0088471D02*
X0031099Y0088471D01*
X0030851Y0089069D02*
X0027195Y0089069D01*
X0028036Y0089668D02*
X0030653Y0089668D01*
X0030653Y0090266D02*
X0028994Y0090266D01*
X0030121Y0090865D02*
X0030693Y0090865D01*
X0031300Y0093300D02*
X0031300Y0101300D01*
X0041300Y0107300D01*
X0063300Y0107300D01*
X0071300Y0101300D01*
X0071300Y0093300D01*
X0069617Y0093259D02*
X0069584Y0093259D01*
X0069700Y0093857D02*
X0063328Y0093857D01*
X0062730Y0093259D02*
X0067924Y0093259D01*
X0066793Y0092660D02*
X0062131Y0092660D01*
X0061533Y0092062D02*
X0066194Y0092062D01*
X0065920Y0091463D02*
X0060934Y0091463D01*
X0060924Y0091453D02*
X0066210Y0096739D01*
X0066799Y0098161D01*
X0066799Y0099700D01*
X0066210Y0101122D01*
X0065122Y0102210D01*
X0063700Y0102799D01*
X0062161Y0102799D01*
X0060739Y0102210D01*
X0055453Y0096924D01*
X0054864Y0095502D01*
X0054864Y0093963D01*
X0055453Y0092541D01*
X0056541Y0091453D01*
X0057963Y0090864D01*
X0059502Y0090864D01*
X0060924Y0091453D01*
X0059504Y0090865D02*
X0065683Y0090865D01*
X0065683Y0090266D02*
X0036797Y0090266D01*
X0036797Y0089668D02*
X0065683Y0089668D01*
X0065930Y0089069D02*
X0036599Y0089069D01*
X0036351Y0088471D02*
X0066217Y0088471D01*
X0066816Y0087872D02*
X0035784Y0087872D01*
X0034790Y0087274D02*
X0067981Y0087274D01*
X0069528Y0087274D02*
X0077928Y0087274D01*
X0077087Y0087872D02*
X0070692Y0087872D01*
X0071291Y0088471D02*
X0076246Y0088471D01*
X0075405Y0089069D02*
X0071578Y0089069D01*
X0071826Y0089668D02*
X0074564Y0089668D01*
X0074063Y0090024D02*
X0074063Y0090024D01*
X0073606Y0090266D02*
X0071826Y0090266D01*
X0071826Y0090865D02*
X0072479Y0090865D01*
X0069700Y0094456D02*
X0063927Y0094456D01*
X0064525Y0095054D02*
X0069700Y0095054D01*
X0069700Y0095653D02*
X0065124Y0095653D01*
X0065722Y0096251D02*
X0069700Y0096251D01*
X0069700Y0096850D02*
X0066256Y0096850D01*
X0066504Y0097448D02*
X0069700Y0097448D01*
X0069700Y0098047D02*
X0066752Y0098047D01*
X0066799Y0098645D02*
X0069700Y0098645D01*
X0069700Y0099244D02*
X0066799Y0099244D01*
X0066740Y0099842D02*
X0069700Y0099842D01*
X0069700Y0100441D02*
X0066492Y0100441D01*
X0066244Y0101039D02*
X0068981Y0101039D01*
X0068183Y0101638D02*
X0065693Y0101638D01*
X0065057Y0102237D02*
X0067385Y0102237D01*
X0066587Y0102835D02*
X0056171Y0102835D01*
X0055924Y0103434D02*
X0065789Y0103434D01*
X0064991Y0104032D02*
X0055475Y0104032D01*
X0054876Y0104631D02*
X0064193Y0104631D01*
X0063395Y0105229D02*
X0054219Y0105229D01*
X0056419Y0102237D02*
X0060803Y0102237D01*
X0060167Y0101638D02*
X0056629Y0101638D01*
X0056629Y0101039D02*
X0059569Y0101039D01*
X0058970Y0100441D02*
X0056629Y0100441D01*
X0056629Y0099842D02*
X0058372Y0099842D01*
X0057773Y0099244D02*
X0056477Y0099244D01*
X0056230Y0098645D02*
X0057175Y0098645D01*
X0056576Y0098047D02*
X0055982Y0098047D01*
X0055978Y0097448D02*
X0055615Y0097448D01*
X0055422Y0096850D02*
X0055016Y0096850D01*
X0055174Y0096251D02*
X0054418Y0096251D01*
X0054926Y0095653D02*
X0053113Y0095653D01*
X0054864Y0095054D02*
X0047615Y0095054D01*
X0047615Y0095381D02*
X0047026Y0096803D01*
X0041740Y0102089D01*
X0040318Y0102678D01*
X0038779Y0102678D01*
X0037357Y0102089D01*
X0036269Y0101001D01*
X0035680Y0099579D01*
X0035680Y0098040D01*
X0036269Y0096618D01*
X0041556Y0091332D01*
X0042977Y0090743D01*
X0044516Y0090743D01*
X0045938Y0091332D01*
X0047026Y0092420D01*
X0047615Y0093842D01*
X0047615Y0095381D01*
X0047503Y0095653D02*
X0049487Y0095653D01*
X0048182Y0096251D02*
X0047255Y0096251D01*
X0046979Y0096850D02*
X0047584Y0096850D01*
X0046985Y0097448D02*
X0046381Y0097448D01*
X0046618Y0098047D02*
X0045782Y0098047D01*
X0046370Y0098645D02*
X0045184Y0098645D01*
X0044585Y0099244D02*
X0046123Y0099244D01*
X0045971Y0099842D02*
X0043987Y0099842D01*
X0043388Y0100441D02*
X0045971Y0100441D01*
X0045971Y0101039D02*
X0042790Y0101039D01*
X0042191Y0101638D02*
X0045971Y0101638D01*
X0046181Y0102237D02*
X0041384Y0102237D01*
X0039961Y0104631D02*
X0047724Y0104631D01*
X0047125Y0104032D02*
X0038963Y0104032D01*
X0037966Y0103434D02*
X0046676Y0103434D01*
X0046429Y0102835D02*
X0036968Y0102835D01*
X0037714Y0102237D02*
X0035971Y0102237D01*
X0036906Y0101638D02*
X0034973Y0101638D01*
X0033976Y0101039D02*
X0036308Y0101039D01*
X0036037Y0100441D02*
X0032978Y0100441D01*
X0032900Y0099842D02*
X0035789Y0099842D01*
X0035680Y0099244D02*
X0032900Y0099244D01*
X0032900Y0098645D02*
X0035680Y0098645D01*
X0035680Y0098047D02*
X0032900Y0098047D01*
X0032900Y0097448D02*
X0035925Y0097448D01*
X0036173Y0096850D02*
X0032900Y0096850D01*
X0032900Y0096251D02*
X0036636Y0096251D01*
X0037234Y0095653D02*
X0032900Y0095653D01*
X0032900Y0095054D02*
X0037833Y0095054D01*
X0038431Y0094456D02*
X0032900Y0094456D01*
X0032900Y0093857D02*
X0039030Y0093857D01*
X0039629Y0093259D02*
X0032983Y0093259D01*
X0035566Y0092660D02*
X0040227Y0092660D01*
X0040826Y0092062D02*
X0036164Y0092062D01*
X0036509Y0091463D02*
X0041424Y0091463D01*
X0042683Y0090865D02*
X0036757Y0090865D01*
X0029933Y0085478D02*
X0072496Y0085478D01*
X0072249Y0084880D02*
X0030181Y0084880D01*
X0030394Y0084281D02*
X0072085Y0084281D01*
X0072408Y0082486D02*
X0062496Y0082486D01*
X0063585Y0081887D02*
X0072801Y0081887D01*
X0073400Y0081289D02*
X0064184Y0081289D01*
X0064571Y0080690D02*
X0080977Y0080690D01*
X0080379Y0080092D02*
X0064819Y0080092D01*
X0065011Y0079493D02*
X0079780Y0079493D01*
X0079182Y0078895D02*
X0065011Y0078895D01*
X0065011Y0078296D02*
X0078583Y0078296D01*
X0077985Y0077698D02*
X0064849Y0077698D01*
X0064601Y0077099D02*
X0077386Y0077099D01*
X0076788Y0076501D02*
X0064255Y0076501D01*
X0063656Y0075902D02*
X0076273Y0075902D01*
X0076025Y0075303D02*
X0062668Y0075303D01*
X0062500Y0074705D02*
X0075777Y0074705D01*
X0075743Y0074106D02*
X0062500Y0074106D01*
X0062500Y0073508D02*
X0075743Y0073508D01*
X0075815Y0072909D02*
X0062500Y0072909D01*
X0062500Y0072311D02*
X0076063Y0072311D01*
X0076311Y0071712D02*
X0062500Y0071712D01*
X0062500Y0071114D02*
X0076880Y0071114D01*
X0077560Y0070515D02*
X0062500Y0070515D01*
X0062500Y0069917D02*
X0091992Y0069917D01*
X0091718Y0070515D02*
X0081662Y0070515D01*
X0082343Y0071114D02*
X0091443Y0071114D01*
X0091168Y0071712D02*
X0082942Y0071712D01*
X0083540Y0072311D02*
X0090894Y0072311D01*
X0090619Y0072909D02*
X0084139Y0072909D01*
X0084737Y0073508D02*
X0090344Y0073508D01*
X0089933Y0074106D02*
X0085336Y0074106D01*
X0085934Y0074705D02*
X0089519Y0074705D01*
X0089106Y0075303D02*
X0086533Y0075303D01*
X0087106Y0075902D02*
X0088693Y0075902D01*
X0088279Y0076501D02*
X0087354Y0076501D01*
X0087602Y0077099D02*
X0087866Y0077099D01*
X0082961Y0081887D02*
X0077513Y0081887D01*
X0077906Y0082486D02*
X0083394Y0082486D01*
X0082804Y0083084D02*
X0078154Y0083084D01*
X0078229Y0083683D02*
X0082214Y0083683D01*
X0081624Y0084281D02*
X0078229Y0084281D01*
X0078066Y0084880D02*
X0081033Y0084880D01*
X0080443Y0085478D02*
X0077818Y0085478D01*
X0077299Y0086077D02*
X0079611Y0086077D01*
X0078769Y0086675D02*
X0076424Y0086675D01*
X0073891Y0086675D02*
X0028297Y0086675D01*
X0029343Y0086077D02*
X0073015Y0086077D01*
X0076915Y0081289D02*
X0081576Y0081289D01*
X0092267Y0069318D02*
X0062500Y0069318D01*
X0062500Y0068720D02*
X0092542Y0068720D01*
X0092817Y0068121D02*
X0082569Y0068121D01*
X0082639Y0068051D02*
X0082397Y0068293D01*
X0082101Y0068464D01*
X0081770Y0068553D01*
X0079340Y0068553D01*
X0079340Y0064600D01*
X0078740Y0064600D01*
X0078740Y0064000D01*
X0075181Y0064000D01*
X0075181Y0061176D01*
X0075270Y0060845D01*
X0075441Y0060549D01*
X0075683Y0060307D01*
X0075979Y0060136D01*
X0076310Y0060047D01*
X0078740Y0060047D01*
X0078740Y0064000D01*
X0079340Y0064000D01*
X0079340Y0060047D01*
X0081770Y0060047D01*
X0082101Y0060136D01*
X0082397Y0060307D01*
X0082639Y0060549D01*
X0082811Y0060845D01*
X0082899Y0061176D01*
X0082899Y0064000D01*
X0079340Y0064000D01*
X0079340Y0064600D01*
X0082899Y0064600D01*
X0082899Y0067424D01*
X0082811Y0067755D01*
X0082639Y0068051D01*
X0082873Y0067523D02*
X0093091Y0067523D01*
X0093366Y0066924D02*
X0082899Y0066924D01*
X0082899Y0066326D02*
X0093622Y0066326D01*
X0093779Y0065727D02*
X0082899Y0065727D01*
X0082899Y0065129D02*
X0093936Y0065129D01*
X0094093Y0064530D02*
X0079340Y0064530D01*
X0079340Y0063932D02*
X0078740Y0063932D01*
X0078740Y0064530D02*
X0075019Y0064530D01*
X0075181Y0064600D02*
X0078740Y0064600D01*
X0078740Y0068553D01*
X0076310Y0068553D01*
X0075979Y0068464D01*
X0075683Y0068293D01*
X0075441Y0068051D01*
X0075270Y0067755D01*
X0075181Y0067424D01*
X0075181Y0064600D01*
X0075181Y0065129D02*
X0075019Y0065129D01*
X0075019Y0065727D02*
X0075181Y0065727D01*
X0075181Y0066326D02*
X0075019Y0066326D01*
X0075019Y0066924D02*
X0075181Y0066924D01*
X0075208Y0067523D02*
X0075019Y0067523D01*
X0075511Y0068121D02*
X0074523Y0068121D01*
X0071560Y0064300D02*
X0069560Y0066300D01*
X0061300Y0066300D01*
X0061300Y0078702D01*
X0061143Y0078859D01*
X0051300Y0078859D02*
X0051300Y0060131D01*
X0057193Y0054239D01*
X0058125Y0054239D01*
X0061064Y0051300D01*
X0065264Y0049568D02*
X0065845Y0049568D01*
X0066093Y0048969D02*
X0036507Y0048969D01*
X0036259Y0048370D02*
X0051275Y0048370D01*
X0051393Y0048489D02*
X0050111Y0047207D01*
X0050111Y0045393D01*
X0051393Y0044111D01*
X0053207Y0044111D01*
X0054196Y0045100D01*
X0056331Y0045100D01*
X0057193Y0044239D01*
X0064935Y0044239D01*
X0065802Y0045106D01*
X0065802Y0047494D01*
X0064935Y0048361D01*
X0057193Y0048361D01*
X0056331Y0047500D01*
X0054196Y0047500D01*
X0053207Y0048489D01*
X0051393Y0048489D01*
X0050676Y0047772D02*
X0045997Y0047772D01*
X0046275Y0047173D02*
X0050111Y0047173D01*
X0050111Y0046575D02*
X0046275Y0046575D01*
X0046275Y0045976D02*
X0050111Y0045976D01*
X0050126Y0045378D02*
X0046275Y0045378D01*
X0045948Y0044779D02*
X0050725Y0044779D01*
X0051323Y0044181D02*
X0034450Y0044181D01*
X0035049Y0044779D02*
X0037124Y0044779D01*
X0034872Y0046300D02*
X0032642Y0044069D01*
X0024531Y0044069D01*
X0015300Y0053300D01*
X0011439Y0054954D02*
X0006701Y0054954D01*
X0006651Y0054356D02*
X0011191Y0054356D01*
X0011100Y0053757D02*
X0006602Y0053757D01*
X0006552Y0053159D02*
X0011100Y0053159D01*
X0011100Y0052560D02*
X0006503Y0052560D01*
X0006454Y0051962D02*
X0011308Y0051962D01*
X0011556Y0051363D02*
X0006404Y0051363D01*
X0006412Y0050765D02*
X0011896Y0050765D01*
X0012494Y0050166D02*
X0006467Y0050166D01*
X0006522Y0049568D02*
X0013336Y0049568D01*
X0011687Y0055553D02*
X0006750Y0055553D01*
X0006799Y0056151D02*
X0012211Y0056151D01*
X0012810Y0056750D02*
X0006849Y0056750D01*
X0006898Y0057348D02*
X0014098Y0057348D01*
X0014359Y0059144D02*
X0007095Y0059144D01*
X0006997Y0058545D02*
X0031661Y0058545D01*
X0026798Y0057947D02*
X0006947Y0057947D01*
X0007252Y0059742D02*
X0012918Y0059742D01*
X0012320Y0060341D02*
X0007409Y0060341D01*
X0007566Y0060939D02*
X0011732Y0060939D01*
X0011484Y0061538D02*
X0007723Y0061538D01*
X0007880Y0062136D02*
X0011236Y0062136D01*
X0011100Y0062735D02*
X0008037Y0062735D01*
X0008193Y0063333D02*
X0011100Y0063333D01*
X0011100Y0063932D02*
X0008350Y0063932D01*
X0008507Y0064530D02*
X0011264Y0064530D01*
X0011511Y0065129D02*
X0008664Y0065129D01*
X0008821Y0065727D02*
X0011788Y0065727D01*
X0012386Y0066326D02*
X0008978Y0066326D01*
X0009234Y0066924D02*
X0013075Y0066924D01*
X0011157Y0071114D02*
X0020015Y0071114D01*
X0019417Y0071712D02*
X0011432Y0071712D01*
X0011706Y0072311D02*
X0018818Y0072311D01*
X0018220Y0072909D02*
X0011981Y0072909D01*
X0012256Y0073508D02*
X0017621Y0073508D01*
X0017023Y0074106D02*
X0012667Y0074106D01*
X0013081Y0074705D02*
X0016424Y0074705D01*
X0015826Y0075303D02*
X0013494Y0075303D01*
X0013907Y0075902D02*
X0015323Y0075902D01*
X0015075Y0076501D02*
X0014321Y0076501D01*
X0014734Y0077099D02*
X0014827Y0077099D01*
X0018616Y0081887D02*
X0024845Y0081887D01*
X0024523Y0082486D02*
X0019206Y0082486D01*
X0022578Y0079493D02*
X0037236Y0079493D01*
X0042486Y0074705D02*
X0050100Y0074705D01*
X0049775Y0075303D02*
X0043826Y0075303D01*
X0044537Y0075902D02*
X0048786Y0075902D01*
X0048188Y0076501D02*
X0045020Y0076501D01*
X0045351Y0077099D02*
X0047842Y0077099D01*
X0047594Y0077698D02*
X0045568Y0077698D01*
X0045690Y0078296D02*
X0047431Y0078296D01*
X0046675Y0065727D02*
X0050100Y0065727D01*
X0050100Y0065129D02*
X0046583Y0065129D01*
X0046265Y0064530D02*
X0050100Y0064530D01*
X0050100Y0063932D02*
X0045390Y0063932D01*
X0045436Y0063333D02*
X0047238Y0063333D01*
X0046639Y0062735D02*
X0046034Y0062735D01*
X0049362Y0063333D02*
X0050100Y0063333D01*
X0050100Y0062735D02*
X0049961Y0062735D01*
X0052500Y0063932D02*
X0068101Y0063932D01*
X0068101Y0064530D02*
X0065227Y0064530D01*
X0064963Y0063333D02*
X0068101Y0063333D01*
X0068101Y0062735D02*
X0065562Y0062735D01*
X0065802Y0062136D02*
X0068101Y0062136D01*
X0068101Y0061538D02*
X0065802Y0061538D01*
X0065802Y0060939D02*
X0068136Y0060939D01*
X0068355Y0060341D02*
X0075649Y0060341D01*
X0075245Y0060939D02*
X0074984Y0060939D01*
X0075019Y0061538D02*
X0075181Y0061538D01*
X0075181Y0062136D02*
X0075019Y0062136D01*
X0075019Y0062735D02*
X0075181Y0062735D01*
X0075181Y0063333D02*
X0075019Y0063333D01*
X0075019Y0063932D02*
X0075181Y0063932D01*
X0078740Y0063333D02*
X0079340Y0063333D01*
X0079340Y0062735D02*
X0078740Y0062735D01*
X0078740Y0062136D02*
X0079340Y0062136D01*
X0079340Y0061538D02*
X0078740Y0061538D01*
X0078740Y0060939D02*
X0079340Y0060939D01*
X0079340Y0060341D02*
X0078740Y0060341D01*
X0077131Y0057348D02*
X0095702Y0057348D01*
X0095751Y0056750D02*
X0077730Y0056750D01*
X0078328Y0056151D02*
X0095801Y0056151D01*
X0095850Y0055553D02*
X0078927Y0055553D01*
X0079266Y0054954D02*
X0095899Y0054954D01*
X0095949Y0054356D02*
X0079514Y0054356D01*
X0079762Y0053757D02*
X0095998Y0053757D01*
X0096048Y0053159D02*
X0080010Y0053159D01*
X0080184Y0052560D02*
X0096097Y0052560D01*
X0096146Y0051962D02*
X0080184Y0051962D01*
X0080184Y0051363D02*
X0096196Y0051363D01*
X0096188Y0050765D02*
X0080184Y0050765D01*
X0080184Y0050166D02*
X0096133Y0050166D01*
X0096078Y0049568D02*
X0080062Y0049568D01*
X0079814Y0048969D02*
X0096023Y0048969D01*
X0095968Y0048370D02*
X0079567Y0048370D01*
X0079319Y0047772D02*
X0095913Y0047772D01*
X0095858Y0047173D02*
X0079053Y0047173D01*
X0078454Y0046575D02*
X0095803Y0046575D01*
X0095748Y0045976D02*
X0077856Y0045976D01*
X0077257Y0045378D02*
X0095693Y0045378D01*
X0095638Y0044779D02*
X0076106Y0044779D01*
X0074661Y0044181D02*
X0095583Y0044181D01*
X0094273Y0038794D02*
X0016257Y0038794D01*
X0012852Y0039393D02*
X0008164Y0039393D01*
X0008001Y0039991D02*
X0012103Y0039991D01*
X0011583Y0040590D02*
X0007838Y0040590D01*
X0007675Y0041188D02*
X0011213Y0041188D01*
X0010955Y0041787D02*
X0007513Y0041787D01*
X0007350Y0042385D02*
X0010788Y0042385D01*
X0010700Y0042984D02*
X0007187Y0042984D01*
X0008653Y0037597D02*
X0036901Y0037597D01*
X0036798Y0036999D02*
X0008816Y0036999D01*
X0012961Y0028021D02*
X0029047Y0028021D01*
X0029047Y0027423D02*
X0028153Y0027423D01*
X0028153Y0026824D02*
X0029047Y0026824D01*
X0028153Y0026226D02*
X0033000Y0026226D01*
X0033000Y0025740D02*
X0029047Y0025740D01*
X0029047Y0023310D01*
X0029136Y0022979D01*
X0029307Y0022683D01*
X0029549Y0022441D01*
X0029845Y0022270D01*
X0030176Y0022181D01*
X0033000Y0022181D01*
X0033000Y0025740D01*
X0033000Y0025627D02*
X0033600Y0025627D01*
X0033600Y0025029D02*
X0033000Y0025029D01*
X0033000Y0024430D02*
X0033600Y0024430D01*
X0033600Y0023832D02*
X0033000Y0023832D01*
X0033000Y0023233D02*
X0033600Y0023233D01*
X0033600Y0022634D02*
X0033000Y0022634D01*
X0029355Y0022634D02*
X0028153Y0022634D01*
X0028153Y0023233D02*
X0029068Y0023233D01*
X0029047Y0023832D02*
X0028153Y0023832D01*
X0028153Y0024430D02*
X0029047Y0024430D01*
X0029047Y0025029D02*
X0028153Y0025029D01*
X0028153Y0025627D02*
X0029047Y0025627D01*
X0038239Y0034239D02*
X0045407Y0034239D01*
X0047469Y0036300D01*
X0061064Y0036300D01*
X0057027Y0038196D02*
X0045573Y0038196D01*
X0046172Y0037597D02*
X0056428Y0037597D01*
X0057038Y0039393D02*
X0050488Y0039393D01*
X0051087Y0039991D02*
X0056440Y0039991D01*
X0056815Y0042984D02*
X0050712Y0042984D01*
X0049300Y0041300D02*
X0061064Y0041300D01*
X0065476Y0044779D02*
X0069801Y0044779D01*
X0071246Y0044181D02*
X0053277Y0044181D01*
X0053875Y0044779D02*
X0056652Y0044779D01*
X0056603Y0047772D02*
X0053924Y0047772D01*
X0053325Y0048370D02*
X0066341Y0048370D01*
X0066588Y0047772D02*
X0065524Y0047772D01*
X0065802Y0047173D02*
X0066854Y0047173D01*
X0067453Y0046575D02*
X0065802Y0046575D01*
X0065802Y0045976D02*
X0068051Y0045976D01*
X0068650Y0045378D02*
X0065802Y0045378D01*
X0061064Y0046300D02*
X0052300Y0046300D01*
X0071300Y0093300D02*
X0072324Y0092797D01*
X0073335Y0092269D01*
X0074333Y0091717D01*
X0075317Y0091140D01*
X0076286Y0090539D01*
X0077241Y0089915D01*
X0078180Y0089267D01*
X0079102Y0088597D01*
X0080009Y0087904D01*
X0080897Y0087189D01*
X0081768Y0086453D01*
X0082621Y0085695D01*
X0083455Y0084917D01*
X0084269Y0084118D01*
X0085064Y0083300D01*
X0085839Y0082463D01*
X0086592Y0081606D01*
X0087325Y0080732D01*
X0088035Y0079840D01*
X0088724Y0078931D01*
X0089390Y0078005D01*
X0090033Y0077063D01*
X0090653Y0076106D01*
X0091250Y0075133D01*
X0091822Y0074147D01*
X0092370Y0073146D01*
X0092893Y0072133D01*
X0093392Y0071107D01*
X0093865Y0070069D01*
X0094312Y0069020D01*
X0094733Y0067960D01*
X0095129Y0066890D01*
X0095498Y0065811D01*
X0095840Y0064723D01*
X0096156Y0063627D01*
X0096445Y0062523D01*
X0096706Y0061413D01*
X0096941Y0060297D01*
X0097148Y0059175D01*
X0097327Y0058049D01*
X0097478Y0056918D01*
X0097602Y0055784D01*
X0097698Y0054648D01*
X0097767Y0053509D01*
X0097807Y0052369D01*
X0097819Y0051229D01*
X0097803Y0050088D01*
X0097760Y0048948D01*
X0097688Y0047810D01*
X0097588Y0046674D01*
X0097461Y0045540D01*
X0097306Y0044410D01*
X0097123Y0043285D01*
X0096913Y0042163D01*
X0096675Y0041048D01*
X0096410Y0039938D01*
X0096118Y0038836D01*
X0095799Y0037741D01*
X0095453Y0036654D01*
X0095081Y0035576D01*
X0094682Y0034507D01*
X0094257Y0033449D01*
X0093807Y0032401D01*
X0093331Y0031364D01*
X0092829Y0030340D01*
X0092303Y0029328D01*
X0091752Y0028329D01*
X0091177Y0027344D01*
X0090577Y0026374D01*
X0089954Y0025418D01*
X0089308Y0024478D01*
X0088639Y0023555D01*
X0087948Y0022648D01*
X0087234Y0021758D01*
X0086499Y0020886D01*
X0085743Y0020032D01*
X0084966Y0019197D01*
X0084169Y0018381D01*
X0083352Y0017585D01*
X0082515Y0016809D01*
X0081660Y0016054D01*
X0080787Y0015321D01*
X0079896Y0014608D01*
X0078988Y0013918D01*
X0078063Y0013251D01*
X0077122Y0012606D01*
X0076166Y0011985D01*
X0075195Y0011387D01*
X0074209Y0010813D01*
X0073209Y0010263D01*
X0072197Y0009739D01*
X0071171Y0009239D01*
X0070134Y0008764D01*
X0069086Y0008315D01*
X0068026Y0007892D01*
X0066957Y0007495D01*
X0065878Y0007124D01*
X0064791Y0006780D01*
X0063695Y0006463D01*
X0062592Y0006172D01*
X0061483Y0005909D01*
X0060367Y0005673D01*
X0059245Y0005465D01*
X0058119Y0005284D01*
X0056989Y0005130D01*
X0055855Y0005005D01*
X0054719Y0004907D01*
X0053580Y0004837D01*
X0052441Y0004795D01*
X0051300Y0004781D01*
X0050159Y0004795D01*
X0049020Y0004837D01*
X0047881Y0004907D01*
X0046745Y0005005D01*
X0045611Y0005130D01*
X0044481Y0005284D01*
X0043355Y0005465D01*
X0042233Y0005673D01*
X0041117Y0005909D01*
X0040008Y0006172D01*
X0038905Y0006463D01*
X0037809Y0006780D01*
X0036722Y0007124D01*
X0035643Y0007495D01*
X0034574Y0007892D01*
X0033514Y0008315D01*
X0032466Y0008764D01*
X0031429Y0009239D01*
X0030403Y0009739D01*
X0029391Y0010263D01*
X0028391Y0010813D01*
X0027405Y0011387D01*
X0026434Y0011985D01*
X0025478Y0012606D01*
X0024537Y0013251D01*
X0023612Y0013918D01*
X0022704Y0014608D01*
X0021813Y0015321D01*
X0020940Y0016054D01*
X0020085Y0016809D01*
X0019248Y0017585D01*
X0018431Y0018381D01*
X0017634Y0019197D01*
X0016857Y0020032D01*
X0016101Y0020886D01*
X0015366Y0021758D01*
X0014652Y0022648D01*
X0013961Y0023555D01*
X0013292Y0024478D01*
X0012646Y0025418D01*
X0012023Y0026374D01*
X0011423Y0027344D01*
X0010848Y0028329D01*
X0010297Y0029328D01*
X0009771Y0030340D01*
X0009269Y0031364D01*
X0008793Y0032401D01*
X0008343Y0033449D01*
X0007918Y0034507D01*
X0007519Y0035576D01*
X0007147Y0036654D01*
X0006801Y0037741D01*
X0006482Y0038836D01*
X0006190Y0039938D01*
X0005925Y0041048D01*
X0005687Y0042163D01*
X0005477Y0043285D01*
X0005294Y0044410D01*
X0005139Y0045540D01*
X0005012Y0046674D01*
X0004912Y0047810D01*
X0004840Y0048948D01*
X0004797Y0050088D01*
X0004781Y0051229D01*
X0004793Y0052369D01*
X0004833Y0053509D01*
X0004902Y0054648D01*
X0004998Y0055784D01*
X0005122Y0056918D01*
X0005273Y0058049D01*
X0005452Y0059175D01*
X0005659Y0060297D01*
X0005894Y0061413D01*
X0006155Y0062523D01*
X0006444Y0063627D01*
X0006760Y0064723D01*
X0007102Y0065811D01*
X0007471Y0066890D01*
X0007867Y0067960D01*
X0008288Y0069020D01*
X0008735Y0070069D01*
X0009208Y0071107D01*
X0009707Y0072133D01*
X0010230Y0073146D01*
X0010778Y0074147D01*
X0011350Y0075133D01*
X0011947Y0076106D01*
X0012567Y0077063D01*
X0013210Y0078005D01*
X0013876Y0078931D01*
X0014565Y0079840D01*
X0015275Y0080732D01*
X0016008Y0081606D01*
X0016761Y0082463D01*
X0017536Y0083300D01*
X0018331Y0084118D01*
X0019145Y0084917D01*
X0019979Y0085695D01*
X0020832Y0086453D01*
X0021703Y0087189D01*
X0022591Y0087904D01*
X0023498Y0088597D01*
X0024420Y0089267D01*
X0025359Y0089915D01*
X0026314Y0090539D01*
X0027283Y0091140D01*
X0028267Y0091717D01*
X0029265Y0092269D01*
X0030276Y0092797D01*
X0031300Y0093300D01*
X0040958Y0105229D02*
X0048381Y0105229D01*
X0047615Y0094456D02*
X0054864Y0094456D01*
X0054907Y0093857D02*
X0047615Y0093857D01*
X0047374Y0093259D02*
X0055155Y0093259D01*
X0055403Y0092660D02*
X0047126Y0092660D01*
X0046668Y0092062D02*
X0055932Y0092062D01*
X0056530Y0091463D02*
X0046070Y0091463D01*
X0044811Y0090865D02*
X0057960Y0090865D01*
X0065175Y0068121D02*
X0068597Y0068121D01*
X0068101Y0067523D02*
X0065774Y0067523D01*
X0061300Y0066300D02*
X0061064Y0066300D01*
X0061064Y0061300D02*
X0055300Y0061300D01*
X0054780Y0054954D02*
X0046123Y0054954D01*
X0045524Y0054356D02*
X0055378Y0054356D01*
X0055977Y0053757D02*
X0040776Y0053757D01*
X0038598Y0054239D02*
X0041536Y0051300D01*
X0038598Y0054239D02*
X0037665Y0054239D01*
X0037336Y0049568D02*
X0036755Y0049568D01*
X0037076Y0047772D02*
X0036012Y0047772D01*
X0034872Y0046300D02*
X0041536Y0046300D01*
X0045736Y0049568D02*
X0056864Y0049568D01*
X0056325Y0050166D02*
X0046275Y0050166D01*
X0046275Y0050765D02*
X0056325Y0050765D01*
X0056325Y0051363D02*
X0046275Y0051363D01*
X0046275Y0051962D02*
X0056325Y0051962D01*
X0056391Y0052560D02*
X0046209Y0052560D01*
X0045610Y0053159D02*
X0056576Y0053159D01*
X0061064Y0056300D02*
X0065300Y0056300D01*
X0067300Y0058300D01*
X0068953Y0059742D02*
X0095348Y0059742D01*
X0095505Y0059144D02*
X0069489Y0059144D01*
X0069489Y0058545D02*
X0095603Y0058545D01*
X0095653Y0057947D02*
X0075802Y0057947D01*
X0070105Y0057947D02*
X0069489Y0057947D01*
X0066245Y0060341D02*
X0065802Y0060341D01*
X0065647Y0059742D02*
X0065439Y0059742D01*
X0078740Y0065129D02*
X0079340Y0065129D01*
X0079340Y0065727D02*
X0078740Y0065727D01*
X0078740Y0066326D02*
X0079340Y0066326D01*
X0079340Y0066924D02*
X0078740Y0066924D01*
X0078740Y0067523D02*
X0079340Y0067523D01*
X0079340Y0068121D02*
X0078740Y0068121D01*
X0082899Y0063932D02*
X0094250Y0063932D01*
X0094407Y0063333D02*
X0082899Y0063333D01*
X0082899Y0062735D02*
X0094563Y0062735D01*
X0094720Y0062136D02*
X0082899Y0062136D01*
X0082899Y0061538D02*
X0094877Y0061538D01*
X0095034Y0060939D02*
X0082836Y0060939D01*
X0082431Y0060341D02*
X0095191Y0060341D01*
X0091773Y0032211D02*
X0082553Y0032211D01*
X0082553Y0031612D02*
X0091491Y0031612D01*
X0091210Y0031014D02*
X0082553Y0031014D01*
X0082553Y0030415D02*
X0090928Y0030415D01*
X0090647Y0029817D02*
X0082370Y0029817D01*
X0081562Y0029218D02*
X0090365Y0029218D01*
X0090060Y0028620D02*
X0082025Y0028620D01*
X0082153Y0028021D02*
X0089639Y0028021D01*
X0089217Y0027423D02*
X0082153Y0027423D01*
X0082153Y0026824D02*
X0088795Y0026824D01*
X0088374Y0026226D02*
X0082153Y0026226D01*
X0082153Y0025627D02*
X0087952Y0025627D01*
X0087530Y0025029D02*
X0082153Y0025029D01*
X0082153Y0024430D02*
X0087109Y0024430D01*
X0086687Y0023832D02*
X0082153Y0023832D01*
X0082153Y0023233D02*
X0086266Y0023233D01*
X0085844Y0022634D02*
X0082153Y0022634D01*
X0056826Y0034605D02*
X0047471Y0034605D01*
X0046471Y0036999D02*
X0046275Y0036999D01*
X0045562Y0039393D02*
X0048112Y0039393D01*
X0047513Y0039991D02*
X0046160Y0039991D01*
X0046275Y0040590D02*
X0047111Y0040590D01*
X0047111Y0041188D02*
X0046275Y0041188D01*
X0046275Y0041787D02*
X0047111Y0041787D01*
X0047290Y0042385D02*
X0046275Y0042385D01*
X0045785Y0042984D02*
X0047888Y0042984D01*
X0025343Y0045378D02*
X0024919Y0045378D01*
X0024744Y0045976D02*
X0024321Y0045976D01*
X0024146Y0046575D02*
X0023722Y0046575D01*
X0023547Y0047173D02*
X0023124Y0047173D01*
X0023281Y0047772D02*
X0022525Y0047772D01*
X0023033Y0048370D02*
X0021927Y0048370D01*
X0021328Y0048969D02*
X0022786Y0048969D01*
X0042300Y0014560D02*
X0048040Y0014560D01*
X0048300Y0014300D01*
X0047045Y0012460D02*
X0046153Y0012460D01*
X0046153Y0013058D02*
X0046446Y0013058D01*
X0050228Y0006475D02*
X0052372Y0006475D01*
D11*
X0051300Y0100670D03*
D12*
X0051300Y0021930D03*
D13*
X0071560Y0064300D03*
X0079040Y0064300D03*
D14*
X0015300Y0063300D03*
X0015300Y0053300D03*
X0015300Y0043300D03*
D15*
X0024300Y0032040D03*
X0024300Y0024560D03*
X0033300Y0026040D03*
X0033300Y0018560D03*
X0042300Y0022040D03*
X0042300Y0014560D03*
X0060300Y0013560D03*
X0060300Y0021040D03*
X0069300Y0018560D03*
X0069300Y0026040D03*
X0078300Y0025560D03*
X0078300Y0033040D03*
D16*
X0061143Y0078859D03*
X0051300Y0078859D03*
X0041457Y0078859D03*
D17*
X0029646Y0051300D03*
X0072954Y0051300D03*
D18*
X0079611Y0073853D02*
X0083809Y0078051D01*
X0062930Y0098930D02*
X0058732Y0094732D01*
X0043747Y0094611D02*
X0039549Y0098809D01*
X0018670Y0077930D02*
X0022868Y0073732D01*
D19*
X0025550Y0083754D02*
X0025552Y0083838D01*
X0025558Y0083921D01*
X0025568Y0084004D01*
X0025582Y0084087D01*
X0025599Y0084169D01*
X0025621Y0084250D01*
X0025646Y0084329D01*
X0025675Y0084408D01*
X0025708Y0084485D01*
X0025744Y0084560D01*
X0025784Y0084634D01*
X0025827Y0084706D01*
X0025874Y0084775D01*
X0025924Y0084842D01*
X0025977Y0084907D01*
X0026033Y0084969D01*
X0026091Y0085029D01*
X0026153Y0085086D01*
X0026217Y0085139D01*
X0026284Y0085190D01*
X0026353Y0085237D01*
X0026424Y0085282D01*
X0026497Y0085322D01*
X0026572Y0085359D01*
X0026649Y0085393D01*
X0026727Y0085423D01*
X0026806Y0085449D01*
X0026887Y0085472D01*
X0026969Y0085490D01*
X0027051Y0085505D01*
X0027134Y0085516D01*
X0027217Y0085523D01*
X0027301Y0085526D01*
X0027385Y0085525D01*
X0027468Y0085520D01*
X0027552Y0085511D01*
X0027634Y0085498D01*
X0027716Y0085482D01*
X0027797Y0085461D01*
X0027878Y0085437D01*
X0027956Y0085409D01*
X0028034Y0085377D01*
X0028110Y0085341D01*
X0028184Y0085302D01*
X0028256Y0085260D01*
X0028326Y0085214D01*
X0028394Y0085165D01*
X0028459Y0085113D01*
X0028522Y0085058D01*
X0028582Y0085000D01*
X0028640Y0084939D01*
X0028694Y0084875D01*
X0028746Y0084809D01*
X0028794Y0084741D01*
X0028839Y0084670D01*
X0028880Y0084597D01*
X0028919Y0084523D01*
X0028953Y0084447D01*
X0028984Y0084369D01*
X0029011Y0084290D01*
X0029035Y0084209D01*
X0029054Y0084128D01*
X0029070Y0084046D01*
X0029082Y0083963D01*
X0029090Y0083879D01*
X0029094Y0083796D01*
X0029094Y0083712D01*
X0029090Y0083629D01*
X0029082Y0083545D01*
X0029070Y0083462D01*
X0029054Y0083380D01*
X0029035Y0083299D01*
X0029011Y0083218D01*
X0028984Y0083139D01*
X0028953Y0083061D01*
X0028919Y0082985D01*
X0028880Y0082911D01*
X0028839Y0082838D01*
X0028794Y0082767D01*
X0028746Y0082699D01*
X0028694Y0082633D01*
X0028640Y0082569D01*
X0028582Y0082508D01*
X0028522Y0082450D01*
X0028459Y0082395D01*
X0028394Y0082343D01*
X0028326Y0082294D01*
X0028256Y0082248D01*
X0028184Y0082206D01*
X0028110Y0082167D01*
X0028034Y0082131D01*
X0027956Y0082099D01*
X0027878Y0082071D01*
X0027797Y0082047D01*
X0027716Y0082026D01*
X0027634Y0082010D01*
X0027552Y0081997D01*
X0027468Y0081988D01*
X0027385Y0081983D01*
X0027301Y0081982D01*
X0027217Y0081985D01*
X0027134Y0081992D01*
X0027051Y0082003D01*
X0026969Y0082018D01*
X0026887Y0082036D01*
X0026806Y0082059D01*
X0026727Y0082085D01*
X0026649Y0082115D01*
X0026572Y0082149D01*
X0026497Y0082186D01*
X0026424Y0082226D01*
X0026353Y0082271D01*
X0026284Y0082318D01*
X0026217Y0082369D01*
X0026153Y0082422D01*
X0026091Y0082479D01*
X0026033Y0082539D01*
X0025977Y0082601D01*
X0025924Y0082666D01*
X0025874Y0082733D01*
X0025827Y0082802D01*
X0025784Y0082874D01*
X0025744Y0082948D01*
X0025708Y0083023D01*
X0025675Y0083100D01*
X0025646Y0083179D01*
X0025621Y0083258D01*
X0025599Y0083339D01*
X0025582Y0083421D01*
X0025568Y0083504D01*
X0025558Y0083587D01*
X0025552Y0083670D01*
X0025550Y0083754D01*
X0031953Y0090157D02*
X0031955Y0090241D01*
X0031961Y0090324D01*
X0031971Y0090407D01*
X0031985Y0090490D01*
X0032002Y0090572D01*
X0032024Y0090653D01*
X0032049Y0090732D01*
X0032078Y0090811D01*
X0032111Y0090888D01*
X0032147Y0090963D01*
X0032187Y0091037D01*
X0032230Y0091109D01*
X0032277Y0091178D01*
X0032327Y0091245D01*
X0032380Y0091310D01*
X0032436Y0091372D01*
X0032494Y0091432D01*
X0032556Y0091489D01*
X0032620Y0091542D01*
X0032687Y0091593D01*
X0032756Y0091640D01*
X0032827Y0091685D01*
X0032900Y0091725D01*
X0032975Y0091762D01*
X0033052Y0091796D01*
X0033130Y0091826D01*
X0033209Y0091852D01*
X0033290Y0091875D01*
X0033372Y0091893D01*
X0033454Y0091908D01*
X0033537Y0091919D01*
X0033620Y0091926D01*
X0033704Y0091929D01*
X0033788Y0091928D01*
X0033871Y0091923D01*
X0033955Y0091914D01*
X0034037Y0091901D01*
X0034119Y0091885D01*
X0034200Y0091864D01*
X0034281Y0091840D01*
X0034359Y0091812D01*
X0034437Y0091780D01*
X0034513Y0091744D01*
X0034587Y0091705D01*
X0034659Y0091663D01*
X0034729Y0091617D01*
X0034797Y0091568D01*
X0034862Y0091516D01*
X0034925Y0091461D01*
X0034985Y0091403D01*
X0035043Y0091342D01*
X0035097Y0091278D01*
X0035149Y0091212D01*
X0035197Y0091144D01*
X0035242Y0091073D01*
X0035283Y0091000D01*
X0035322Y0090926D01*
X0035356Y0090850D01*
X0035387Y0090772D01*
X0035414Y0090693D01*
X0035438Y0090612D01*
X0035457Y0090531D01*
X0035473Y0090449D01*
X0035485Y0090366D01*
X0035493Y0090282D01*
X0035497Y0090199D01*
X0035497Y0090115D01*
X0035493Y0090032D01*
X0035485Y0089948D01*
X0035473Y0089865D01*
X0035457Y0089783D01*
X0035438Y0089702D01*
X0035414Y0089621D01*
X0035387Y0089542D01*
X0035356Y0089464D01*
X0035322Y0089388D01*
X0035283Y0089314D01*
X0035242Y0089241D01*
X0035197Y0089170D01*
X0035149Y0089102D01*
X0035097Y0089036D01*
X0035043Y0088972D01*
X0034985Y0088911D01*
X0034925Y0088853D01*
X0034862Y0088798D01*
X0034797Y0088746D01*
X0034729Y0088697D01*
X0034659Y0088651D01*
X0034587Y0088609D01*
X0034513Y0088570D01*
X0034437Y0088534D01*
X0034359Y0088502D01*
X0034281Y0088474D01*
X0034200Y0088450D01*
X0034119Y0088429D01*
X0034037Y0088413D01*
X0033955Y0088400D01*
X0033871Y0088391D01*
X0033788Y0088386D01*
X0033704Y0088385D01*
X0033620Y0088388D01*
X0033537Y0088395D01*
X0033454Y0088406D01*
X0033372Y0088421D01*
X0033290Y0088439D01*
X0033209Y0088462D01*
X0033130Y0088488D01*
X0033052Y0088518D01*
X0032975Y0088552D01*
X0032900Y0088589D01*
X0032827Y0088629D01*
X0032756Y0088674D01*
X0032687Y0088721D01*
X0032620Y0088772D01*
X0032556Y0088825D01*
X0032494Y0088882D01*
X0032436Y0088942D01*
X0032380Y0089004D01*
X0032327Y0089069D01*
X0032277Y0089136D01*
X0032230Y0089205D01*
X0032187Y0089277D01*
X0032147Y0089351D01*
X0032111Y0089426D01*
X0032078Y0089503D01*
X0032049Y0089582D01*
X0032024Y0089661D01*
X0032002Y0089742D01*
X0031985Y0089824D01*
X0031971Y0089907D01*
X0031961Y0089990D01*
X0031955Y0090073D01*
X0031953Y0090157D01*
X0066982Y0090278D02*
X0066984Y0090362D01*
X0066990Y0090445D01*
X0067000Y0090528D01*
X0067014Y0090611D01*
X0067031Y0090693D01*
X0067053Y0090774D01*
X0067078Y0090853D01*
X0067107Y0090932D01*
X0067140Y0091009D01*
X0067176Y0091084D01*
X0067216Y0091158D01*
X0067259Y0091230D01*
X0067306Y0091299D01*
X0067356Y0091366D01*
X0067409Y0091431D01*
X0067465Y0091493D01*
X0067523Y0091553D01*
X0067585Y0091610D01*
X0067649Y0091663D01*
X0067716Y0091714D01*
X0067785Y0091761D01*
X0067856Y0091806D01*
X0067929Y0091846D01*
X0068004Y0091883D01*
X0068081Y0091917D01*
X0068159Y0091947D01*
X0068238Y0091973D01*
X0068319Y0091996D01*
X0068401Y0092014D01*
X0068483Y0092029D01*
X0068566Y0092040D01*
X0068649Y0092047D01*
X0068733Y0092050D01*
X0068817Y0092049D01*
X0068900Y0092044D01*
X0068984Y0092035D01*
X0069066Y0092022D01*
X0069148Y0092006D01*
X0069229Y0091985D01*
X0069310Y0091961D01*
X0069388Y0091933D01*
X0069466Y0091901D01*
X0069542Y0091865D01*
X0069616Y0091826D01*
X0069688Y0091784D01*
X0069758Y0091738D01*
X0069826Y0091689D01*
X0069891Y0091637D01*
X0069954Y0091582D01*
X0070014Y0091524D01*
X0070072Y0091463D01*
X0070126Y0091399D01*
X0070178Y0091333D01*
X0070226Y0091265D01*
X0070271Y0091194D01*
X0070312Y0091121D01*
X0070351Y0091047D01*
X0070385Y0090971D01*
X0070416Y0090893D01*
X0070443Y0090814D01*
X0070467Y0090733D01*
X0070486Y0090652D01*
X0070502Y0090570D01*
X0070514Y0090487D01*
X0070522Y0090403D01*
X0070526Y0090320D01*
X0070526Y0090236D01*
X0070522Y0090153D01*
X0070514Y0090069D01*
X0070502Y0089986D01*
X0070486Y0089904D01*
X0070467Y0089823D01*
X0070443Y0089742D01*
X0070416Y0089663D01*
X0070385Y0089585D01*
X0070351Y0089509D01*
X0070312Y0089435D01*
X0070271Y0089362D01*
X0070226Y0089291D01*
X0070178Y0089223D01*
X0070126Y0089157D01*
X0070072Y0089093D01*
X0070014Y0089032D01*
X0069954Y0088974D01*
X0069891Y0088919D01*
X0069826Y0088867D01*
X0069758Y0088818D01*
X0069688Y0088772D01*
X0069616Y0088730D01*
X0069542Y0088691D01*
X0069466Y0088655D01*
X0069388Y0088623D01*
X0069310Y0088595D01*
X0069229Y0088571D01*
X0069148Y0088550D01*
X0069066Y0088534D01*
X0068984Y0088521D01*
X0068900Y0088512D01*
X0068817Y0088507D01*
X0068733Y0088506D01*
X0068649Y0088509D01*
X0068566Y0088516D01*
X0068483Y0088527D01*
X0068401Y0088542D01*
X0068319Y0088560D01*
X0068238Y0088583D01*
X0068159Y0088609D01*
X0068081Y0088639D01*
X0068004Y0088673D01*
X0067929Y0088710D01*
X0067856Y0088750D01*
X0067785Y0088795D01*
X0067716Y0088842D01*
X0067649Y0088893D01*
X0067585Y0088946D01*
X0067523Y0089003D01*
X0067465Y0089063D01*
X0067409Y0089125D01*
X0067356Y0089190D01*
X0067306Y0089257D01*
X0067259Y0089326D01*
X0067216Y0089398D01*
X0067176Y0089472D01*
X0067140Y0089547D01*
X0067107Y0089624D01*
X0067078Y0089703D01*
X0067053Y0089782D01*
X0067031Y0089863D01*
X0067014Y0089945D01*
X0067000Y0090028D01*
X0066990Y0090111D01*
X0066984Y0090194D01*
X0066982Y0090278D01*
X0073385Y0083875D02*
X0073387Y0083959D01*
X0073393Y0084042D01*
X0073403Y0084125D01*
X0073417Y0084208D01*
X0073434Y0084290D01*
X0073456Y0084371D01*
X0073481Y0084450D01*
X0073510Y0084529D01*
X0073543Y0084606D01*
X0073579Y0084681D01*
X0073619Y0084755D01*
X0073662Y0084827D01*
X0073709Y0084896D01*
X0073759Y0084963D01*
X0073812Y0085028D01*
X0073868Y0085090D01*
X0073926Y0085150D01*
X0073988Y0085207D01*
X0074052Y0085260D01*
X0074119Y0085311D01*
X0074188Y0085358D01*
X0074259Y0085403D01*
X0074332Y0085443D01*
X0074407Y0085480D01*
X0074484Y0085514D01*
X0074562Y0085544D01*
X0074641Y0085570D01*
X0074722Y0085593D01*
X0074804Y0085611D01*
X0074886Y0085626D01*
X0074969Y0085637D01*
X0075052Y0085644D01*
X0075136Y0085647D01*
X0075220Y0085646D01*
X0075303Y0085641D01*
X0075387Y0085632D01*
X0075469Y0085619D01*
X0075551Y0085603D01*
X0075632Y0085582D01*
X0075713Y0085558D01*
X0075791Y0085530D01*
X0075869Y0085498D01*
X0075945Y0085462D01*
X0076019Y0085423D01*
X0076091Y0085381D01*
X0076161Y0085335D01*
X0076229Y0085286D01*
X0076294Y0085234D01*
X0076357Y0085179D01*
X0076417Y0085121D01*
X0076475Y0085060D01*
X0076529Y0084996D01*
X0076581Y0084930D01*
X0076629Y0084862D01*
X0076674Y0084791D01*
X0076715Y0084718D01*
X0076754Y0084644D01*
X0076788Y0084568D01*
X0076819Y0084490D01*
X0076846Y0084411D01*
X0076870Y0084330D01*
X0076889Y0084249D01*
X0076905Y0084167D01*
X0076917Y0084084D01*
X0076925Y0084000D01*
X0076929Y0083917D01*
X0076929Y0083833D01*
X0076925Y0083750D01*
X0076917Y0083666D01*
X0076905Y0083583D01*
X0076889Y0083501D01*
X0076870Y0083420D01*
X0076846Y0083339D01*
X0076819Y0083260D01*
X0076788Y0083182D01*
X0076754Y0083106D01*
X0076715Y0083032D01*
X0076674Y0082959D01*
X0076629Y0082888D01*
X0076581Y0082820D01*
X0076529Y0082754D01*
X0076475Y0082690D01*
X0076417Y0082629D01*
X0076357Y0082571D01*
X0076294Y0082516D01*
X0076229Y0082464D01*
X0076161Y0082415D01*
X0076091Y0082369D01*
X0076019Y0082327D01*
X0075945Y0082288D01*
X0075869Y0082252D01*
X0075791Y0082220D01*
X0075713Y0082192D01*
X0075632Y0082168D01*
X0075551Y0082147D01*
X0075469Y0082131D01*
X0075387Y0082118D01*
X0075303Y0082109D01*
X0075220Y0082104D01*
X0075136Y0082103D01*
X0075052Y0082106D01*
X0074969Y0082113D01*
X0074886Y0082124D01*
X0074804Y0082139D01*
X0074722Y0082157D01*
X0074641Y0082180D01*
X0074562Y0082206D01*
X0074484Y0082236D01*
X0074407Y0082270D01*
X0074332Y0082307D01*
X0074259Y0082347D01*
X0074188Y0082392D01*
X0074119Y0082439D01*
X0074052Y0082490D01*
X0073988Y0082543D01*
X0073926Y0082600D01*
X0073868Y0082660D01*
X0073812Y0082722D01*
X0073759Y0082787D01*
X0073709Y0082854D01*
X0073662Y0082923D01*
X0073619Y0082995D01*
X0073579Y0083069D01*
X0073543Y0083144D01*
X0073510Y0083221D01*
X0073481Y0083300D01*
X0073456Y0083379D01*
X0073434Y0083460D01*
X0073417Y0083542D01*
X0073403Y0083625D01*
X0073393Y0083708D01*
X0073387Y0083791D01*
X0073385Y0083875D01*
D20*
X0064322Y0066881D02*
X0057806Y0066881D01*
X0064322Y0066881D02*
X0064322Y0065719D01*
X0057806Y0065719D01*
X0057806Y0066881D01*
X0057806Y0066822D02*
X0064322Y0066822D01*
X0064322Y0061881D02*
X0057806Y0061881D01*
X0064322Y0061881D02*
X0064322Y0060719D01*
X0057806Y0060719D01*
X0057806Y0061881D01*
X0057806Y0061822D02*
X0064322Y0061822D01*
X0064322Y0056881D02*
X0057806Y0056881D01*
X0064322Y0056881D02*
X0064322Y0055719D01*
X0057806Y0055719D01*
X0057806Y0056881D01*
X0057806Y0056822D02*
X0064322Y0056822D01*
X0064322Y0051881D02*
X0057806Y0051881D01*
X0064322Y0051881D02*
X0064322Y0050719D01*
X0057806Y0050719D01*
X0057806Y0051881D01*
X0057806Y0051822D02*
X0064322Y0051822D01*
X0064322Y0046881D02*
X0057806Y0046881D01*
X0064322Y0046881D02*
X0064322Y0045719D01*
X0057806Y0045719D01*
X0057806Y0046881D01*
X0057806Y0046822D02*
X0064322Y0046822D01*
X0064322Y0041881D02*
X0057806Y0041881D01*
X0064322Y0041881D02*
X0064322Y0040719D01*
X0057806Y0040719D01*
X0057806Y0041881D01*
X0057806Y0041822D02*
X0064322Y0041822D01*
X0064322Y0036881D02*
X0057806Y0036881D01*
X0064322Y0036881D02*
X0064322Y0035719D01*
X0057806Y0035719D01*
X0057806Y0036881D01*
X0057806Y0036822D02*
X0064322Y0036822D01*
X0044794Y0036881D02*
X0038278Y0036881D01*
X0044794Y0036881D02*
X0044794Y0035719D01*
X0038278Y0035719D01*
X0038278Y0036881D01*
X0038278Y0036822D02*
X0044794Y0036822D01*
X0044794Y0041881D02*
X0038278Y0041881D01*
X0044794Y0041881D02*
X0044794Y0040719D01*
X0038278Y0040719D01*
X0038278Y0041881D01*
X0038278Y0041822D02*
X0044794Y0041822D01*
X0044794Y0046881D02*
X0038278Y0046881D01*
X0044794Y0046881D02*
X0044794Y0045719D01*
X0038278Y0045719D01*
X0038278Y0046881D01*
X0038278Y0046822D02*
X0044794Y0046822D01*
X0044794Y0051881D02*
X0038278Y0051881D01*
X0044794Y0051881D02*
X0044794Y0050719D01*
X0038278Y0050719D01*
X0038278Y0051881D01*
X0038278Y0051822D02*
X0044794Y0051822D01*
X0044794Y0056881D02*
X0038278Y0056881D01*
X0044794Y0056881D02*
X0044794Y0055719D01*
X0038278Y0055719D01*
X0038278Y0056881D01*
X0038278Y0056822D02*
X0044794Y0056822D01*
X0044794Y0061881D02*
X0038278Y0061881D01*
X0044794Y0061881D02*
X0044794Y0060719D01*
X0038278Y0060719D01*
X0038278Y0061881D01*
X0038278Y0061822D02*
X0044794Y0061822D01*
X0044794Y0066881D02*
X0038278Y0066881D01*
X0044794Y0066881D02*
X0044794Y0065719D01*
X0038278Y0065719D01*
X0038278Y0066881D01*
X0038278Y0066822D02*
X0044794Y0066822D01*
D21*
X0048300Y0061300D03*
X0055300Y0061300D03*
X0067300Y0058300D03*
X0052300Y0046300D03*
X0049300Y0041300D03*
X0036300Y0032300D03*
X0025300Y0018300D03*
X0034300Y0012300D03*
X0048300Y0014300D03*
X0054300Y0012300D03*
X0075053Y0017053D03*
X0077300Y0019300D03*
X0031300Y0066300D03*
M02*
