G04 EAGLE Gerber RS-274X export*
G75*
%MOMM*%
%FSLAX34Y34*%
%LPD*%
%INBottom Copper*%
%IPPOS*%
%AMOC8*
5,1,8,0,0,1.08239X$1,22.5*%
G01*
%ADD10C,2.250000*%
%ADD11C,1.755000*%
%ADD12R,1.300000X1.500000*%
%ADD13C,1.676400*%
%ADD14R,1.500000X1.300000*%
%ADD15C,1.508000*%
%ADD16C,3.216000*%
%ADD17C,1.508000*%
%ADD18C,0.295000*%
%ADD19C,0.152400*%
%ADD20C,0.654800*%

G36*
X172220Y26571D02*
X172220Y26571D01*
X172250Y26579D01*
X172350Y26594D01*
X191507Y31711D01*
X191536Y31724D01*
X191567Y31734D01*
X191577Y31736D01*
X191587Y31741D01*
X191631Y31756D01*
X209613Y40112D01*
X209639Y40130D01*
X209728Y40178D01*
X225991Y51522D01*
X226013Y51544D01*
X226093Y51607D01*
X240146Y65595D01*
X240165Y65620D01*
X240232Y65696D01*
X251651Y81906D01*
X251665Y81934D01*
X251718Y82020D01*
X260159Y99962D01*
X260167Y99993D01*
X260204Y100086D01*
X265411Y119219D01*
X265415Y119250D01*
X265435Y119349D01*
X267251Y139095D01*
X267248Y139126D01*
X267251Y139227D01*
X265621Y158988D01*
X265613Y159019D01*
X265599Y159119D01*
X260572Y178299D01*
X260559Y178328D01*
X260527Y178424D01*
X252255Y196445D01*
X252238Y196471D01*
X252190Y196560D01*
X245426Y206354D01*
X245414Y206367D01*
X245406Y206382D01*
X245329Y206455D01*
X245256Y206531D01*
X245241Y206539D01*
X245228Y206551D01*
X245131Y206596D01*
X245038Y206645D01*
X245021Y206648D01*
X245005Y206655D01*
X244899Y206667D01*
X244795Y206683D01*
X244778Y206680D01*
X244760Y206682D01*
X244656Y206659D01*
X244552Y206641D01*
X244537Y206633D01*
X244520Y206630D01*
X244429Y206575D01*
X244336Y206525D01*
X244324Y206512D01*
X244309Y206503D01*
X244240Y206423D01*
X244167Y206345D01*
X244160Y206330D01*
X244149Y206317D01*
X244109Y206218D01*
X244065Y206121D01*
X244064Y206104D01*
X244057Y206088D01*
X244039Y205922D01*
X244039Y205845D01*
X242659Y202513D01*
X229446Y189300D01*
X226114Y187920D01*
X222508Y187920D01*
X219176Y189300D01*
X216626Y191850D01*
X215246Y195182D01*
X215246Y198788D01*
X216626Y202120D01*
X229839Y215333D01*
X233171Y216713D01*
X235336Y216713D01*
X235405Y216724D01*
X235474Y216725D01*
X235525Y216744D01*
X235579Y216752D01*
X235640Y216785D01*
X235705Y216808D01*
X235748Y216842D01*
X235796Y216868D01*
X235844Y216918D01*
X235898Y216960D01*
X235928Y217006D01*
X235966Y217046D01*
X235995Y217108D01*
X236033Y217166D01*
X236046Y217219D01*
X236069Y217269D01*
X236077Y217338D01*
X236094Y217404D01*
X236091Y217459D01*
X236097Y217513D01*
X236082Y217581D01*
X236077Y217650D01*
X236056Y217700D01*
X236044Y217754D01*
X236009Y217813D01*
X235982Y217877D01*
X235935Y217937D01*
X235918Y217965D01*
X235902Y217979D01*
X235878Y218008D01*
X226917Y227097D01*
X226891Y227116D01*
X226816Y227183D01*
X210660Y238679D01*
X210653Y238682D01*
X210646Y238688D01*
X210621Y238700D01*
X210575Y238731D01*
X204458Y241978D01*
X204356Y242012D01*
X204256Y242051D01*
X204240Y242051D01*
X204225Y242056D01*
X204117Y242057D01*
X204010Y242061D01*
X203995Y242057D01*
X203979Y242057D01*
X203877Y242023D01*
X203774Y241993D01*
X203761Y241984D01*
X203746Y241979D01*
X203660Y241914D01*
X203572Y241852D01*
X203562Y241840D01*
X203550Y241830D01*
X203489Y241741D01*
X203425Y241655D01*
X203420Y241640D01*
X203411Y241627D01*
X203382Y241523D01*
X203349Y241421D01*
X203349Y241405D01*
X203345Y241390D01*
X203350Y241283D01*
X203351Y241175D01*
X203356Y241157D01*
X203357Y241144D01*
X203368Y241116D01*
X203398Y241014D01*
X203774Y240105D01*
X203774Y237304D01*
X202703Y234716D01*
X200722Y232735D01*
X198134Y231663D01*
X195333Y231663D01*
X192745Y232735D01*
X190765Y234716D01*
X189693Y237304D01*
X189693Y240105D01*
X190765Y242692D01*
X192745Y244673D01*
X195333Y245745D01*
X198134Y245745D01*
X198648Y245532D01*
X198698Y245520D01*
X198746Y245499D01*
X198818Y245492D01*
X198887Y245476D01*
X198939Y245481D01*
X198991Y245476D01*
X199061Y245492D01*
X199132Y245499D01*
X199180Y245520D01*
X199230Y245532D01*
X199291Y245570D01*
X199357Y245599D01*
X199395Y245634D01*
X199440Y245662D01*
X199485Y245717D01*
X199538Y245765D01*
X199563Y245811D01*
X199596Y245851D01*
X199622Y245918D01*
X199656Y245981D01*
X199666Y246032D01*
X199684Y246081D01*
X199687Y246152D01*
X199700Y246223D01*
X199693Y246275D01*
X199695Y246327D01*
X199668Y246439D01*
X199664Y246466D01*
X199660Y246475D01*
X199656Y246490D01*
X199630Y246565D01*
X199823Y246971D01*
X199847Y247053D01*
X199879Y247132D01*
X199884Y247181D01*
X199892Y247207D01*
X199891Y247237D01*
X199897Y247298D01*
X199897Y264668D01*
X199896Y264676D01*
X199896Y264678D01*
X199894Y264690D01*
X199896Y264712D01*
X199874Y264811D01*
X199858Y264911D01*
X199847Y264930D01*
X199842Y264952D01*
X199790Y265039D01*
X199742Y265128D01*
X199726Y265143D01*
X199715Y265162D01*
X199593Y265277D01*
X181982Y278485D01*
X181949Y278502D01*
X181920Y278527D01*
X181840Y278559D01*
X181764Y278599D01*
X181727Y278605D01*
X181692Y278619D01*
X181525Y278637D01*
X156927Y278637D01*
X156831Y278622D01*
X156734Y278612D01*
X156710Y278602D01*
X156684Y278598D01*
X156598Y278552D01*
X156509Y278512D01*
X156490Y278495D01*
X156467Y278482D01*
X156400Y278412D01*
X156328Y278346D01*
X156316Y278323D01*
X156298Y278304D01*
X156257Y278216D01*
X156210Y278130D01*
X156205Y278105D01*
X156194Y278081D01*
X156183Y277984D01*
X156166Y277888D01*
X156170Y277862D01*
X156167Y277837D01*
X156188Y277741D01*
X156202Y277645D01*
X156214Y277622D01*
X156219Y277596D01*
X156269Y277513D01*
X156313Y277426D01*
X156332Y277407D01*
X156345Y277385D01*
X156419Y277322D01*
X156489Y277254D01*
X156517Y277238D01*
X156532Y277225D01*
X156563Y277213D01*
X156636Y277173D01*
X159636Y275930D01*
X163230Y272336D01*
X165175Y267641D01*
X165175Y262559D01*
X163230Y257864D01*
X159636Y254270D01*
X154941Y252325D01*
X149859Y252325D01*
X145164Y254270D01*
X141570Y257864D01*
X139625Y262559D01*
X139625Y267641D01*
X141570Y272336D01*
X145164Y275930D01*
X148164Y277173D01*
X148247Y277224D01*
X148333Y277270D01*
X148351Y277288D01*
X148373Y277302D01*
X148435Y277378D01*
X148502Y277448D01*
X148513Y277472D01*
X148530Y277492D01*
X148565Y277583D01*
X148606Y277671D01*
X148609Y277697D01*
X148618Y277721D01*
X148622Y277819D01*
X148633Y277915D01*
X148628Y277941D01*
X148629Y277967D01*
X148602Y278061D01*
X148581Y278156D01*
X148567Y278178D01*
X148560Y278203D01*
X148505Y278283D01*
X148455Y278367D01*
X148435Y278384D01*
X148420Y278405D01*
X148342Y278464D01*
X148268Y278527D01*
X148243Y278537D01*
X148222Y278552D01*
X148130Y278582D01*
X148040Y278619D01*
X148007Y278622D01*
X147989Y278628D01*
X147956Y278628D01*
X147873Y278637D01*
X128126Y278637D01*
X128007Y278618D01*
X127886Y278599D01*
X127884Y278598D01*
X127883Y278598D01*
X127877Y278594D01*
X127734Y278529D01*
X105272Y265052D01*
X105226Y265012D01*
X105173Y264981D01*
X105132Y264933D01*
X105085Y264893D01*
X105053Y264840D01*
X105013Y264794D01*
X104990Y264736D01*
X104957Y264682D01*
X104944Y264623D01*
X104921Y264566D01*
X104911Y264474D01*
X104904Y264442D01*
X104906Y264426D01*
X104903Y264399D01*
X104903Y247298D01*
X104916Y247214D01*
X104922Y247129D01*
X104938Y247082D01*
X104942Y247055D01*
X104957Y247029D01*
X104977Y246971D01*
X105170Y246565D01*
X105069Y246279D01*
X105059Y246228D01*
X105041Y246179D01*
X105038Y246108D01*
X105025Y246037D01*
X105033Y245986D01*
X105030Y245933D01*
X105050Y245865D01*
X105061Y245794D01*
X105084Y245747D01*
X105099Y245697D01*
X105140Y245638D01*
X105172Y245575D01*
X105209Y245538D01*
X105239Y245495D01*
X105297Y245452D01*
X105348Y245402D01*
X105395Y245380D01*
X105437Y245348D01*
X105505Y245326D01*
X105569Y245295D01*
X105621Y245288D01*
X105670Y245272D01*
X105742Y245273D01*
X105813Y245264D01*
X105864Y245274D01*
X105916Y245275D01*
X106027Y245307D01*
X106054Y245312D01*
X106063Y245317D01*
X106077Y245321D01*
X106359Y245438D01*
X109160Y245438D01*
X111748Y244366D01*
X113728Y242385D01*
X114800Y239798D01*
X114800Y236997D01*
X113728Y234409D01*
X111748Y232428D01*
X109160Y231356D01*
X106359Y231356D01*
X103771Y232428D01*
X101790Y234409D01*
X100719Y236997D01*
X100719Y239798D01*
X101172Y240892D01*
X101196Y240996D01*
X101225Y241100D01*
X101224Y241116D01*
X101228Y241131D01*
X101218Y241238D01*
X101212Y241346D01*
X101206Y241360D01*
X101205Y241376D01*
X101161Y241474D01*
X101121Y241574D01*
X101111Y241586D01*
X101105Y241601D01*
X101032Y241680D01*
X100963Y241762D01*
X100949Y241770D01*
X100938Y241782D01*
X100844Y241834D01*
X100752Y241889D01*
X100737Y241893D01*
X100723Y241900D01*
X100617Y241920D01*
X100512Y241943D01*
X100496Y241941D01*
X100481Y241944D01*
X100374Y241928D01*
X100267Y241917D01*
X100250Y241910D01*
X100237Y241908D01*
X100210Y241895D01*
X100112Y241855D01*
X94225Y238731D01*
X94200Y238712D01*
X94140Y238679D01*
X77984Y227183D01*
X77962Y227161D01*
X77883Y227097D01*
X68619Y217701D01*
X68579Y217645D01*
X68531Y217595D01*
X68508Y217545D01*
X68477Y217501D01*
X68457Y217434D01*
X68428Y217372D01*
X68422Y217318D01*
X68406Y217265D01*
X68408Y217196D01*
X68401Y217127D01*
X68412Y217074D01*
X68414Y217019D01*
X68438Y216955D01*
X68453Y216887D01*
X68481Y216840D01*
X68500Y216789D01*
X68544Y216735D01*
X68579Y216676D01*
X68621Y216640D01*
X68655Y216598D01*
X68713Y216561D01*
X68766Y216516D01*
X68817Y216496D01*
X68863Y216466D01*
X68930Y216450D01*
X68994Y216424D01*
X69070Y216416D01*
X69102Y216408D01*
X69124Y216410D01*
X69161Y216406D01*
X71322Y216406D01*
X74654Y215026D01*
X87867Y201813D01*
X89247Y198481D01*
X89247Y194875D01*
X87867Y191543D01*
X85317Y188993D01*
X81985Y187613D01*
X78379Y187613D01*
X75047Y188993D01*
X61834Y202206D01*
X60441Y205569D01*
X60432Y205615D01*
X60415Y205720D01*
X60406Y205735D01*
X60403Y205752D01*
X60349Y205844D01*
X60299Y205937D01*
X60287Y205949D01*
X60278Y205964D01*
X60198Y206034D01*
X60121Y206107D01*
X60105Y206114D01*
X60093Y206125D01*
X59994Y206165D01*
X59898Y206210D01*
X59881Y206212D01*
X59865Y206219D01*
X59759Y206226D01*
X59654Y206237D01*
X59637Y206234D01*
X59620Y206235D01*
X59517Y206208D01*
X59413Y206185D01*
X59398Y206176D01*
X59382Y206172D01*
X59293Y206113D01*
X59202Y206059D01*
X59191Y206046D01*
X59177Y206036D01*
X59067Y205910D01*
X56812Y202644D01*
X52610Y196560D01*
X52609Y196556D01*
X52607Y196554D01*
X52593Y196526D01*
X52545Y196445D01*
X44273Y178424D01*
X44265Y178394D01*
X44228Y178299D01*
X39201Y159119D01*
X39198Y159087D01*
X39179Y158988D01*
X37549Y139227D01*
X37551Y139195D01*
X37549Y139095D01*
X39365Y119349D01*
X39373Y119319D01*
X39389Y119219D01*
X44596Y100086D01*
X44609Y100058D01*
X44641Y99962D01*
X53082Y82020D01*
X53100Y81994D01*
X53149Y81906D01*
X64568Y65696D01*
X64590Y65673D01*
X64654Y65595D01*
X78707Y51607D01*
X78733Y51588D01*
X78809Y51522D01*
X95072Y40178D01*
X95101Y40165D01*
X95187Y40112D01*
X105810Y35175D01*
X105919Y35145D01*
X106028Y35112D01*
X106038Y35112D01*
X106047Y35109D01*
X106160Y35115D01*
X106274Y35118D01*
X106283Y35121D01*
X106293Y35122D01*
X106398Y35164D01*
X106505Y35202D01*
X106512Y35209D01*
X106522Y35212D01*
X106608Y35285D01*
X106697Y35356D01*
X106702Y35364D01*
X106710Y35371D01*
X106768Y35468D01*
X106830Y35563D01*
X106832Y35573D01*
X106837Y35581D01*
X106862Y35692D01*
X106890Y35802D01*
X106889Y35811D01*
X106891Y35821D01*
X106879Y35934D01*
X106871Y36047D01*
X106867Y36056D01*
X106866Y36066D01*
X106819Y36169D01*
X106774Y36273D01*
X106767Y36282D01*
X106764Y36290D01*
X106747Y36308D01*
X106670Y36404D01*
X104421Y38652D01*
X104421Y41889D01*
X104407Y41980D01*
X104399Y42070D01*
X104393Y42085D01*
X104393Y47754D01*
X104390Y47774D01*
X104392Y47793D01*
X104370Y47895D01*
X104354Y47997D01*
X104344Y48014D01*
X104340Y48034D01*
X104287Y48123D01*
X104238Y48214D01*
X104224Y48228D01*
X104214Y48245D01*
X104135Y48312D01*
X104060Y48384D01*
X104042Y48392D01*
X104027Y48405D01*
X103931Y48444D01*
X103837Y48487D01*
X103817Y48489D01*
X103799Y48497D01*
X103632Y48515D01*
X98548Y48515D01*
X97655Y49408D01*
X97655Y63672D01*
X98548Y64565D01*
X114812Y64565D01*
X115705Y63672D01*
X115705Y49408D01*
X114812Y48515D01*
X109728Y48515D01*
X109708Y48512D01*
X109689Y48514D01*
X109587Y48492D01*
X109485Y48476D01*
X109468Y48466D01*
X109448Y48462D01*
X109359Y48409D01*
X109268Y48360D01*
X109254Y48346D01*
X109237Y48336D01*
X109170Y48257D01*
X109098Y48182D01*
X109090Y48164D01*
X109077Y48149D01*
X109038Y48053D01*
X108995Y47959D01*
X108993Y47939D01*
X108985Y47921D01*
X108967Y47754D01*
X108967Y46200D01*
X108970Y46180D01*
X108968Y46161D01*
X108990Y46059D01*
X109006Y45957D01*
X109016Y45940D01*
X109020Y45920D01*
X109073Y45831D01*
X109122Y45740D01*
X109136Y45726D01*
X109146Y45709D01*
X109225Y45642D01*
X109300Y45570D01*
X109318Y45562D01*
X109333Y45549D01*
X109429Y45510D01*
X109523Y45467D01*
X109543Y45465D01*
X109561Y45457D01*
X109728Y45439D01*
X111208Y45439D01*
X114019Y42628D01*
X114019Y38652D01*
X111208Y35841D01*
X107822Y35841D01*
X107742Y35828D01*
X107660Y35824D01*
X107621Y35808D01*
X107579Y35802D01*
X107507Y35763D01*
X107432Y35734D01*
X107399Y35706D01*
X107362Y35686D01*
X107306Y35627D01*
X107244Y35575D01*
X107222Y35539D01*
X107193Y35508D01*
X107158Y35434D01*
X107116Y35365D01*
X107107Y35323D01*
X107089Y35285D01*
X107080Y35204D01*
X107062Y35125D01*
X107066Y35083D01*
X107062Y35041D01*
X107079Y34961D01*
X107088Y34880D01*
X107105Y34842D01*
X107114Y34800D01*
X107156Y34730D01*
X107190Y34656D01*
X107219Y34625D01*
X107240Y34589D01*
X107302Y34536D01*
X107358Y34477D01*
X107405Y34448D01*
X107427Y34429D01*
X107454Y34418D01*
X107501Y34390D01*
X113169Y31756D01*
X113199Y31747D01*
X113293Y31711D01*
X132450Y26594D01*
X132481Y26591D01*
X132580Y26571D01*
X152334Y24848D01*
X152365Y24850D01*
X152466Y24848D01*
X172220Y26571D01*
G37*
%LPC*%
G36*
X203898Y122095D02*
X203898Y122095D01*
X197428Y124775D01*
X192475Y129728D01*
X189795Y136198D01*
X189795Y136465D01*
X189784Y136536D01*
X189782Y136608D01*
X189764Y136657D01*
X189756Y136708D01*
X189722Y136771D01*
X189697Y136839D01*
X189665Y136879D01*
X189640Y136925D01*
X189588Y136975D01*
X189544Y137031D01*
X189500Y137059D01*
X189462Y137095D01*
X189397Y137125D01*
X189337Y137164D01*
X189286Y137176D01*
X189239Y137198D01*
X189168Y137206D01*
X189098Y137224D01*
X189046Y137220D01*
X188995Y137225D01*
X188924Y137210D01*
X188853Y137205D01*
X188805Y137184D01*
X188754Y137173D01*
X188693Y137136D01*
X188627Y137108D01*
X188571Y137063D01*
X188543Y137047D01*
X188528Y137029D01*
X188496Y137003D01*
X186718Y135225D01*
X167682Y135225D01*
X165925Y136982D01*
X165925Y142418D01*
X167085Y143578D01*
X167127Y143636D01*
X167177Y143688D01*
X167199Y143735D01*
X167229Y143777D01*
X167250Y143846D01*
X167280Y143911D01*
X167286Y143963D01*
X167301Y144013D01*
X167300Y144084D01*
X167307Y144155D01*
X167296Y144206D01*
X167295Y144258D01*
X167270Y144326D01*
X167255Y144396D01*
X167228Y144441D01*
X167211Y144489D01*
X167166Y144545D01*
X167129Y144607D01*
X167089Y144641D01*
X167057Y144681D01*
X166997Y144720D01*
X166942Y144767D01*
X166894Y144786D01*
X166850Y144814D01*
X166780Y144832D01*
X166714Y144859D01*
X166643Y144867D01*
X166611Y144875D01*
X166588Y144873D01*
X166547Y144877D01*
X166420Y144877D01*
X150113Y161184D01*
X150113Y161809D01*
X150102Y161880D01*
X150100Y161951D01*
X150082Y162000D01*
X150074Y162052D01*
X150040Y162115D01*
X150015Y162182D01*
X149983Y162223D01*
X149958Y162269D01*
X149907Y162318D01*
X149862Y162375D01*
X149818Y162403D01*
X149780Y162439D01*
X149715Y162469D01*
X149655Y162508D01*
X149604Y162520D01*
X149557Y162542D01*
X149486Y162550D01*
X149416Y162568D01*
X149364Y162564D01*
X149313Y162569D01*
X149242Y162554D01*
X149171Y162548D01*
X149123Y162528D01*
X149072Y162517D01*
X149011Y162480D01*
X148945Y162452D01*
X148889Y162407D01*
X148861Y162391D01*
X148846Y162373D01*
X148814Y162347D01*
X146768Y160301D01*
X142792Y160301D01*
X140503Y162590D01*
X140429Y162643D01*
X140360Y162703D01*
X140330Y162715D01*
X140304Y162734D01*
X140217Y162761D01*
X140132Y162795D01*
X140091Y162799D01*
X140068Y162806D01*
X140036Y162805D01*
X139965Y162813D01*
X139621Y162813D01*
X139531Y162799D01*
X139440Y162791D01*
X139410Y162779D01*
X139378Y162774D01*
X139297Y162731D01*
X139214Y162695D01*
X139181Y162669D01*
X139161Y162658D01*
X139139Y162635D01*
X139083Y162590D01*
X137118Y160625D01*
X118082Y160625D01*
X116325Y162382D01*
X116325Y167818D01*
X118082Y169575D01*
X137118Y169575D01*
X139083Y167610D01*
X139157Y167557D01*
X139226Y167497D01*
X139256Y167485D01*
X139282Y167466D01*
X139369Y167439D01*
X139454Y167405D01*
X139495Y167401D01*
X139517Y167394D01*
X139550Y167395D01*
X139621Y167387D01*
X139965Y167387D01*
X140055Y167401D01*
X140146Y167409D01*
X140176Y167421D01*
X140208Y167426D01*
X140288Y167469D01*
X140372Y167505D01*
X140404Y167531D01*
X140425Y167542D01*
X140447Y167565D01*
X140503Y167610D01*
X142792Y169899D01*
X146768Y169899D01*
X148814Y167853D01*
X148872Y167811D01*
X148924Y167761D01*
X148971Y167740D01*
X149013Y167709D01*
X149082Y167688D01*
X149147Y167658D01*
X149199Y167652D01*
X149249Y167637D01*
X149320Y167639D01*
X149391Y167631D01*
X149442Y167642D01*
X149494Y167643D01*
X149562Y167668D01*
X149632Y167683D01*
X149677Y167710D01*
X149725Y167728D01*
X149781Y167772D01*
X149843Y167809D01*
X149877Y167849D01*
X149917Y167881D01*
X149956Y167942D01*
X150003Y167996D01*
X150022Y168044D01*
X150050Y168088D01*
X150068Y168158D01*
X150095Y168224D01*
X150103Y168296D01*
X150111Y168327D01*
X150109Y168350D01*
X150113Y168391D01*
X150113Y200327D01*
X150094Y200442D01*
X150077Y200558D01*
X150075Y200564D01*
X150074Y200570D01*
X150019Y200672D01*
X149966Y200777D01*
X149961Y200782D01*
X149958Y200787D01*
X149874Y200867D01*
X149790Y200949D01*
X149784Y200953D01*
X149780Y200956D01*
X149763Y200964D01*
X149643Y201030D01*
X147265Y202015D01*
X144715Y204565D01*
X143335Y207897D01*
X143335Y211503D01*
X144715Y214835D01*
X147265Y217385D01*
X150597Y218765D01*
X154203Y218765D01*
X157535Y217385D01*
X160085Y214835D01*
X161465Y211503D01*
X161465Y207897D01*
X160085Y204565D01*
X157535Y202015D01*
X155157Y201030D01*
X155057Y200968D01*
X154957Y200909D01*
X154953Y200904D01*
X154948Y200901D01*
X154873Y200810D01*
X154797Y200722D01*
X154795Y200716D01*
X154791Y200711D01*
X154749Y200603D01*
X154705Y200494D01*
X154704Y200486D01*
X154703Y200482D01*
X154702Y200463D01*
X154687Y200327D01*
X154687Y163394D01*
X154691Y163369D01*
X154689Y163353D01*
X154702Y163291D01*
X154709Y163213D01*
X154721Y163183D01*
X154726Y163151D01*
X154737Y163130D01*
X154741Y163113D01*
X154776Y163055D01*
X154805Y162986D01*
X154831Y162954D01*
X154842Y162934D01*
X154857Y162919D01*
X154867Y162902D01*
X154884Y162887D01*
X154910Y162855D01*
X164626Y153139D01*
X164684Y153097D01*
X164736Y153048D01*
X164783Y153026D01*
X164825Y152996D01*
X164894Y152975D01*
X164959Y152944D01*
X165011Y152939D01*
X165061Y152923D01*
X165132Y152925D01*
X165203Y152917D01*
X165254Y152928D01*
X165306Y152930D01*
X165374Y152954D01*
X165444Y152970D01*
X165489Y152996D01*
X165537Y153014D01*
X165593Y153059D01*
X165655Y153096D01*
X165689Y153135D01*
X165729Y153168D01*
X165768Y153228D01*
X165815Y153283D01*
X165834Y153331D01*
X165862Y153375D01*
X165880Y153444D01*
X165907Y153511D01*
X165915Y153582D01*
X165923Y153613D01*
X165921Y153637D01*
X165925Y153678D01*
X165925Y155118D01*
X167682Y156875D01*
X186718Y156875D01*
X186942Y156651D01*
X187000Y156609D01*
X187052Y156559D01*
X187099Y156537D01*
X187141Y156507D01*
X187210Y156486D01*
X187275Y156456D01*
X187327Y156450D01*
X187377Y156435D01*
X187448Y156436D01*
X187519Y156429D01*
X187570Y156440D01*
X187622Y156441D01*
X187690Y156466D01*
X187760Y156481D01*
X187805Y156508D01*
X187853Y156525D01*
X187909Y156570D01*
X187971Y156607D01*
X188005Y156647D01*
X188045Y156679D01*
X188084Y156739D01*
X188131Y156794D01*
X188150Y156842D01*
X188178Y156886D01*
X188196Y156955D01*
X188223Y157022D01*
X188231Y157093D01*
X188239Y157125D01*
X188237Y157148D01*
X188241Y157189D01*
X188241Y159468D01*
X191052Y162279D01*
X195028Y162279D01*
X197839Y159468D01*
X197839Y155934D01*
X197846Y155889D01*
X197844Y155843D01*
X197866Y155768D01*
X197878Y155691D01*
X197900Y155651D01*
X197913Y155607D01*
X197957Y155543D01*
X197994Y155474D01*
X198027Y155442D01*
X198053Y155405D01*
X198116Y155358D01*
X198172Y155305D01*
X198214Y155285D01*
X198250Y155258D01*
X198324Y155234D01*
X198395Y155201D01*
X198441Y155196D01*
X198484Y155182D01*
X198562Y155182D01*
X198639Y155174D01*
X198684Y155184D01*
X198730Y155184D01*
X198862Y155222D01*
X198880Y155226D01*
X198884Y155229D01*
X198891Y155231D01*
X203898Y157305D01*
X210902Y157305D01*
X217372Y154625D01*
X222325Y149672D01*
X225005Y143202D01*
X225005Y136198D01*
X222325Y129728D01*
X217372Y124775D01*
X210902Y122095D01*
X203898Y122095D01*
G37*
%LPD*%
%LPC*%
G36*
X83459Y119047D02*
X83459Y119047D01*
X66615Y135891D01*
X66521Y135958D01*
X66427Y136029D01*
X66421Y136031D01*
X66415Y136034D01*
X66305Y136069D01*
X66193Y136105D01*
X66186Y136105D01*
X66180Y136107D01*
X66064Y136104D01*
X65947Y136103D01*
X65940Y136101D01*
X65935Y136100D01*
X65917Y136094D01*
X65786Y136056D01*
X62931Y134873D01*
X58989Y134873D01*
X55348Y136381D01*
X52561Y139168D01*
X51053Y142809D01*
X51053Y146751D01*
X52561Y150392D01*
X55348Y153179D01*
X58989Y154687D01*
X62931Y154687D01*
X66572Y153179D01*
X69359Y150392D01*
X70867Y146751D01*
X70867Y142809D01*
X69684Y139954D01*
X69657Y139841D01*
X69629Y139727D01*
X69629Y139721D01*
X69628Y139715D01*
X69639Y139598D01*
X69648Y139482D01*
X69650Y139476D01*
X69651Y139470D01*
X69699Y139362D01*
X69744Y139256D01*
X69749Y139250D01*
X69751Y139245D01*
X69764Y139232D01*
X69849Y139125D01*
X85130Y123844D01*
X85204Y123791D01*
X85274Y123731D01*
X85304Y123719D01*
X85330Y123700D01*
X85417Y123673D01*
X85502Y123639D01*
X85543Y123635D01*
X85565Y123628D01*
X85597Y123629D01*
X85669Y123621D01*
X86745Y123621D01*
X86815Y123632D01*
X86887Y123634D01*
X86936Y123652D01*
X86987Y123660D01*
X87051Y123694D01*
X87118Y123719D01*
X87159Y123751D01*
X87205Y123776D01*
X87254Y123828D01*
X87310Y123872D01*
X87338Y123916D01*
X87374Y123954D01*
X87404Y124019D01*
X87443Y124079D01*
X87456Y124130D01*
X87478Y124177D01*
X87486Y124248D01*
X87503Y124318D01*
X87499Y124370D01*
X87505Y124421D01*
X87490Y124492D01*
X87484Y124563D01*
X87464Y124611D01*
X87453Y124662D01*
X87416Y124723D01*
X87388Y124789D01*
X87343Y124845D01*
X87326Y124873D01*
X87309Y124888D01*
X87283Y124920D01*
X82475Y129728D01*
X79795Y136198D01*
X79795Y143202D01*
X82475Y149672D01*
X87428Y154625D01*
X93898Y157305D01*
X100902Y157305D01*
X103325Y156301D01*
X103420Y156279D01*
X103513Y156250D01*
X103539Y156251D01*
X103565Y156245D01*
X103661Y156254D01*
X103759Y156256D01*
X103783Y156265D01*
X103809Y156268D01*
X103898Y156308D01*
X103990Y156341D01*
X104010Y156357D01*
X104034Y156368D01*
X104106Y156434D01*
X104182Y156495D01*
X104196Y156517D01*
X104215Y156534D01*
X104262Y156620D01*
X104315Y156702D01*
X104321Y156727D01*
X104334Y156750D01*
X104351Y156846D01*
X104375Y156940D01*
X104373Y156966D01*
X104378Y156992D01*
X104363Y157088D01*
X104356Y157185D01*
X104346Y157209D01*
X104342Y157235D01*
X104298Y157322D01*
X104259Y157412D01*
X104239Y157437D01*
X104230Y157454D01*
X104207Y157478D01*
X104155Y157543D01*
X100876Y160821D01*
X99313Y162384D01*
X99313Y172985D01*
X99299Y173075D01*
X99291Y173166D01*
X99279Y173196D01*
X99274Y173228D01*
X99231Y173308D01*
X99195Y173392D01*
X99169Y173424D01*
X99158Y173445D01*
X99135Y173467D01*
X99090Y173523D01*
X96801Y175812D01*
X96801Y179788D01*
X99612Y182599D01*
X103588Y182599D01*
X106399Y179788D01*
X106399Y175812D01*
X104110Y173523D01*
X104057Y173449D01*
X103997Y173380D01*
X103985Y173350D01*
X103966Y173324D01*
X103939Y173237D01*
X103905Y173152D01*
X103901Y173111D01*
X103894Y173088D01*
X103895Y173056D01*
X103887Y172985D01*
X103887Y164594D01*
X103901Y164504D01*
X103909Y164413D01*
X103921Y164383D01*
X103926Y164351D01*
X103969Y164270D01*
X104005Y164186D01*
X104031Y164154D01*
X104042Y164134D01*
X104065Y164111D01*
X104110Y164055D01*
X115026Y153139D01*
X115084Y153097D01*
X115136Y153048D01*
X115183Y153026D01*
X115225Y152996D01*
X115294Y152975D01*
X115359Y152944D01*
X115411Y152939D01*
X115461Y152923D01*
X115532Y152925D01*
X115603Y152917D01*
X115654Y152928D01*
X115706Y152930D01*
X115774Y152954D01*
X115844Y152970D01*
X115889Y152996D01*
X115937Y153014D01*
X115993Y153059D01*
X116055Y153096D01*
X116089Y153135D01*
X116129Y153168D01*
X116168Y153228D01*
X116215Y153283D01*
X116234Y153331D01*
X116262Y153375D01*
X116280Y153444D01*
X116307Y153511D01*
X116315Y153582D01*
X116323Y153613D01*
X116321Y153637D01*
X116325Y153678D01*
X116325Y155118D01*
X118082Y156875D01*
X137118Y156875D01*
X138875Y155118D01*
X138875Y149682D01*
X137118Y147925D01*
X124446Y147925D01*
X124376Y147914D01*
X124304Y147912D01*
X124255Y147894D01*
X124204Y147886D01*
X124140Y147852D01*
X124073Y147827D01*
X124032Y147795D01*
X123986Y147770D01*
X123937Y147718D01*
X123881Y147674D01*
X123853Y147630D01*
X123817Y147592D01*
X123787Y147527D01*
X123748Y147467D01*
X123735Y147416D01*
X123713Y147369D01*
X123705Y147298D01*
X123688Y147228D01*
X123692Y147176D01*
X123686Y147125D01*
X123701Y147054D01*
X123707Y146983D01*
X123727Y146935D01*
X123738Y146884D01*
X123775Y146823D01*
X123803Y146757D01*
X123848Y146701D01*
X123865Y146673D01*
X123882Y146658D01*
X123908Y146626D01*
X126136Y144398D01*
X126210Y144345D01*
X126280Y144285D01*
X126310Y144273D01*
X126336Y144254D01*
X126423Y144227D01*
X126508Y144193D01*
X126549Y144189D01*
X126571Y144182D01*
X126603Y144183D01*
X126675Y144175D01*
X137118Y144175D01*
X138875Y142418D01*
X138875Y136982D01*
X137118Y135225D01*
X118082Y135225D01*
X116304Y137003D01*
X116246Y137045D01*
X116194Y137095D01*
X116147Y137117D01*
X116105Y137147D01*
X116036Y137168D01*
X115971Y137198D01*
X115919Y137204D01*
X115869Y137219D01*
X115798Y137218D01*
X115727Y137225D01*
X115676Y137214D01*
X115624Y137213D01*
X115556Y137188D01*
X115486Y137173D01*
X115441Y137146D01*
X115393Y137129D01*
X115337Y137084D01*
X115275Y137047D01*
X115241Y137007D01*
X115201Y136975D01*
X115162Y136915D01*
X115115Y136860D01*
X115096Y136812D01*
X115068Y136768D01*
X115050Y136698D01*
X115023Y136632D01*
X115015Y136561D01*
X115007Y136529D01*
X115009Y136506D01*
X115005Y136465D01*
X115005Y136198D01*
X112578Y130339D01*
X112567Y130295D01*
X112548Y130253D01*
X112540Y130176D01*
X112522Y130100D01*
X112526Y130054D01*
X112521Y130009D01*
X112538Y129932D01*
X112545Y129855D01*
X112563Y129813D01*
X112573Y129768D01*
X112613Y129701D01*
X112645Y129630D01*
X112676Y129596D01*
X112699Y129557D01*
X112759Y129506D01*
X112811Y129449D01*
X112851Y129427D01*
X112886Y129397D01*
X112959Y129368D01*
X113027Y129331D01*
X113072Y129322D01*
X113114Y129305D01*
X113250Y129290D01*
X113269Y129287D01*
X113274Y129288D01*
X113281Y129287D01*
X115579Y129287D01*
X115669Y129301D01*
X115760Y129309D01*
X115790Y129321D01*
X115822Y129326D01*
X115903Y129369D01*
X115987Y129405D01*
X116019Y129431D01*
X116039Y129442D01*
X116061Y129465D01*
X116117Y129510D01*
X118082Y131475D01*
X137118Y131475D01*
X138875Y129718D01*
X138875Y124282D01*
X137118Y122525D01*
X118082Y122525D01*
X116117Y124490D01*
X116043Y124543D01*
X115974Y124603D01*
X115944Y124615D01*
X115918Y124634D01*
X115831Y124661D01*
X115746Y124695D01*
X115705Y124699D01*
X115683Y124706D01*
X115650Y124705D01*
X115579Y124713D01*
X111936Y124713D01*
X111846Y124699D01*
X111755Y124691D01*
X111725Y124679D01*
X111693Y124674D01*
X111613Y124631D01*
X111529Y124595D01*
X111497Y124569D01*
X111476Y124558D01*
X111454Y124535D01*
X111398Y124490D01*
X105955Y119047D01*
X83459Y119047D01*
G37*
%LPD*%
%LPC*%
G36*
X196728Y163695D02*
X196728Y163695D01*
X195835Y164588D01*
X195835Y174752D01*
X195832Y174772D01*
X195834Y174791D01*
X195812Y174893D01*
X195796Y174995D01*
X195786Y175012D01*
X195782Y175032D01*
X195729Y175121D01*
X195680Y175212D01*
X195666Y175226D01*
X195656Y175243D01*
X195577Y175310D01*
X195502Y175382D01*
X195484Y175390D01*
X195469Y175403D01*
X195373Y175442D01*
X195279Y175485D01*
X195259Y175487D01*
X195241Y175495D01*
X195074Y175513D01*
X189221Y175513D01*
X189131Y175499D01*
X189040Y175491D01*
X189010Y175479D01*
X188978Y175474D01*
X188897Y175431D01*
X188813Y175395D01*
X188781Y175369D01*
X188761Y175358D01*
X188739Y175335D01*
X188683Y175290D01*
X186718Y173325D01*
X167682Y173325D01*
X165925Y175082D01*
X165925Y180518D01*
X167682Y182275D01*
X174752Y182275D01*
X174772Y182278D01*
X174791Y182276D01*
X174893Y182298D01*
X174995Y182314D01*
X175012Y182324D01*
X175032Y182328D01*
X175121Y182381D01*
X175212Y182430D01*
X175226Y182444D01*
X175243Y182454D01*
X175310Y182533D01*
X175382Y182608D01*
X175390Y182626D01*
X175403Y182641D01*
X175442Y182737D01*
X175485Y182831D01*
X175487Y182851D01*
X175495Y182869D01*
X175513Y183036D01*
X175513Y200161D01*
X175494Y200276D01*
X175477Y200392D01*
X175475Y200398D01*
X175474Y200404D01*
X175419Y200507D01*
X175366Y200611D01*
X175361Y200616D01*
X175358Y200621D01*
X175274Y200701D01*
X175190Y200784D01*
X175184Y200787D01*
X175180Y200791D01*
X175163Y200799D01*
X175043Y200865D01*
X172265Y202015D01*
X169715Y204565D01*
X168335Y207897D01*
X168335Y211503D01*
X169715Y214835D01*
X172265Y217385D01*
X175597Y218765D01*
X179203Y218765D01*
X182535Y217385D01*
X185085Y214835D01*
X186465Y211503D01*
X186465Y207897D01*
X185085Y204565D01*
X182535Y202015D01*
X180557Y201196D01*
X180457Y201134D01*
X180357Y201074D01*
X180353Y201070D01*
X180348Y201066D01*
X180273Y200976D01*
X180197Y200888D01*
X180195Y200882D01*
X180191Y200877D01*
X180149Y200768D01*
X180105Y200659D01*
X180104Y200652D01*
X180103Y200647D01*
X180102Y200629D01*
X180087Y200493D01*
X180087Y183036D01*
X180090Y183016D01*
X180088Y182997D01*
X180110Y182895D01*
X180126Y182793D01*
X180136Y182776D01*
X180140Y182756D01*
X180193Y182667D01*
X180242Y182576D01*
X180256Y182562D01*
X180266Y182545D01*
X180345Y182478D01*
X180420Y182406D01*
X180438Y182398D01*
X180453Y182385D01*
X180549Y182346D01*
X180643Y182303D01*
X180663Y182301D01*
X180681Y182293D01*
X180848Y182275D01*
X186718Y182275D01*
X188683Y180310D01*
X188757Y180257D01*
X188826Y180197D01*
X188856Y180185D01*
X188882Y180166D01*
X188969Y180139D01*
X189054Y180105D01*
X189095Y180101D01*
X189117Y180094D01*
X189150Y180095D01*
X189221Y180087D01*
X195074Y180087D01*
X195094Y180090D01*
X195113Y180088D01*
X195215Y180110D01*
X195317Y180126D01*
X195334Y180136D01*
X195354Y180140D01*
X195443Y180193D01*
X195534Y180242D01*
X195548Y180256D01*
X195565Y180266D01*
X195632Y180345D01*
X195704Y180420D01*
X195712Y180438D01*
X195725Y180453D01*
X195764Y180549D01*
X195807Y180643D01*
X195809Y180663D01*
X195817Y180681D01*
X195835Y180848D01*
X195835Y180852D01*
X196728Y181745D01*
X210992Y181745D01*
X211885Y180852D01*
X211885Y164588D01*
X210992Y163695D01*
X196728Y163695D01*
G37*
%LPD*%
%LPC*%
G36*
X210745Y47913D02*
X210745Y47913D01*
X208455Y50203D01*
X208382Y50256D01*
X208312Y50315D01*
X208282Y50327D01*
X208256Y50346D01*
X208169Y50373D01*
X208131Y50388D01*
X208111Y50397D01*
X208107Y50398D01*
X208084Y50407D01*
X208043Y50412D01*
X208021Y50418D01*
X207988Y50418D01*
X207917Y50425D01*
X207906Y50425D01*
X207886Y50422D01*
X207867Y50424D01*
X207814Y50413D01*
X207775Y50412D01*
X207735Y50397D01*
X207663Y50386D01*
X207646Y50376D01*
X207626Y50372D01*
X207564Y50335D01*
X207544Y50328D01*
X207525Y50313D01*
X207446Y50271D01*
X207432Y50256D01*
X207415Y50246D01*
X207357Y50178D01*
X207352Y50174D01*
X207347Y50167D01*
X207276Y50092D01*
X207268Y50074D01*
X207255Y50059D01*
X207216Y49963D01*
X207173Y49869D01*
X207171Y49849D01*
X207163Y49831D01*
X207145Y49664D01*
X207145Y49408D01*
X206252Y48515D01*
X189988Y48515D01*
X189095Y49408D01*
X189095Y63672D01*
X189988Y64565D01*
X206252Y64565D01*
X207145Y63672D01*
X207145Y55760D01*
X207148Y55741D01*
X207146Y55721D01*
X207168Y55619D01*
X207184Y55517D01*
X207194Y55500D01*
X207198Y55480D01*
X207251Y55391D01*
X207300Y55300D01*
X207314Y55286D01*
X207324Y55269D01*
X207399Y55205D01*
X207408Y55195D01*
X207417Y55189D01*
X207478Y55131D01*
X207496Y55122D01*
X207511Y55109D01*
X207590Y55078D01*
X207614Y55062D01*
X207641Y55055D01*
X207701Y55027D01*
X207721Y55025D01*
X207739Y55017D01*
X207831Y55007D01*
X207853Y55002D01*
X207870Y55003D01*
X207906Y54999D01*
X207917Y54999D01*
X207932Y55001D01*
X207945Y55000D01*
X208009Y55014D01*
X208098Y55021D01*
X208128Y55033D01*
X208160Y55039D01*
X208185Y55052D01*
X208186Y55052D01*
X208188Y55054D01*
X208241Y55081D01*
X208325Y55117D01*
X208357Y55143D01*
X208377Y55154D01*
X208400Y55177D01*
X208455Y55222D01*
X210745Y57511D01*
X212880Y57511D01*
X212900Y57514D01*
X212919Y57512D01*
X213021Y57534D01*
X213123Y57551D01*
X213140Y57560D01*
X213160Y57564D01*
X213249Y57617D01*
X213340Y57666D01*
X213354Y57680D01*
X213371Y57690D01*
X213438Y57769D01*
X213510Y57844D01*
X213518Y57862D01*
X213531Y57877D01*
X213570Y57974D01*
X213613Y58067D01*
X213615Y58087D01*
X213623Y58105D01*
X213641Y58272D01*
X213641Y60408D01*
X215930Y62697D01*
X215983Y62771D01*
X216043Y62840D01*
X216055Y62870D01*
X216074Y62896D01*
X216101Y62983D01*
X216135Y63068D01*
X216139Y63109D01*
X216146Y63132D01*
X216145Y63164D01*
X216153Y63235D01*
X216153Y65534D01*
X216150Y65554D01*
X216152Y65573D01*
X216130Y65675D01*
X216114Y65777D01*
X216104Y65794D01*
X216100Y65814D01*
X216047Y65903D01*
X215998Y65994D01*
X215984Y66008D01*
X215974Y66025D01*
X215895Y66092D01*
X215820Y66164D01*
X215802Y66172D01*
X215787Y66185D01*
X215691Y66224D01*
X215597Y66267D01*
X215577Y66269D01*
X215559Y66277D01*
X215392Y66295D01*
X212848Y66295D01*
X211955Y67188D01*
X211955Y81452D01*
X212848Y82345D01*
X229112Y82345D01*
X230005Y81452D01*
X230005Y67188D01*
X229112Y66295D01*
X221488Y66295D01*
X221468Y66292D01*
X221449Y66294D01*
X221347Y66272D01*
X221245Y66256D01*
X221228Y66246D01*
X221208Y66242D01*
X221119Y66189D01*
X221028Y66140D01*
X221014Y66126D01*
X220997Y66116D01*
X220930Y66037D01*
X220858Y65962D01*
X220850Y65944D01*
X220837Y65929D01*
X220798Y65832D01*
X220755Y65739D01*
X220753Y65719D01*
X220745Y65701D01*
X220727Y65534D01*
X220727Y63235D01*
X220741Y63145D01*
X220749Y63054D01*
X220761Y63024D01*
X220766Y62992D01*
X220809Y62912D01*
X220845Y62828D01*
X220871Y62796D01*
X220882Y62775D01*
X220905Y62753D01*
X220950Y62697D01*
X223239Y60408D01*
X223239Y56432D01*
X220428Y53621D01*
X218292Y53621D01*
X218273Y53618D01*
X218253Y53620D01*
X218151Y53598D01*
X218049Y53582D01*
X218032Y53572D01*
X218012Y53568D01*
X217923Y53515D01*
X217832Y53466D01*
X217818Y53452D01*
X217801Y53442D01*
X217734Y53363D01*
X217663Y53288D01*
X217654Y53270D01*
X217641Y53255D01*
X217603Y53159D01*
X217559Y53065D01*
X217557Y53045D01*
X217549Y53027D01*
X217531Y52860D01*
X217531Y50725D01*
X214720Y47913D01*
X210745Y47913D01*
G37*
%LPD*%
%LPC*%
G36*
X112312Y86641D02*
X112312Y86641D01*
X109501Y89452D01*
X109501Y93428D01*
X112312Y96239D01*
X115549Y96239D01*
X115639Y96253D01*
X115730Y96261D01*
X115760Y96273D01*
X115792Y96278D01*
X115873Y96321D01*
X115957Y96357D01*
X115989Y96383D01*
X116010Y96394D01*
X116032Y96417D01*
X116088Y96462D01*
X116879Y97253D01*
X116890Y97269D01*
X116906Y97281D01*
X116962Y97368D01*
X117022Y97452D01*
X117028Y97471D01*
X117039Y97488D01*
X117064Y97588D01*
X117095Y97687D01*
X117094Y97707D01*
X117099Y97727D01*
X117091Y97830D01*
X117088Y97933D01*
X117081Y97952D01*
X117080Y97972D01*
X117039Y98067D01*
X117004Y98164D01*
X116991Y98180D01*
X116983Y98198D01*
X116879Y98329D01*
X116325Y98882D01*
X116325Y104318D01*
X118082Y106075D01*
X137118Y106075D01*
X138875Y104318D01*
X138875Y102878D01*
X138886Y102807D01*
X138888Y102735D01*
X138906Y102686D01*
X138914Y102635D01*
X138948Y102571D01*
X138973Y102504D01*
X139005Y102463D01*
X139030Y102417D01*
X139082Y102368D01*
X139126Y102312D01*
X139170Y102284D01*
X139208Y102248D01*
X139273Y102218D01*
X139333Y102179D01*
X139384Y102166D01*
X139431Y102144D01*
X139502Y102137D01*
X139572Y102119D01*
X139624Y102123D01*
X139675Y102117D01*
X139746Y102133D01*
X139817Y102138D01*
X139865Y102159D01*
X139916Y102170D01*
X139977Y102206D01*
X140043Y102234D01*
X140099Y102279D01*
X140127Y102296D01*
X140142Y102314D01*
X140174Y102339D01*
X141722Y103887D01*
X165179Y103887D01*
X165269Y103901D01*
X165360Y103909D01*
X165390Y103921D01*
X165422Y103926D01*
X165503Y103969D01*
X165587Y104005D01*
X165619Y104031D01*
X165639Y104042D01*
X165661Y104065D01*
X165717Y104110D01*
X167682Y106075D01*
X186718Y106075D01*
X188475Y104318D01*
X188475Y98882D01*
X186718Y97125D01*
X167682Y97125D01*
X165717Y99090D01*
X165643Y99143D01*
X165574Y99203D01*
X165544Y99215D01*
X165518Y99234D01*
X165431Y99261D01*
X165346Y99295D01*
X165305Y99299D01*
X165283Y99306D01*
X165250Y99305D01*
X165179Y99313D01*
X143931Y99313D01*
X143841Y99299D01*
X143750Y99291D01*
X143721Y99279D01*
X143689Y99274D01*
X143608Y99231D01*
X143524Y99195D01*
X143492Y99169D01*
X143471Y99158D01*
X143449Y99135D01*
X143393Y99090D01*
X138380Y94077D01*
X120487Y94077D01*
X120396Y94063D01*
X120306Y94055D01*
X120276Y94043D01*
X120244Y94038D01*
X120163Y93995D01*
X120079Y93959D01*
X120047Y93933D01*
X120026Y93922D01*
X120004Y93899D01*
X119948Y93854D01*
X119322Y93228D01*
X119269Y93154D01*
X119209Y93084D01*
X119197Y93054D01*
X119178Y93028D01*
X119151Y92941D01*
X119117Y92856D01*
X119113Y92815D01*
X119106Y92793D01*
X119107Y92761D01*
X119099Y92689D01*
X119099Y89452D01*
X116288Y86641D01*
X112312Y86641D01*
G37*
%LPD*%
%LPC*%
G36*
X169475Y240953D02*
X169475Y240953D01*
X166143Y242333D01*
X163593Y244883D01*
X162213Y248215D01*
X162213Y251821D01*
X163593Y255153D01*
X176806Y268366D01*
X180138Y269746D01*
X183744Y269746D01*
X187076Y268366D01*
X189626Y265816D01*
X191006Y262484D01*
X191006Y258878D01*
X189626Y255546D01*
X176413Y242333D01*
X173081Y240953D01*
X169475Y240953D01*
G37*
%LPD*%
%LPC*%
G36*
X131412Y240646D02*
X131412Y240646D01*
X128080Y242026D01*
X114867Y255239D01*
X113487Y258571D01*
X113487Y262177D01*
X114867Y265509D01*
X117417Y268059D01*
X120749Y269439D01*
X124355Y269439D01*
X127687Y268059D01*
X140900Y254846D01*
X142280Y251514D01*
X142280Y247908D01*
X140900Y244576D01*
X138350Y242026D01*
X135018Y240646D01*
X131412Y240646D01*
G37*
%LPD*%
%LPC*%
G36*
X84372Y51081D02*
X84372Y51081D01*
X81561Y53892D01*
X81561Y57129D01*
X81547Y57220D01*
X81539Y57310D01*
X81533Y57325D01*
X81533Y62994D01*
X81530Y63014D01*
X81532Y63033D01*
X81510Y63135D01*
X81494Y63237D01*
X81484Y63254D01*
X81480Y63274D01*
X81427Y63363D01*
X81378Y63454D01*
X81364Y63468D01*
X81354Y63485D01*
X81275Y63552D01*
X81200Y63624D01*
X81182Y63632D01*
X81167Y63645D01*
X81071Y63684D01*
X80977Y63727D01*
X80957Y63729D01*
X80939Y63737D01*
X80772Y63755D01*
X75688Y63755D01*
X74795Y64648D01*
X74795Y78912D01*
X75688Y79805D01*
X91952Y79805D01*
X92845Y78912D01*
X92845Y64648D01*
X91952Y63755D01*
X86868Y63755D01*
X86848Y63752D01*
X86829Y63754D01*
X86727Y63732D01*
X86625Y63716D01*
X86608Y63706D01*
X86588Y63702D01*
X86499Y63649D01*
X86408Y63600D01*
X86394Y63586D01*
X86377Y63576D01*
X86310Y63497D01*
X86238Y63422D01*
X86230Y63404D01*
X86217Y63389D01*
X86178Y63293D01*
X86135Y63199D01*
X86133Y63179D01*
X86125Y63161D01*
X86107Y62994D01*
X86107Y61440D01*
X86110Y61420D01*
X86108Y61401D01*
X86130Y61299D01*
X86146Y61197D01*
X86156Y61180D01*
X86160Y61160D01*
X86213Y61071D01*
X86262Y60980D01*
X86276Y60966D01*
X86286Y60949D01*
X86365Y60882D01*
X86440Y60810D01*
X86458Y60802D01*
X86473Y60789D01*
X86569Y60750D01*
X86663Y60707D01*
X86683Y60705D01*
X86701Y60697D01*
X86868Y60679D01*
X88348Y60679D01*
X91159Y57868D01*
X91159Y53892D01*
X88348Y51081D01*
X84372Y51081D01*
G37*
%LPD*%
%LPC*%
G36*
X121408Y38355D02*
X121408Y38355D01*
X120515Y39248D01*
X120515Y53512D01*
X121408Y54405D01*
X137672Y54405D01*
X138565Y53512D01*
X138565Y49428D01*
X138568Y49408D01*
X138566Y49389D01*
X138588Y49287D01*
X138604Y49185D01*
X138614Y49168D01*
X138618Y49148D01*
X138671Y49059D01*
X138720Y48968D01*
X138734Y48954D01*
X138744Y48937D01*
X138823Y48870D01*
X138898Y48798D01*
X138916Y48790D01*
X138931Y48777D01*
X139027Y48738D01*
X139121Y48695D01*
X139141Y48693D01*
X139159Y48685D01*
X139326Y48667D01*
X140625Y48667D01*
X140715Y48681D01*
X140806Y48689D01*
X140836Y48701D01*
X140868Y48706D01*
X140948Y48749D01*
X141032Y48785D01*
X141064Y48811D01*
X141085Y48822D01*
X141107Y48845D01*
X141163Y48890D01*
X142792Y50519D01*
X146768Y50519D01*
X149579Y47708D01*
X149579Y43732D01*
X146768Y40921D01*
X142792Y40921D01*
X139864Y43849D01*
X139806Y43891D01*
X139754Y43941D01*
X139707Y43962D01*
X139665Y43993D01*
X139596Y44014D01*
X139531Y44044D01*
X139479Y44050D01*
X139429Y44065D01*
X139358Y44063D01*
X139287Y44071D01*
X139236Y44060D01*
X139184Y44059D01*
X139116Y44034D01*
X139046Y44019D01*
X139001Y43992D01*
X138953Y43974D01*
X138897Y43930D01*
X138835Y43893D01*
X138801Y43853D01*
X138761Y43821D01*
X138722Y43760D01*
X138675Y43706D01*
X138656Y43658D01*
X138628Y43614D01*
X138610Y43544D01*
X138583Y43478D01*
X138575Y43406D01*
X138567Y43375D01*
X138569Y43352D01*
X138565Y43311D01*
X138565Y39248D01*
X137672Y38355D01*
X121408Y38355D01*
G37*
%LPD*%
%LPC*%
G36*
X167128Y35815D02*
X167128Y35815D01*
X166235Y36708D01*
X166235Y37592D01*
X166232Y37612D01*
X166234Y37631D01*
X166212Y37733D01*
X166196Y37835D01*
X166186Y37852D01*
X166182Y37872D01*
X166129Y37961D01*
X166080Y38052D01*
X166066Y38066D01*
X166056Y38083D01*
X165977Y38150D01*
X165902Y38222D01*
X165884Y38230D01*
X165869Y38243D01*
X165773Y38282D01*
X165679Y38325D01*
X165659Y38327D01*
X165641Y38335D01*
X165474Y38353D01*
X164835Y38353D01*
X164745Y38339D01*
X164654Y38331D01*
X164624Y38319D01*
X164592Y38314D01*
X164512Y38271D01*
X164428Y38235D01*
X164396Y38209D01*
X164375Y38198D01*
X164353Y38175D01*
X164297Y38130D01*
X162008Y35841D01*
X158032Y35841D01*
X155221Y38652D01*
X155221Y42628D01*
X158032Y45439D01*
X162008Y45439D01*
X164297Y43150D01*
X164371Y43097D01*
X164440Y43037D01*
X164470Y43025D01*
X164496Y43006D01*
X164583Y42979D01*
X164668Y42945D01*
X164709Y42941D01*
X164732Y42934D01*
X164764Y42935D01*
X164835Y42927D01*
X165474Y42927D01*
X165494Y42930D01*
X165513Y42928D01*
X165615Y42950D01*
X165717Y42966D01*
X165734Y42976D01*
X165754Y42980D01*
X165843Y43033D01*
X165934Y43082D01*
X165948Y43096D01*
X165965Y43106D01*
X166032Y43185D01*
X166104Y43260D01*
X166112Y43278D01*
X166125Y43293D01*
X166164Y43389D01*
X166207Y43483D01*
X166209Y43503D01*
X166217Y43521D01*
X166235Y43688D01*
X166235Y50972D01*
X167128Y51865D01*
X183392Y51865D01*
X184285Y50972D01*
X184285Y36708D01*
X183392Y35815D01*
X167128Y35815D01*
G37*
%LPD*%
%LPC*%
G36*
X145332Y109501D02*
X145332Y109501D01*
X142521Y112312D01*
X142521Y116288D01*
X145332Y119099D01*
X149308Y119099D01*
X151597Y116810D01*
X151671Y116757D01*
X151740Y116697D01*
X151770Y116685D01*
X151796Y116666D01*
X151883Y116639D01*
X151968Y116605D01*
X152009Y116601D01*
X152032Y116594D01*
X152064Y116595D01*
X152135Y116587D01*
X165179Y116587D01*
X165269Y116601D01*
X165360Y116609D01*
X165390Y116621D01*
X165422Y116626D01*
X165503Y116669D01*
X165587Y116705D01*
X165619Y116731D01*
X165639Y116742D01*
X165661Y116765D01*
X165717Y116810D01*
X167682Y118775D01*
X186718Y118775D01*
X188475Y117018D01*
X188475Y111582D01*
X186718Y109825D01*
X167682Y109825D01*
X165717Y111790D01*
X165643Y111843D01*
X165574Y111903D01*
X165544Y111915D01*
X165518Y111934D01*
X165431Y111961D01*
X165346Y111995D01*
X165305Y111999D01*
X165283Y112006D01*
X165250Y112005D01*
X165179Y112013D01*
X152135Y112013D01*
X152045Y111999D01*
X151954Y111991D01*
X151924Y111979D01*
X151892Y111974D01*
X151812Y111931D01*
X151728Y111895D01*
X151696Y111869D01*
X151675Y111858D01*
X151653Y111835D01*
X151597Y111790D01*
X149308Y109501D01*
X145332Y109501D01*
G37*
%LPD*%
%LPC*%
G36*
X58989Y160273D02*
X58989Y160273D01*
X55348Y161781D01*
X52561Y164568D01*
X51053Y168209D01*
X51053Y172151D01*
X52561Y175792D01*
X55348Y178579D01*
X58989Y180087D01*
X62931Y180087D01*
X66572Y178579D01*
X69359Y175792D01*
X70867Y172151D01*
X70867Y168209D01*
X69359Y164568D01*
X66572Y161781D01*
X62931Y160273D01*
X58989Y160273D01*
G37*
%LPD*%
%LPC*%
G36*
X152952Y122201D02*
X152952Y122201D01*
X150141Y125012D01*
X150141Y128988D01*
X152952Y131799D01*
X156928Y131799D01*
X159217Y129510D01*
X159291Y129457D01*
X159360Y129397D01*
X159390Y129385D01*
X159416Y129366D01*
X159503Y129339D01*
X159588Y129305D01*
X159629Y129301D01*
X159652Y129294D01*
X159684Y129295D01*
X159755Y129287D01*
X165179Y129287D01*
X165269Y129301D01*
X165360Y129309D01*
X165390Y129321D01*
X165422Y129326D01*
X165503Y129369D01*
X165587Y129405D01*
X165619Y129431D01*
X165639Y129442D01*
X165661Y129465D01*
X165717Y129510D01*
X167682Y131475D01*
X186718Y131475D01*
X188475Y129718D01*
X188475Y124282D01*
X186718Y122525D01*
X167682Y122525D01*
X165717Y124490D01*
X165643Y124543D01*
X165574Y124603D01*
X165544Y124615D01*
X165518Y124634D01*
X165431Y124661D01*
X165346Y124695D01*
X165305Y124699D01*
X165283Y124706D01*
X165250Y124705D01*
X165179Y124713D01*
X159755Y124713D01*
X159665Y124699D01*
X159574Y124691D01*
X159544Y124679D01*
X159512Y124674D01*
X159432Y124631D01*
X159348Y124595D01*
X159316Y124569D01*
X159295Y124558D01*
X159273Y124535D01*
X159217Y124490D01*
X156928Y122201D01*
X152952Y122201D01*
G37*
%LPD*%
%LPC*%
G36*
X160572Y160301D02*
X160572Y160301D01*
X157761Y163112D01*
X157761Y167088D01*
X160572Y169899D01*
X164548Y169899D01*
X165739Y168708D01*
X165755Y168696D01*
X165767Y168680D01*
X165855Y168624D01*
X165939Y168564D01*
X165958Y168558D01*
X165974Y168547D01*
X166075Y168522D01*
X166174Y168492D01*
X166194Y168492D01*
X166213Y168487D01*
X166316Y168495D01*
X166419Y168498D01*
X166438Y168505D01*
X166458Y168506D01*
X166553Y168547D01*
X166651Y168583D01*
X166666Y168595D01*
X166684Y168603D01*
X166815Y168708D01*
X167682Y169575D01*
X186718Y169575D01*
X188475Y167818D01*
X188475Y162382D01*
X186718Y160625D01*
X167682Y160625D01*
X166815Y161492D01*
X166799Y161504D01*
X166787Y161520D01*
X166700Y161576D01*
X166616Y161636D01*
X166597Y161642D01*
X166580Y161653D01*
X166479Y161678D01*
X166381Y161708D01*
X166361Y161708D01*
X166341Y161713D01*
X166238Y161705D01*
X166135Y161702D01*
X166116Y161695D01*
X166096Y161694D01*
X166001Y161653D01*
X165904Y161617D01*
X165888Y161605D01*
X165870Y161597D01*
X165739Y161492D01*
X164548Y160301D01*
X160572Y160301D01*
G37*
%LPD*%
%LPC*%
G36*
X153923Y64338D02*
X153923Y64338D01*
X153920Y64358D01*
X153922Y64377D01*
X153900Y64479D01*
X153883Y64581D01*
X153874Y64598D01*
X153870Y64618D01*
X153817Y64707D01*
X153768Y64798D01*
X153754Y64812D01*
X153744Y64829D01*
X153665Y64896D01*
X153590Y64967D01*
X153572Y64976D01*
X153557Y64989D01*
X153461Y65027D01*
X153367Y65071D01*
X153347Y65073D01*
X153329Y65081D01*
X153162Y65099D01*
X152399Y65099D01*
X152399Y65101D01*
X153162Y65101D01*
X153182Y65104D01*
X153201Y65102D01*
X153303Y65124D01*
X153405Y65141D01*
X153422Y65150D01*
X153442Y65154D01*
X153531Y65207D01*
X153622Y65256D01*
X153636Y65270D01*
X153653Y65280D01*
X153720Y65359D01*
X153791Y65434D01*
X153800Y65452D01*
X153813Y65467D01*
X153852Y65563D01*
X153895Y65657D01*
X153897Y65677D01*
X153905Y65695D01*
X153923Y65862D01*
X153923Y76316D01*
X155050Y76137D01*
X156744Y75587D01*
X158331Y74778D01*
X159772Y73731D01*
X161031Y72472D01*
X162078Y71031D01*
X162887Y69444D01*
X163437Y67750D01*
X163706Y66051D01*
X163726Y65990D01*
X163737Y65927D01*
X163765Y65874D01*
X163783Y65817D01*
X163822Y65766D01*
X163852Y65710D01*
X163895Y65669D01*
X163931Y65621D01*
X163984Y65585D01*
X164030Y65541D01*
X164084Y65515D01*
X164134Y65481D01*
X164195Y65464D01*
X164253Y65437D01*
X164313Y65430D01*
X164370Y65414D01*
X164434Y65417D01*
X164497Y65410D01*
X164556Y65423D01*
X164616Y65425D01*
X164675Y65448D01*
X164738Y65462D01*
X164789Y65493D01*
X164845Y65515D01*
X164894Y65555D01*
X164949Y65588D01*
X164988Y65634D01*
X165034Y65672D01*
X165067Y65727D01*
X165109Y65775D01*
X165131Y65831D01*
X165163Y65882D01*
X165177Y65944D01*
X165201Y66003D01*
X165210Y66089D01*
X165218Y66122D01*
X165217Y66146D01*
X165219Y66170D01*
X165219Y69674D01*
X165392Y70321D01*
X165727Y70900D01*
X166200Y71373D01*
X166779Y71708D01*
X167426Y71881D01*
X173737Y71881D01*
X173737Y64363D01*
X165138Y64363D01*
X165129Y64390D01*
X165092Y64437D01*
X165064Y64490D01*
X165018Y64534D01*
X164979Y64585D01*
X164930Y64618D01*
X164886Y64659D01*
X164828Y64686D01*
X164775Y64722D01*
X164717Y64738D01*
X164663Y64763D01*
X164600Y64770D01*
X164538Y64787D01*
X164478Y64784D01*
X164419Y64790D01*
X164356Y64777D01*
X164292Y64773D01*
X164237Y64751D01*
X164178Y64738D01*
X164123Y64705D01*
X164064Y64681D01*
X164019Y64642D01*
X163967Y64612D01*
X163926Y64563D01*
X163877Y64522D01*
X163846Y64470D01*
X163807Y64425D01*
X163783Y64366D01*
X163750Y64311D01*
X163728Y64227D01*
X163715Y64197D01*
X163713Y64172D01*
X163706Y64149D01*
X163437Y62450D01*
X162887Y60756D01*
X162078Y59169D01*
X161031Y57728D01*
X159772Y56469D01*
X158331Y55422D01*
X156744Y54613D01*
X155050Y54063D01*
X153923Y53884D01*
X153923Y64338D01*
G37*
%LPD*%
%LPC*%
G36*
X118082Y109825D02*
X118082Y109825D01*
X116325Y111582D01*
X116325Y117018D01*
X118082Y118775D01*
X137118Y118775D01*
X138875Y117018D01*
X138875Y111582D01*
X137118Y109825D01*
X118082Y109825D01*
G37*
%LPD*%
%LPC*%
G36*
X211597Y215400D02*
X211597Y215400D01*
X209009Y216472D01*
X207028Y218452D01*
X205956Y221040D01*
X205956Y223841D01*
X207028Y226429D01*
X209009Y228410D01*
X211597Y229481D01*
X214398Y229481D01*
X216985Y228410D01*
X218966Y226429D01*
X220038Y223841D01*
X220038Y221040D01*
X218966Y218452D01*
X216985Y216472D01*
X214398Y215400D01*
X211597Y215400D01*
G37*
%LPD*%
%LPC*%
G36*
X90095Y215093D02*
X90095Y215093D01*
X87508Y216165D01*
X85527Y218145D01*
X84455Y220733D01*
X84455Y223534D01*
X85527Y226122D01*
X87508Y228103D01*
X90095Y229174D01*
X92896Y229174D01*
X95484Y228103D01*
X97465Y226122D01*
X98537Y223534D01*
X98537Y220733D01*
X97465Y218145D01*
X95484Y216165D01*
X92896Y215093D01*
X90095Y215093D01*
G37*
%LPD*%
%LPC*%
G36*
X141184Y66623D02*
X141184Y66623D01*
X141363Y67750D01*
X141913Y69444D01*
X142722Y71031D01*
X143769Y72472D01*
X145028Y73731D01*
X146469Y74778D01*
X148056Y75587D01*
X149750Y76137D01*
X150877Y76316D01*
X150877Y66623D01*
X141184Y66623D01*
G37*
%LPD*%
%LPC*%
G36*
X149750Y54063D02*
X149750Y54063D01*
X148056Y54613D01*
X146469Y55422D01*
X145028Y56469D01*
X143769Y57728D01*
X142722Y59169D01*
X141913Y60756D01*
X141363Y62450D01*
X141184Y63577D01*
X150877Y63577D01*
X150877Y53884D01*
X149750Y54063D01*
G37*
%LPD*%
%LPC*%
G36*
X62483Y120903D02*
X62483Y120903D01*
X62483Y130198D01*
X63518Y130034D01*
X65153Y129502D01*
X66685Y128722D01*
X68076Y127711D01*
X69291Y126496D01*
X70302Y125105D01*
X71082Y123573D01*
X71614Y121938D01*
X71778Y120903D01*
X62483Y120903D01*
G37*
%LPD*%
%LPC*%
G36*
X50142Y120903D02*
X50142Y120903D01*
X50306Y121938D01*
X50838Y123573D01*
X51618Y125105D01*
X52629Y126496D01*
X53844Y127711D01*
X55235Y128722D01*
X56767Y129502D01*
X58402Y130034D01*
X59437Y130198D01*
X59437Y120903D01*
X50142Y120903D01*
G37*
%LPD*%
%LPC*%
G36*
X62483Y117857D02*
X62483Y117857D01*
X71778Y117857D01*
X71614Y116822D01*
X71082Y115187D01*
X70302Y113655D01*
X69291Y112264D01*
X68076Y111049D01*
X66685Y110038D01*
X65153Y109258D01*
X63518Y108726D01*
X62483Y108562D01*
X62483Y117857D01*
G37*
%LPD*%
%LPC*%
G36*
X58402Y108726D02*
X58402Y108726D01*
X56767Y109258D01*
X55235Y110038D01*
X53844Y111049D01*
X52629Y112264D01*
X51618Y113655D01*
X50838Y115187D01*
X50306Y116822D01*
X50142Y117857D01*
X59437Y117857D01*
X59437Y108562D01*
X58402Y108726D01*
G37*
%LPD*%
%LPC*%
G36*
X176783Y64363D02*
X176783Y64363D01*
X176783Y71881D01*
X183094Y71881D01*
X183741Y71708D01*
X184320Y71373D01*
X184793Y70900D01*
X185128Y70321D01*
X185301Y69674D01*
X185301Y64363D01*
X176783Y64363D01*
G37*
%LPD*%
%LPC*%
G36*
X131063Y66903D02*
X131063Y66903D01*
X131063Y74421D01*
X137374Y74421D01*
X138021Y74248D01*
X138600Y73913D01*
X139073Y73440D01*
X139408Y72861D01*
X139581Y72214D01*
X139581Y66903D01*
X131063Y66903D01*
G37*
%LPD*%
%LPC*%
G36*
X224383Y174243D02*
X224383Y174243D01*
X224383Y182761D01*
X229694Y182761D01*
X230341Y182588D01*
X230920Y182253D01*
X231393Y181780D01*
X231728Y181201D01*
X231901Y180554D01*
X231901Y174243D01*
X224383Y174243D01*
G37*
%LPD*%
%LPC*%
G36*
X108203Y77063D02*
X108203Y77063D01*
X108203Y84581D01*
X114514Y84581D01*
X115161Y84408D01*
X115740Y84073D01*
X116213Y83600D01*
X116548Y83021D01*
X116721Y82374D01*
X116721Y77063D01*
X108203Y77063D01*
G37*
%LPD*%
%LPC*%
G36*
X222503Y94843D02*
X222503Y94843D01*
X222503Y102361D01*
X228814Y102361D01*
X229461Y102188D01*
X230040Y101853D01*
X230513Y101380D01*
X230848Y100801D01*
X231021Y100154D01*
X231021Y94843D01*
X222503Y94843D01*
G37*
%LPD*%
%LPC*%
G36*
X199643Y77063D02*
X199643Y77063D01*
X199643Y84581D01*
X205954Y84581D01*
X206601Y84408D01*
X207180Y84073D01*
X207653Y83600D01*
X207988Y83021D01*
X208161Y82374D01*
X208161Y77063D01*
X199643Y77063D01*
G37*
%LPD*%
%LPC*%
G36*
X85343Y92303D02*
X85343Y92303D01*
X85343Y99821D01*
X91654Y99821D01*
X92301Y99648D01*
X92880Y99313D01*
X93353Y98840D01*
X93688Y98261D01*
X93861Y97614D01*
X93861Y92303D01*
X85343Y92303D01*
G37*
%LPD*%
%LPC*%
G36*
X119499Y66903D02*
X119499Y66903D01*
X119499Y72214D01*
X119672Y72861D01*
X120007Y73440D01*
X120480Y73913D01*
X121059Y74248D01*
X121706Y74421D01*
X128017Y74421D01*
X128017Y66903D01*
X119499Y66903D01*
G37*
%LPD*%
%LPC*%
G36*
X224383Y162679D02*
X224383Y162679D01*
X224383Y171197D01*
X231901Y171197D01*
X231901Y164886D01*
X231728Y164239D01*
X231393Y163660D01*
X230920Y163187D01*
X230341Y162852D01*
X229694Y162679D01*
X224383Y162679D01*
G37*
%LPD*%
%LPC*%
G36*
X210939Y94843D02*
X210939Y94843D01*
X210939Y100154D01*
X211112Y100801D01*
X211447Y101380D01*
X211920Y101853D01*
X212499Y102188D01*
X213146Y102361D01*
X219457Y102361D01*
X219457Y94843D01*
X210939Y94843D01*
G37*
%LPD*%
%LPC*%
G36*
X73779Y92303D02*
X73779Y92303D01*
X73779Y97614D01*
X73952Y98261D01*
X74287Y98840D01*
X74760Y99313D01*
X75339Y99648D01*
X75986Y99821D01*
X82297Y99821D01*
X82297Y92303D01*
X73779Y92303D01*
G37*
%LPD*%
%LPC*%
G36*
X188079Y77063D02*
X188079Y77063D01*
X188079Y82374D01*
X188252Y83021D01*
X188587Y83600D01*
X189060Y84073D01*
X189639Y84408D01*
X190286Y84581D01*
X196597Y84581D01*
X196597Y77063D01*
X188079Y77063D01*
G37*
%LPD*%
%LPC*%
G36*
X96639Y77063D02*
X96639Y77063D01*
X96639Y82374D01*
X96812Y83021D01*
X97147Y83600D01*
X97620Y84073D01*
X98199Y84408D01*
X98846Y84581D01*
X105157Y84581D01*
X105157Y77063D01*
X96639Y77063D01*
G37*
%LPD*%
%LPC*%
G36*
X85343Y81739D02*
X85343Y81739D01*
X85343Y89257D01*
X93861Y89257D01*
X93861Y83946D01*
X93688Y83299D01*
X93353Y82720D01*
X92880Y82247D01*
X92301Y81912D01*
X91654Y81739D01*
X85343Y81739D01*
G37*
%LPD*%
%LPC*%
G36*
X213819Y174243D02*
X213819Y174243D01*
X213819Y180554D01*
X213992Y181201D01*
X214327Y181780D01*
X214800Y182253D01*
X215379Y182588D01*
X216026Y182761D01*
X221337Y182761D01*
X221337Y174243D01*
X213819Y174243D01*
G37*
%LPD*%
%LPC*%
G36*
X222503Y84279D02*
X222503Y84279D01*
X222503Y91797D01*
X231021Y91797D01*
X231021Y86486D01*
X230848Y85839D01*
X230513Y85260D01*
X230040Y84787D01*
X229461Y84452D01*
X228814Y84279D01*
X222503Y84279D01*
G37*
%LPD*%
%LPC*%
G36*
X199643Y66499D02*
X199643Y66499D01*
X199643Y74017D01*
X208161Y74017D01*
X208161Y68706D01*
X207988Y68059D01*
X207653Y67480D01*
X207180Y67007D01*
X206601Y66672D01*
X205954Y66499D01*
X199643Y66499D01*
G37*
%LPD*%
%LPC*%
G36*
X108203Y66499D02*
X108203Y66499D01*
X108203Y74017D01*
X116721Y74017D01*
X116721Y68706D01*
X116548Y68059D01*
X116213Y67480D01*
X115740Y67007D01*
X115161Y66672D01*
X114514Y66499D01*
X108203Y66499D01*
G37*
%LPD*%
%LPC*%
G36*
X131063Y56339D02*
X131063Y56339D01*
X131063Y63857D01*
X139581Y63857D01*
X139581Y58546D01*
X139408Y57899D01*
X139073Y57320D01*
X138600Y56847D01*
X138021Y56512D01*
X137374Y56339D01*
X131063Y56339D01*
G37*
%LPD*%
%LPC*%
G36*
X176783Y53799D02*
X176783Y53799D01*
X176783Y61317D01*
X185301Y61317D01*
X185301Y56006D01*
X185128Y55359D01*
X184793Y54780D01*
X184320Y54307D01*
X183741Y53972D01*
X183094Y53799D01*
X176783Y53799D01*
G37*
%LPD*%
%LPC*%
G36*
X213146Y84279D02*
X213146Y84279D01*
X212499Y84452D01*
X211920Y84787D01*
X211447Y85260D01*
X211112Y85839D01*
X210939Y86486D01*
X210939Y91797D01*
X219457Y91797D01*
X219457Y84279D01*
X213146Y84279D01*
G37*
%LPD*%
%LPC*%
G36*
X75986Y81739D02*
X75986Y81739D01*
X75339Y81912D01*
X74760Y82247D01*
X74287Y82720D01*
X73952Y83299D01*
X73779Y83946D01*
X73779Y89257D01*
X82297Y89257D01*
X82297Y81739D01*
X75986Y81739D01*
G37*
%LPD*%
%LPC*%
G36*
X216026Y162679D02*
X216026Y162679D01*
X215379Y162852D01*
X214800Y163187D01*
X214327Y163660D01*
X213992Y164239D01*
X213819Y164886D01*
X213819Y171197D01*
X221337Y171197D01*
X221337Y162679D01*
X216026Y162679D01*
G37*
%LPD*%
%LPC*%
G36*
X190286Y66499D02*
X190286Y66499D01*
X189639Y66672D01*
X189060Y67007D01*
X188587Y67480D01*
X188252Y68059D01*
X188079Y68706D01*
X188079Y74017D01*
X196597Y74017D01*
X196597Y66499D01*
X190286Y66499D01*
G37*
%LPD*%
%LPC*%
G36*
X98846Y66499D02*
X98846Y66499D01*
X98199Y66672D01*
X97620Y67007D01*
X97147Y67480D01*
X96812Y68059D01*
X96639Y68706D01*
X96639Y74017D01*
X105157Y74017D01*
X105157Y66499D01*
X98846Y66499D01*
G37*
%LPD*%
%LPC*%
G36*
X121706Y56339D02*
X121706Y56339D01*
X121059Y56512D01*
X120480Y56847D01*
X120007Y57320D01*
X119672Y57899D01*
X119499Y58546D01*
X119499Y63857D01*
X128017Y63857D01*
X128017Y56339D01*
X121706Y56339D01*
G37*
%LPD*%
%LPC*%
G36*
X167426Y53799D02*
X167426Y53799D01*
X166779Y53972D01*
X166200Y54307D01*
X165727Y54780D01*
X165392Y55359D01*
X165219Y56006D01*
X165219Y61317D01*
X173737Y61317D01*
X173737Y53799D01*
X167426Y53799D01*
G37*
%LPD*%
%LPC*%
G36*
X128923Y211223D02*
X128923Y211223D01*
X128923Y219665D01*
X129761Y219533D01*
X131270Y219042D01*
X132683Y218322D01*
X133967Y217389D01*
X135089Y216267D01*
X136022Y214983D01*
X136742Y213570D01*
X137233Y212061D01*
X137365Y211223D01*
X128923Y211223D01*
G37*
%LPD*%
%LPC*%
G36*
X128923Y208177D02*
X128923Y208177D01*
X137365Y208177D01*
X137233Y207339D01*
X136742Y205830D01*
X136022Y204417D01*
X135089Y203133D01*
X133967Y202011D01*
X132683Y201078D01*
X131270Y200358D01*
X129761Y199867D01*
X128923Y199735D01*
X128923Y208177D01*
G37*
%LPD*%
%LPC*%
G36*
X117435Y211223D02*
X117435Y211223D01*
X117567Y212061D01*
X118058Y213570D01*
X118778Y214983D01*
X119711Y216267D01*
X120833Y217389D01*
X122117Y218322D01*
X123530Y219042D01*
X125039Y219533D01*
X125877Y219665D01*
X125877Y211223D01*
X117435Y211223D01*
G37*
%LPD*%
%LPC*%
G36*
X125039Y199867D02*
X125039Y199867D01*
X123530Y200358D01*
X122117Y201078D01*
X120833Y202011D01*
X119711Y203133D01*
X118778Y204417D01*
X118058Y205830D01*
X117567Y207339D01*
X117435Y208177D01*
X125877Y208177D01*
X125877Y199735D01*
X125039Y199867D01*
G37*
%LPD*%
%LPC*%
G36*
X129074Y179274D02*
X129074Y179274D01*
X129074Y183291D01*
X136404Y183291D01*
X137425Y183017D01*
X138341Y182488D01*
X139088Y181741D01*
X139617Y180825D01*
X139891Y179804D01*
X139891Y179274D01*
X129074Y179274D01*
G37*
%LPD*%
%LPC*%
G36*
X115309Y179274D02*
X115309Y179274D01*
X115309Y179804D01*
X115583Y180825D01*
X116112Y181741D01*
X116859Y182488D01*
X117775Y183017D01*
X118796Y183291D01*
X126126Y183291D01*
X126126Y179274D01*
X115309Y179274D01*
G37*
%LPD*%
%LPC*%
G36*
X129074Y172309D02*
X129074Y172309D01*
X129074Y176326D01*
X139891Y176326D01*
X139891Y175796D01*
X139617Y174775D01*
X139088Y173859D01*
X138341Y173112D01*
X137425Y172583D01*
X136404Y172309D01*
X129074Y172309D01*
G37*
%LPD*%
%LPC*%
G36*
X118796Y172309D02*
X118796Y172309D01*
X117775Y172583D01*
X116859Y173112D01*
X116112Y173859D01*
X115583Y174775D01*
X115309Y175796D01*
X115309Y176326D01*
X126126Y176326D01*
X126126Y172309D01*
X118796Y172309D01*
G37*
%LPD*%
%LPC*%
G36*
X60959Y119379D02*
X60959Y119379D01*
X60959Y119381D01*
X60961Y119381D01*
X60961Y119379D01*
X60959Y119379D01*
G37*
%LPD*%
%LPC*%
G36*
X127399Y209699D02*
X127399Y209699D01*
X127399Y209701D01*
X127401Y209701D01*
X127401Y209699D01*
X127399Y209699D01*
G37*
%LPD*%
%LPC*%
G36*
X83819Y90779D02*
X83819Y90779D01*
X83819Y90781D01*
X83821Y90781D01*
X83821Y90779D01*
X83819Y90779D01*
G37*
%LPD*%
%LPC*%
G36*
X222859Y172719D02*
X222859Y172719D01*
X222859Y172721D01*
X222861Y172721D01*
X222861Y172719D01*
X222859Y172719D01*
G37*
%LPD*%
%LPC*%
G36*
X220979Y93319D02*
X220979Y93319D01*
X220979Y93321D01*
X220981Y93321D01*
X220981Y93319D01*
X220979Y93319D01*
G37*
%LPD*%
%LPC*%
G36*
X198119Y75539D02*
X198119Y75539D01*
X198119Y75541D01*
X198121Y75541D01*
X198121Y75539D01*
X198119Y75539D01*
G37*
%LPD*%
%LPC*%
G36*
X106679Y75539D02*
X106679Y75539D01*
X106679Y75541D01*
X106681Y75541D01*
X106681Y75539D01*
X106679Y75539D01*
G37*
%LPD*%
%LPC*%
G36*
X175259Y62839D02*
X175259Y62839D01*
X175259Y62841D01*
X175261Y62841D01*
X175261Y62839D01*
X175259Y62839D01*
G37*
%LPD*%
%LPC*%
G36*
X129539Y65379D02*
X129539Y65379D01*
X129539Y65381D01*
X129541Y65381D01*
X129541Y65379D01*
X129539Y65379D01*
G37*
%LPD*%
D10*
X152400Y265100D03*
D11*
X152400Y65100D03*
D12*
X203860Y172720D03*
X222860Y172720D03*
D13*
X60960Y170180D03*
X60960Y144780D03*
X60960Y119380D03*
D14*
X220980Y74320D03*
X220980Y93320D03*
X198120Y56540D03*
X198120Y75540D03*
X175260Y43840D03*
X175260Y62840D03*
X129540Y46380D03*
X129540Y65380D03*
X106680Y56540D03*
X106680Y75540D03*
X83820Y71780D03*
X83820Y90780D03*
D15*
X177400Y209700D03*
X152400Y209700D03*
X127400Y209700D03*
D16*
X207400Y139700D03*
X97400Y139700D03*
D17*
X171278Y250018D02*
X181941Y260681D01*
X234974Y207648D02*
X224311Y196985D01*
X80182Y196678D02*
X69519Y207341D01*
X122552Y260374D02*
X133215Y249711D01*
D18*
X168925Y179275D02*
X185475Y179275D01*
X185475Y176325D01*
X168925Y176325D01*
X168925Y179275D01*
X168925Y179127D02*
X185475Y179127D01*
X185475Y166575D02*
X168925Y166575D01*
X185475Y166575D02*
X185475Y163625D01*
X168925Y163625D01*
X168925Y166575D01*
X168925Y166427D02*
X185475Y166427D01*
X185475Y153875D02*
X168925Y153875D01*
X185475Y153875D02*
X185475Y150925D01*
X168925Y150925D01*
X168925Y153875D01*
X168925Y153727D02*
X185475Y153727D01*
X185475Y141175D02*
X168925Y141175D01*
X185475Y141175D02*
X185475Y138225D01*
X168925Y138225D01*
X168925Y141175D01*
X168925Y141027D02*
X185475Y141027D01*
X185475Y128475D02*
X168925Y128475D01*
X185475Y128475D02*
X185475Y125525D01*
X168925Y125525D01*
X168925Y128475D01*
X168925Y128327D02*
X185475Y128327D01*
X185475Y115775D02*
X168925Y115775D01*
X185475Y115775D02*
X185475Y112825D01*
X168925Y112825D01*
X168925Y115775D01*
X168925Y115627D02*
X185475Y115627D01*
X185475Y103075D02*
X168925Y103075D01*
X185475Y103075D02*
X185475Y100125D01*
X168925Y100125D01*
X168925Y103075D01*
X168925Y102927D02*
X185475Y102927D01*
X135875Y103075D02*
X119325Y103075D01*
X135875Y103075D02*
X135875Y100125D01*
X119325Y100125D01*
X119325Y103075D01*
X119325Y102927D02*
X135875Y102927D01*
X135875Y115775D02*
X119325Y115775D01*
X135875Y115775D02*
X135875Y112825D01*
X119325Y112825D01*
X119325Y115775D01*
X119325Y115627D02*
X135875Y115627D01*
X135875Y128475D02*
X119325Y128475D01*
X135875Y128475D02*
X135875Y125525D01*
X119325Y125525D01*
X119325Y128475D01*
X119325Y128327D02*
X135875Y128327D01*
X135875Y141175D02*
X119325Y141175D01*
X135875Y141175D02*
X135875Y138225D01*
X119325Y138225D01*
X119325Y141175D01*
X119325Y141027D02*
X135875Y141027D01*
X135875Y153875D02*
X119325Y153875D01*
X135875Y153875D02*
X135875Y150925D01*
X119325Y150925D01*
X119325Y153875D01*
X119325Y153727D02*
X135875Y153727D01*
X135875Y166575D02*
X119325Y166575D01*
X135875Y166575D02*
X135875Y163625D01*
X119325Y163625D01*
X119325Y166575D01*
X119325Y166427D02*
X135875Y166427D01*
X135875Y179275D02*
X119325Y179275D01*
X135875Y179275D02*
X135875Y176325D01*
X119325Y176325D01*
X119325Y179275D01*
X119325Y179127D02*
X135875Y179127D01*
D19*
X198780Y177800D02*
X203860Y172720D01*
X198780Y177800D02*
X177800Y177800D01*
X177200Y177800D01*
X177800Y209300D02*
X177400Y209700D01*
X177800Y209300D02*
X177800Y177800D01*
D20*
X101600Y177800D03*
D19*
X120136Y147164D02*
X127600Y139700D01*
X120136Y147164D02*
X117767Y147164D01*
X101600Y163331D01*
X101600Y177800D01*
X110674Y127000D02*
X127600Y127000D01*
X110674Y127000D02*
X105008Y121334D01*
X84406Y121334D01*
X60960Y144780D01*
D20*
X218440Y58420D03*
D19*
X218440Y71780D01*
X220980Y74320D01*
X201948Y52712D02*
X198120Y56540D01*
X201948Y52712D02*
X212732Y52712D01*
D20*
X212732Y52712D03*
X160020Y40640D03*
D19*
X172060Y40640D01*
X175260Y43840D01*
X144120Y46380D02*
X129540Y46380D01*
X144120Y46380D02*
X144780Y45720D01*
D20*
X144780Y45720D03*
X109220Y40640D03*
D19*
X106680Y43180D01*
X106680Y56540D01*
X83820Y58420D02*
X83820Y71780D01*
X83820Y58420D02*
X86360Y55880D01*
D20*
X86360Y55880D03*
D19*
X127600Y165100D02*
X144780Y165100D01*
D20*
X144780Y165100D03*
D19*
X177200Y152400D02*
X187960Y152400D01*
X193040Y157480D01*
D20*
X193040Y157480D03*
D19*
X177200Y165100D02*
X162560Y165100D01*
D20*
X162560Y165100D03*
D19*
X154940Y127000D02*
X177200Y127000D01*
D20*
X154940Y127000D03*
D19*
X147320Y114300D02*
X177200Y114300D01*
D20*
X147320Y114300D03*
X114300Y91440D03*
D19*
X119224Y96364D02*
X137433Y96364D01*
X119224Y96364D02*
X114300Y91440D01*
X142669Y101600D02*
X177200Y101600D01*
X142669Y101600D02*
X137433Y96364D01*
X177200Y139700D02*
X169736Y147164D01*
X167367Y147164D01*
X152400Y162131D01*
X152400Y209700D01*
M02*
