G04 EAGLE Gerber RS-274X export*
G75*
%MOMM*%
%FSLAX34Y34*%
%LPD*%
%INMechanical*%
%IPPOS*%
%AMOC8*
5,1,8,0,0,1.08239X$1,22.5*%
G01*
%ADD10C,0.152400*%
%ADD11C,0.000000*%
%ADD12C,0.254000*%


D10*
X203200Y246380D02*
X203200Y266700D01*
X182880Y281940D01*
X127000Y281940D01*
X101600Y266700D01*
X101600Y246380D01*
X99000Y245103D01*
X96432Y243762D01*
X93897Y242358D01*
X91398Y240893D01*
X88935Y239367D01*
X86511Y237781D01*
X84126Y236136D01*
X81782Y234433D01*
X79481Y232673D01*
X77223Y230858D01*
X75011Y228987D01*
X72845Y227063D01*
X70727Y225086D01*
X68658Y223058D01*
X66639Y220980D01*
X64672Y218853D01*
X62758Y216678D01*
X60898Y214457D01*
X59092Y212191D01*
X57343Y209882D01*
X55651Y207530D01*
X54017Y205138D01*
X52442Y202706D01*
X50928Y200237D01*
X49474Y197731D01*
X48082Y195190D01*
X46753Y192615D01*
X45487Y190009D01*
X44286Y187373D01*
X43150Y184708D01*
X42079Y182016D01*
X41075Y179298D01*
X40138Y176557D01*
X39268Y173794D01*
X38466Y171010D01*
X37732Y168207D01*
X37068Y165387D01*
X36473Y162552D01*
X35947Y159703D01*
X35492Y156842D01*
X35107Y153970D01*
X34792Y151090D01*
X34548Y148203D01*
X34375Y145311D01*
X34273Y142416D01*
X34242Y139519D01*
X34282Y136622D01*
X34393Y133727D01*
X34575Y130836D01*
X34828Y127950D01*
X35151Y125071D01*
X35545Y122200D01*
X36009Y119341D01*
X36543Y116493D01*
X37147Y113660D01*
X37820Y110842D01*
X38562Y108041D01*
X39373Y105260D01*
X40251Y102499D01*
X41197Y99761D01*
X42209Y97046D01*
X43288Y94358D01*
X44433Y91696D01*
X45642Y89063D01*
X46916Y86461D01*
X48253Y83891D01*
X49652Y81354D01*
X51114Y78853D01*
X52636Y76388D01*
X54218Y73961D01*
X55859Y71574D01*
X57559Y69227D01*
X59315Y66923D01*
X61127Y64663D01*
X62994Y62447D01*
X64915Y60279D01*
X66889Y58158D01*
X68914Y56086D01*
X70989Y54064D01*
X73113Y52094D01*
X75285Y50176D01*
X77503Y48312D01*
X79766Y46504D01*
X82072Y44751D01*
X84421Y43055D01*
X86811Y41418D01*
X89241Y39839D01*
X91708Y38321D01*
X94212Y36863D01*
X96751Y35467D01*
X99323Y34134D01*
X101927Y32865D01*
X104561Y31659D01*
X107225Y30519D01*
X109915Y29444D01*
X112631Y28436D01*
X115371Y27494D01*
X118133Y26620D01*
X120916Y25814D01*
X123717Y25076D01*
X126536Y24407D01*
X129371Y23808D01*
X132219Y23278D01*
X135079Y22818D01*
X137950Y22429D01*
X140830Y22110D01*
X143716Y21862D01*
X146608Y21684D01*
X149503Y21578D01*
X152400Y21542D01*
X155297Y21578D01*
X158192Y21684D01*
X161084Y21862D01*
X163970Y22110D01*
X166850Y22429D01*
X169721Y22818D01*
X172581Y23278D01*
X175429Y23808D01*
X178264Y24407D01*
X181083Y25076D01*
X183884Y25814D01*
X186667Y26620D01*
X189429Y27494D01*
X192169Y28436D01*
X194885Y29444D01*
X197575Y30519D01*
X200239Y31659D01*
X202873Y32865D01*
X205477Y34134D01*
X208049Y35467D01*
X210588Y36863D01*
X213092Y38321D01*
X215559Y39839D01*
X217989Y41418D01*
X220379Y43055D01*
X222728Y44751D01*
X225034Y46504D01*
X227297Y48312D01*
X229515Y50176D01*
X231687Y52094D01*
X233811Y54064D01*
X235886Y56086D01*
X237911Y58158D01*
X239885Y60279D01*
X241806Y62447D01*
X243673Y64663D01*
X245485Y66923D01*
X247241Y69227D01*
X248941Y71574D01*
X250582Y73961D01*
X252164Y76388D01*
X253686Y78853D01*
X255148Y81354D01*
X256547Y83891D01*
X257884Y86461D01*
X259158Y89063D01*
X260367Y91696D01*
X261512Y94358D01*
X262591Y97046D01*
X263603Y99761D01*
X264549Y102499D01*
X265427Y105260D01*
X266238Y108041D01*
X266980Y110842D01*
X267653Y113660D01*
X268257Y116493D01*
X268791Y119341D01*
X269255Y122200D01*
X269649Y125071D01*
X269972Y127950D01*
X270225Y130836D01*
X270407Y133727D01*
X270518Y136622D01*
X270558Y139519D01*
X270527Y142416D01*
X270425Y145311D01*
X270252Y148203D01*
X270008Y151090D01*
X269693Y153970D01*
X269308Y156842D01*
X268853Y159703D01*
X268327Y162552D01*
X267732Y165387D01*
X267068Y168207D01*
X266334Y171010D01*
X265532Y173794D01*
X264662Y176557D01*
X263725Y179298D01*
X262721Y182016D01*
X261650Y184708D01*
X260514Y187373D01*
X259313Y190009D01*
X258047Y192615D01*
X256718Y195190D01*
X255326Y197731D01*
X253872Y200237D01*
X252358Y202706D01*
X250783Y205138D01*
X249149Y207530D01*
X247457Y209882D01*
X245708Y212191D01*
X243902Y214457D01*
X242042Y216678D01*
X240128Y218853D01*
X238161Y220980D01*
X236142Y223058D01*
X234073Y225086D01*
X231955Y227063D01*
X229789Y228987D01*
X227577Y230858D01*
X225319Y232673D01*
X223018Y234433D01*
X220674Y236136D01*
X218289Y237781D01*
X215865Y239367D01*
X213402Y240893D01*
X210903Y242358D01*
X208368Y243762D01*
X205800Y245103D01*
X203200Y246380D01*
D11*
X192234Y238704D02*
X192236Y238838D01*
X192242Y238972D01*
X192252Y239105D01*
X192266Y239239D01*
X192284Y239372D01*
X192306Y239504D01*
X192331Y239635D01*
X192361Y239766D01*
X192395Y239896D01*
X192432Y240024D01*
X192473Y240152D01*
X192518Y240278D01*
X192567Y240403D01*
X192619Y240526D01*
X192675Y240648D01*
X192735Y240768D01*
X192798Y240886D01*
X192865Y241002D01*
X192935Y241116D01*
X193009Y241228D01*
X193086Y241338D01*
X193166Y241446D01*
X193249Y241551D01*
X193335Y241653D01*
X193424Y241753D01*
X193517Y241850D01*
X193612Y241945D01*
X193710Y242036D01*
X193810Y242125D01*
X193913Y242210D01*
X194019Y242293D01*
X194127Y242372D01*
X194237Y242448D01*
X194350Y242521D01*
X194465Y242590D01*
X194581Y242656D01*
X194700Y242718D01*
X194820Y242777D01*
X194943Y242832D01*
X195066Y242884D01*
X195191Y242931D01*
X195318Y242975D01*
X195446Y243016D01*
X195575Y243052D01*
X195705Y243085D01*
X195836Y243113D01*
X195967Y243138D01*
X196100Y243159D01*
X196233Y243176D01*
X196366Y243189D01*
X196500Y243198D01*
X196634Y243203D01*
X196768Y243204D01*
X196901Y243201D01*
X197035Y243194D01*
X197169Y243183D01*
X197302Y243168D01*
X197435Y243149D01*
X197567Y243126D01*
X197698Y243100D01*
X197828Y243069D01*
X197958Y243034D01*
X198086Y242996D01*
X198213Y242954D01*
X198339Y242908D01*
X198464Y242858D01*
X198587Y242805D01*
X198708Y242748D01*
X198828Y242687D01*
X198945Y242623D01*
X199061Y242556D01*
X199175Y242485D01*
X199286Y242410D01*
X199395Y242333D01*
X199502Y242252D01*
X199607Y242168D01*
X199708Y242081D01*
X199808Y241991D01*
X199904Y241898D01*
X199998Y241802D01*
X200089Y241703D01*
X200176Y241602D01*
X200261Y241498D01*
X200343Y241392D01*
X200421Y241284D01*
X200496Y241173D01*
X200568Y241060D01*
X200637Y240944D01*
X200702Y240827D01*
X200763Y240708D01*
X200821Y240587D01*
X200875Y240465D01*
X200926Y240341D01*
X200973Y240215D01*
X201016Y240088D01*
X201055Y239960D01*
X201091Y239831D01*
X201122Y239701D01*
X201150Y239570D01*
X201174Y239438D01*
X201194Y239305D01*
X201210Y239172D01*
X201222Y239039D01*
X201230Y238905D01*
X201234Y238771D01*
X201234Y238637D01*
X201230Y238503D01*
X201222Y238369D01*
X201210Y238236D01*
X201194Y238103D01*
X201174Y237970D01*
X201150Y237838D01*
X201122Y237707D01*
X201091Y237577D01*
X201055Y237448D01*
X201016Y237320D01*
X200973Y237193D01*
X200926Y237067D01*
X200875Y236943D01*
X200821Y236821D01*
X200763Y236700D01*
X200702Y236581D01*
X200637Y236464D01*
X200568Y236348D01*
X200496Y236235D01*
X200421Y236124D01*
X200343Y236016D01*
X200261Y235910D01*
X200176Y235806D01*
X200089Y235705D01*
X199998Y235606D01*
X199904Y235510D01*
X199808Y235417D01*
X199708Y235327D01*
X199607Y235240D01*
X199502Y235156D01*
X199395Y235075D01*
X199286Y234998D01*
X199175Y234923D01*
X199061Y234852D01*
X198945Y234785D01*
X198828Y234721D01*
X198708Y234660D01*
X198587Y234603D01*
X198464Y234550D01*
X198339Y234500D01*
X198213Y234454D01*
X198086Y234412D01*
X197958Y234374D01*
X197828Y234339D01*
X197698Y234308D01*
X197567Y234282D01*
X197435Y234259D01*
X197302Y234240D01*
X197169Y234225D01*
X197035Y234214D01*
X196901Y234207D01*
X196768Y234204D01*
X196634Y234205D01*
X196500Y234210D01*
X196366Y234219D01*
X196233Y234232D01*
X196100Y234249D01*
X195967Y234270D01*
X195836Y234295D01*
X195705Y234323D01*
X195575Y234356D01*
X195446Y234392D01*
X195318Y234433D01*
X195191Y234477D01*
X195066Y234524D01*
X194943Y234576D01*
X194820Y234631D01*
X194700Y234690D01*
X194581Y234752D01*
X194465Y234818D01*
X194350Y234887D01*
X194237Y234960D01*
X194127Y235036D01*
X194019Y235115D01*
X193913Y235198D01*
X193810Y235283D01*
X193710Y235372D01*
X193612Y235463D01*
X193517Y235558D01*
X193424Y235655D01*
X193335Y235755D01*
X193249Y235857D01*
X193166Y235962D01*
X193086Y236070D01*
X193009Y236180D01*
X192935Y236292D01*
X192865Y236406D01*
X192798Y236522D01*
X192735Y236640D01*
X192675Y236760D01*
X192619Y236882D01*
X192567Y237005D01*
X192518Y237130D01*
X192473Y237256D01*
X192432Y237384D01*
X192395Y237512D01*
X192361Y237642D01*
X192331Y237773D01*
X192306Y237904D01*
X192284Y238036D01*
X192266Y238169D01*
X192252Y238303D01*
X192242Y238436D01*
X192236Y238570D01*
X192234Y238704D01*
X208497Y222441D02*
X208499Y222575D01*
X208505Y222709D01*
X208515Y222842D01*
X208529Y222976D01*
X208547Y223109D01*
X208569Y223241D01*
X208594Y223372D01*
X208624Y223503D01*
X208658Y223633D01*
X208695Y223761D01*
X208736Y223889D01*
X208781Y224015D01*
X208830Y224140D01*
X208882Y224263D01*
X208938Y224385D01*
X208998Y224505D01*
X209061Y224623D01*
X209128Y224739D01*
X209198Y224853D01*
X209272Y224965D01*
X209349Y225075D01*
X209429Y225183D01*
X209512Y225288D01*
X209598Y225390D01*
X209687Y225490D01*
X209780Y225587D01*
X209875Y225682D01*
X209973Y225773D01*
X210073Y225862D01*
X210176Y225947D01*
X210282Y226030D01*
X210390Y226109D01*
X210500Y226185D01*
X210613Y226258D01*
X210728Y226327D01*
X210844Y226393D01*
X210963Y226455D01*
X211083Y226514D01*
X211206Y226569D01*
X211329Y226621D01*
X211454Y226668D01*
X211581Y226712D01*
X211709Y226753D01*
X211838Y226789D01*
X211968Y226822D01*
X212099Y226850D01*
X212230Y226875D01*
X212363Y226896D01*
X212496Y226913D01*
X212629Y226926D01*
X212763Y226935D01*
X212897Y226940D01*
X213031Y226941D01*
X213164Y226938D01*
X213298Y226931D01*
X213432Y226920D01*
X213565Y226905D01*
X213698Y226886D01*
X213830Y226863D01*
X213961Y226837D01*
X214091Y226806D01*
X214221Y226771D01*
X214349Y226733D01*
X214476Y226691D01*
X214602Y226645D01*
X214727Y226595D01*
X214850Y226542D01*
X214971Y226485D01*
X215091Y226424D01*
X215208Y226360D01*
X215324Y226293D01*
X215438Y226222D01*
X215549Y226147D01*
X215658Y226070D01*
X215765Y225989D01*
X215870Y225905D01*
X215971Y225818D01*
X216071Y225728D01*
X216167Y225635D01*
X216261Y225539D01*
X216352Y225440D01*
X216439Y225339D01*
X216524Y225235D01*
X216606Y225129D01*
X216684Y225021D01*
X216759Y224910D01*
X216831Y224797D01*
X216900Y224681D01*
X216965Y224564D01*
X217026Y224445D01*
X217084Y224324D01*
X217138Y224202D01*
X217189Y224078D01*
X217236Y223952D01*
X217279Y223825D01*
X217318Y223697D01*
X217354Y223568D01*
X217385Y223438D01*
X217413Y223307D01*
X217437Y223175D01*
X217457Y223042D01*
X217473Y222909D01*
X217485Y222776D01*
X217493Y222642D01*
X217497Y222508D01*
X217497Y222374D01*
X217493Y222240D01*
X217485Y222106D01*
X217473Y221973D01*
X217457Y221840D01*
X217437Y221707D01*
X217413Y221575D01*
X217385Y221444D01*
X217354Y221314D01*
X217318Y221185D01*
X217279Y221057D01*
X217236Y220930D01*
X217189Y220804D01*
X217138Y220680D01*
X217084Y220558D01*
X217026Y220437D01*
X216965Y220318D01*
X216900Y220201D01*
X216831Y220085D01*
X216759Y219972D01*
X216684Y219861D01*
X216606Y219753D01*
X216524Y219647D01*
X216439Y219543D01*
X216352Y219442D01*
X216261Y219343D01*
X216167Y219247D01*
X216071Y219154D01*
X215971Y219064D01*
X215870Y218977D01*
X215765Y218893D01*
X215658Y218812D01*
X215549Y218735D01*
X215438Y218660D01*
X215324Y218589D01*
X215208Y218522D01*
X215091Y218458D01*
X214971Y218397D01*
X214850Y218340D01*
X214727Y218287D01*
X214602Y218237D01*
X214476Y218191D01*
X214349Y218149D01*
X214221Y218111D01*
X214091Y218076D01*
X213961Y218045D01*
X213830Y218019D01*
X213698Y217996D01*
X213565Y217977D01*
X213432Y217962D01*
X213298Y217951D01*
X213164Y217944D01*
X213031Y217941D01*
X212897Y217942D01*
X212763Y217947D01*
X212629Y217956D01*
X212496Y217969D01*
X212363Y217986D01*
X212230Y218007D01*
X212099Y218032D01*
X211968Y218060D01*
X211838Y218093D01*
X211709Y218129D01*
X211581Y218170D01*
X211454Y218214D01*
X211329Y218261D01*
X211206Y218313D01*
X211083Y218368D01*
X210963Y218427D01*
X210844Y218489D01*
X210728Y218555D01*
X210613Y218624D01*
X210500Y218697D01*
X210390Y218773D01*
X210282Y218852D01*
X210176Y218935D01*
X210073Y219020D01*
X209973Y219109D01*
X209875Y219200D01*
X209780Y219295D01*
X209687Y219392D01*
X209598Y219492D01*
X209512Y219594D01*
X209429Y219699D01*
X209349Y219807D01*
X209272Y219917D01*
X209198Y220029D01*
X209128Y220143D01*
X209061Y220259D01*
X208998Y220377D01*
X208938Y220497D01*
X208882Y220619D01*
X208830Y220742D01*
X208781Y220867D01*
X208736Y220993D01*
X208695Y221121D01*
X208658Y221249D01*
X208624Y221379D01*
X208594Y221510D01*
X208569Y221641D01*
X208547Y221773D01*
X208529Y221906D01*
X208515Y222040D01*
X208505Y222173D01*
X208499Y222307D01*
X208497Y222441D01*
X86996Y222134D02*
X86998Y222268D01*
X87004Y222402D01*
X87014Y222535D01*
X87028Y222669D01*
X87046Y222802D01*
X87068Y222934D01*
X87093Y223065D01*
X87123Y223196D01*
X87157Y223326D01*
X87194Y223454D01*
X87235Y223582D01*
X87280Y223708D01*
X87329Y223833D01*
X87381Y223956D01*
X87437Y224078D01*
X87497Y224198D01*
X87560Y224316D01*
X87627Y224432D01*
X87697Y224546D01*
X87771Y224658D01*
X87848Y224768D01*
X87928Y224876D01*
X88011Y224981D01*
X88097Y225083D01*
X88186Y225183D01*
X88279Y225280D01*
X88374Y225375D01*
X88472Y225466D01*
X88572Y225555D01*
X88675Y225640D01*
X88781Y225723D01*
X88889Y225802D01*
X88999Y225878D01*
X89112Y225951D01*
X89227Y226020D01*
X89343Y226086D01*
X89462Y226148D01*
X89582Y226207D01*
X89705Y226262D01*
X89828Y226314D01*
X89953Y226361D01*
X90080Y226405D01*
X90208Y226446D01*
X90337Y226482D01*
X90467Y226515D01*
X90598Y226543D01*
X90729Y226568D01*
X90862Y226589D01*
X90995Y226606D01*
X91128Y226619D01*
X91262Y226628D01*
X91396Y226633D01*
X91530Y226634D01*
X91663Y226631D01*
X91797Y226624D01*
X91931Y226613D01*
X92064Y226598D01*
X92197Y226579D01*
X92329Y226556D01*
X92460Y226530D01*
X92590Y226499D01*
X92720Y226464D01*
X92848Y226426D01*
X92975Y226384D01*
X93101Y226338D01*
X93226Y226288D01*
X93349Y226235D01*
X93470Y226178D01*
X93590Y226117D01*
X93707Y226053D01*
X93823Y225986D01*
X93937Y225915D01*
X94048Y225840D01*
X94157Y225763D01*
X94264Y225682D01*
X94369Y225598D01*
X94470Y225511D01*
X94570Y225421D01*
X94666Y225328D01*
X94760Y225232D01*
X94851Y225133D01*
X94938Y225032D01*
X95023Y224928D01*
X95105Y224822D01*
X95183Y224714D01*
X95258Y224603D01*
X95330Y224490D01*
X95399Y224374D01*
X95464Y224257D01*
X95525Y224138D01*
X95583Y224017D01*
X95637Y223895D01*
X95688Y223771D01*
X95735Y223645D01*
X95778Y223518D01*
X95817Y223390D01*
X95853Y223261D01*
X95884Y223131D01*
X95912Y223000D01*
X95936Y222868D01*
X95956Y222735D01*
X95972Y222602D01*
X95984Y222469D01*
X95992Y222335D01*
X95996Y222201D01*
X95996Y222067D01*
X95992Y221933D01*
X95984Y221799D01*
X95972Y221666D01*
X95956Y221533D01*
X95936Y221400D01*
X95912Y221268D01*
X95884Y221137D01*
X95853Y221007D01*
X95817Y220878D01*
X95778Y220750D01*
X95735Y220623D01*
X95688Y220497D01*
X95637Y220373D01*
X95583Y220251D01*
X95525Y220130D01*
X95464Y220011D01*
X95399Y219894D01*
X95330Y219778D01*
X95258Y219665D01*
X95183Y219554D01*
X95105Y219446D01*
X95023Y219340D01*
X94938Y219236D01*
X94851Y219135D01*
X94760Y219036D01*
X94666Y218940D01*
X94570Y218847D01*
X94470Y218757D01*
X94369Y218670D01*
X94264Y218586D01*
X94157Y218505D01*
X94048Y218428D01*
X93937Y218353D01*
X93823Y218282D01*
X93707Y218215D01*
X93590Y218151D01*
X93470Y218090D01*
X93349Y218033D01*
X93226Y217980D01*
X93101Y217930D01*
X92975Y217884D01*
X92848Y217842D01*
X92720Y217804D01*
X92590Y217769D01*
X92460Y217738D01*
X92329Y217712D01*
X92197Y217689D01*
X92064Y217670D01*
X91931Y217655D01*
X91797Y217644D01*
X91663Y217637D01*
X91530Y217634D01*
X91396Y217635D01*
X91262Y217640D01*
X91128Y217649D01*
X90995Y217662D01*
X90862Y217679D01*
X90729Y217700D01*
X90598Y217725D01*
X90467Y217753D01*
X90337Y217786D01*
X90208Y217822D01*
X90080Y217863D01*
X89953Y217907D01*
X89828Y217954D01*
X89705Y218006D01*
X89582Y218061D01*
X89462Y218120D01*
X89343Y218182D01*
X89227Y218248D01*
X89112Y218317D01*
X88999Y218390D01*
X88889Y218466D01*
X88781Y218545D01*
X88675Y218628D01*
X88572Y218713D01*
X88472Y218802D01*
X88374Y218893D01*
X88279Y218988D01*
X88186Y219085D01*
X88097Y219185D01*
X88011Y219287D01*
X87928Y219392D01*
X87848Y219500D01*
X87771Y219610D01*
X87697Y219722D01*
X87627Y219836D01*
X87560Y219952D01*
X87497Y220070D01*
X87437Y220190D01*
X87381Y220312D01*
X87329Y220435D01*
X87280Y220560D01*
X87235Y220686D01*
X87194Y220814D01*
X87157Y220942D01*
X87123Y221072D01*
X87093Y221203D01*
X87068Y221334D01*
X87046Y221466D01*
X87028Y221599D01*
X87014Y221733D01*
X87004Y221866D01*
X86998Y222000D01*
X86996Y222134D01*
X103259Y238397D02*
X103261Y238531D01*
X103267Y238665D01*
X103277Y238798D01*
X103291Y238932D01*
X103309Y239065D01*
X103331Y239197D01*
X103356Y239328D01*
X103386Y239459D01*
X103420Y239589D01*
X103457Y239717D01*
X103498Y239845D01*
X103543Y239971D01*
X103592Y240096D01*
X103644Y240219D01*
X103700Y240341D01*
X103760Y240461D01*
X103823Y240579D01*
X103890Y240695D01*
X103960Y240809D01*
X104034Y240921D01*
X104111Y241031D01*
X104191Y241139D01*
X104274Y241244D01*
X104360Y241346D01*
X104449Y241446D01*
X104542Y241543D01*
X104637Y241638D01*
X104735Y241729D01*
X104835Y241818D01*
X104938Y241903D01*
X105044Y241986D01*
X105152Y242065D01*
X105262Y242141D01*
X105375Y242214D01*
X105490Y242283D01*
X105606Y242349D01*
X105725Y242411D01*
X105845Y242470D01*
X105968Y242525D01*
X106091Y242577D01*
X106216Y242624D01*
X106343Y242668D01*
X106471Y242709D01*
X106600Y242745D01*
X106730Y242778D01*
X106861Y242806D01*
X106992Y242831D01*
X107125Y242852D01*
X107258Y242869D01*
X107391Y242882D01*
X107525Y242891D01*
X107659Y242896D01*
X107793Y242897D01*
X107926Y242894D01*
X108060Y242887D01*
X108194Y242876D01*
X108327Y242861D01*
X108460Y242842D01*
X108592Y242819D01*
X108723Y242793D01*
X108853Y242762D01*
X108983Y242727D01*
X109111Y242689D01*
X109238Y242647D01*
X109364Y242601D01*
X109489Y242551D01*
X109612Y242498D01*
X109733Y242441D01*
X109853Y242380D01*
X109970Y242316D01*
X110086Y242249D01*
X110200Y242178D01*
X110311Y242103D01*
X110420Y242026D01*
X110527Y241945D01*
X110632Y241861D01*
X110733Y241774D01*
X110833Y241684D01*
X110929Y241591D01*
X111023Y241495D01*
X111114Y241396D01*
X111201Y241295D01*
X111286Y241191D01*
X111368Y241085D01*
X111446Y240977D01*
X111521Y240866D01*
X111593Y240753D01*
X111662Y240637D01*
X111727Y240520D01*
X111788Y240401D01*
X111846Y240280D01*
X111900Y240158D01*
X111951Y240034D01*
X111998Y239908D01*
X112041Y239781D01*
X112080Y239653D01*
X112116Y239524D01*
X112147Y239394D01*
X112175Y239263D01*
X112199Y239131D01*
X112219Y238998D01*
X112235Y238865D01*
X112247Y238732D01*
X112255Y238598D01*
X112259Y238464D01*
X112259Y238330D01*
X112255Y238196D01*
X112247Y238062D01*
X112235Y237929D01*
X112219Y237796D01*
X112199Y237663D01*
X112175Y237531D01*
X112147Y237400D01*
X112116Y237270D01*
X112080Y237141D01*
X112041Y237013D01*
X111998Y236886D01*
X111951Y236760D01*
X111900Y236636D01*
X111846Y236514D01*
X111788Y236393D01*
X111727Y236274D01*
X111662Y236157D01*
X111593Y236041D01*
X111521Y235928D01*
X111446Y235817D01*
X111368Y235709D01*
X111286Y235603D01*
X111201Y235499D01*
X111114Y235398D01*
X111023Y235299D01*
X110929Y235203D01*
X110833Y235110D01*
X110733Y235020D01*
X110632Y234933D01*
X110527Y234849D01*
X110420Y234768D01*
X110311Y234691D01*
X110200Y234616D01*
X110086Y234545D01*
X109970Y234478D01*
X109853Y234414D01*
X109733Y234353D01*
X109612Y234296D01*
X109489Y234243D01*
X109364Y234193D01*
X109238Y234147D01*
X109111Y234105D01*
X108983Y234067D01*
X108853Y234032D01*
X108723Y234001D01*
X108592Y233975D01*
X108460Y233952D01*
X108327Y233933D01*
X108194Y233918D01*
X108060Y233907D01*
X107926Y233900D01*
X107793Y233897D01*
X107659Y233898D01*
X107525Y233903D01*
X107391Y233912D01*
X107258Y233925D01*
X107125Y233942D01*
X106992Y233963D01*
X106861Y233988D01*
X106730Y234016D01*
X106600Y234049D01*
X106471Y234085D01*
X106343Y234126D01*
X106216Y234170D01*
X106091Y234217D01*
X105968Y234269D01*
X105845Y234324D01*
X105725Y234383D01*
X105606Y234445D01*
X105490Y234511D01*
X105375Y234580D01*
X105262Y234653D01*
X105152Y234729D01*
X105044Y234808D01*
X104938Y234891D01*
X104835Y234976D01*
X104735Y235065D01*
X104637Y235156D01*
X104542Y235251D01*
X104449Y235348D01*
X104360Y235448D01*
X104274Y235550D01*
X104191Y235655D01*
X104111Y235763D01*
X104034Y235873D01*
X103960Y235985D01*
X103890Y236099D01*
X103823Y236215D01*
X103760Y236333D01*
X103700Y236453D01*
X103644Y236575D01*
X103592Y236698D01*
X103543Y236823D01*
X103498Y236949D01*
X103457Y237077D01*
X103420Y237205D01*
X103386Y237335D01*
X103356Y237466D01*
X103331Y237597D01*
X103309Y237729D01*
X103291Y237862D01*
X103277Y237996D01*
X103267Y238129D01*
X103261Y238263D01*
X103259Y238397D01*
D12*
X101600Y246380D02*
X92496Y241547D01*
X83847Y235938D01*
X75720Y229597D01*
X68177Y222572D01*
X61275Y214916D01*
X55066Y206688D01*
X49598Y197949D01*
X44912Y188768D01*
X41045Y179213D01*
X38025Y169358D01*
X35875Y159276D01*
X34612Y149046D01*
X34246Y138744D01*
X34779Y128450D01*
X36207Y118242D01*
X38519Y108197D01*
X41698Y98391D01*
X45720Y88900D01*
X50553Y79796D01*
X56162Y71147D01*
X62503Y63020D01*
X69528Y55477D01*
X77184Y48575D01*
X85412Y42366D01*
X94151Y36898D01*
X103332Y32212D01*
X112887Y28345D01*
X122742Y25325D01*
X132824Y23175D01*
X143054Y21912D01*
X153356Y21546D01*
X163650Y22079D01*
X173858Y23507D01*
X183903Y25819D01*
X193709Y28998D01*
X203200Y33020D01*
X212304Y37853D01*
X220953Y43462D01*
X229080Y49803D01*
X236623Y56828D01*
X243525Y64484D01*
X249734Y72712D01*
X255202Y81451D01*
X259888Y90632D01*
X263755Y100187D01*
X266775Y110042D01*
X268925Y120124D01*
X270188Y130354D01*
X270554Y140655D01*
X270021Y150950D01*
X268593Y161158D01*
X266281Y171203D01*
X263102Y181009D01*
X259080Y190500D01*
X254247Y199604D01*
X248638Y208253D01*
X242297Y216380D01*
X235272Y223923D01*
X227616Y230825D01*
X219388Y237034D01*
X210649Y242502D01*
X203200Y246380D01*
X203200Y266700D01*
X182880Y281940D01*
X127000Y281940D01*
X101600Y266700D01*
X101600Y246380D01*
X193343Y235731D02*
X192984Y236199D01*
X192689Y236710D01*
X192463Y237255D01*
X192311Y237824D01*
X192234Y238409D01*
X192234Y238999D01*
X192311Y239584D01*
X192463Y240154D01*
X192689Y240699D01*
X192984Y241210D01*
X193343Y241678D01*
X193760Y242095D01*
X194228Y242454D01*
X194739Y242749D01*
X195284Y242974D01*
X195854Y243127D01*
X196439Y243204D01*
X197029Y243204D01*
X197614Y243127D01*
X198183Y242974D01*
X198728Y242749D01*
X199239Y242454D01*
X199707Y242095D01*
X200124Y241678D01*
X200483Y241210D01*
X200778Y240699D01*
X201004Y240154D01*
X201157Y239584D01*
X201234Y238999D01*
X201234Y238409D01*
X201157Y237824D01*
X201004Y237255D01*
X200778Y236710D01*
X200483Y236199D01*
X200124Y235731D01*
X199707Y235314D01*
X199239Y234955D01*
X198728Y234660D01*
X198183Y234434D01*
X197614Y234281D01*
X197029Y234204D01*
X196439Y234204D01*
X195854Y234281D01*
X195284Y234434D01*
X194739Y234660D01*
X194228Y234955D01*
X193760Y235314D01*
X193343Y235731D01*
X209607Y219467D02*
X209248Y219935D01*
X208953Y220446D01*
X208727Y220991D01*
X208574Y221561D01*
X208497Y222146D01*
X208497Y222736D01*
X208574Y223320D01*
X208727Y223890D01*
X208953Y224435D01*
X209248Y224946D01*
X209607Y225414D01*
X210024Y225831D01*
X210492Y226190D01*
X211003Y226485D01*
X211548Y226711D01*
X212117Y226864D01*
X212702Y226941D01*
X213292Y226941D01*
X213877Y226864D01*
X214447Y226711D01*
X214992Y226485D01*
X215503Y226190D01*
X215971Y225831D01*
X216388Y225414D01*
X216747Y224946D01*
X217042Y224435D01*
X217267Y223890D01*
X217420Y223320D01*
X217497Y222736D01*
X217497Y222146D01*
X217420Y221561D01*
X217267Y220991D01*
X217042Y220446D01*
X216747Y219935D01*
X216388Y219467D01*
X215971Y219050D01*
X215503Y218691D01*
X214992Y218396D01*
X214447Y218170D01*
X213877Y218018D01*
X213292Y217941D01*
X212702Y217941D01*
X212117Y218018D01*
X211548Y218170D01*
X211003Y218396D01*
X210492Y218691D01*
X210024Y219050D01*
X209607Y219467D01*
X94469Y218743D02*
X94001Y218384D01*
X93490Y218089D01*
X92945Y217863D01*
X92376Y217711D01*
X91791Y217634D01*
X91201Y217634D01*
X90616Y217711D01*
X90046Y217863D01*
X89501Y218089D01*
X88990Y218384D01*
X88522Y218743D01*
X88105Y219160D01*
X87746Y219628D01*
X87451Y220139D01*
X87226Y220684D01*
X87073Y221254D01*
X86996Y221839D01*
X86996Y222429D01*
X87073Y223014D01*
X87226Y223583D01*
X87451Y224128D01*
X87746Y224639D01*
X88105Y225107D01*
X88522Y225524D01*
X88990Y225883D01*
X89501Y226178D01*
X90046Y226404D01*
X90616Y226557D01*
X91201Y226634D01*
X91791Y226634D01*
X92376Y226557D01*
X92945Y226404D01*
X93490Y226178D01*
X94001Y225883D01*
X94469Y225524D01*
X94886Y225107D01*
X95245Y224639D01*
X95540Y224128D01*
X95766Y223583D01*
X95919Y223014D01*
X95996Y222429D01*
X95996Y221839D01*
X95919Y221254D01*
X95766Y220684D01*
X95540Y220139D01*
X95245Y219628D01*
X94886Y219160D01*
X94469Y218743D01*
X110733Y235007D02*
X110265Y234648D01*
X109754Y234353D01*
X109209Y234127D01*
X108639Y233974D01*
X108054Y233897D01*
X107464Y233897D01*
X106880Y233974D01*
X106310Y234127D01*
X105765Y234353D01*
X105254Y234648D01*
X104786Y235007D01*
X104369Y235424D01*
X104010Y235892D01*
X103715Y236403D01*
X103489Y236948D01*
X103336Y237517D01*
X103259Y238102D01*
X103259Y238692D01*
X103336Y239277D01*
X103489Y239847D01*
X103715Y240392D01*
X104010Y240903D01*
X104369Y241371D01*
X104786Y241788D01*
X105254Y242147D01*
X105765Y242442D01*
X106310Y242667D01*
X106880Y242820D01*
X107464Y242897D01*
X108054Y242897D01*
X108639Y242820D01*
X109209Y242667D01*
X109754Y242442D01*
X110265Y242147D01*
X110733Y241788D01*
X111150Y241371D01*
X111509Y240903D01*
X111804Y240392D01*
X112030Y239847D01*
X112182Y239277D01*
X112259Y238692D01*
X112259Y238102D01*
X112182Y237517D01*
X112030Y236948D01*
X111804Y236403D01*
X111509Y235892D01*
X111150Y235424D01*
X110733Y235007D01*
M02*
