G04 EAGLE Gerber RS-274X export*
G75*
%MOMM*%
%FSLAX34Y34*%
%LPD*%
%INTop Solder Mask*%
%IPPOS*%
%AMOC8*
5,1,8,0,0,1.08239X$1,22.5*%
G01*
%ADD10C,2.351600*%
%ADD11C,1.856600*%
%ADD12C,1.778000*%
%ADD13R,1.301600X1.301600*%
%ADD14C,1.609600*%
%ADD15C,3.317600*%
%ADD16C,1.609600*%
%ADD17C,1.001600*%
%ADD18R,2.301600X1.301600*%


D10*
X152400Y265100D03*
D11*
X152400Y65100D03*
D12*
X60960Y170180D03*
X60960Y144780D03*
X60960Y119380D03*
D13*
X220980Y70780D03*
X220980Y91780D03*
X198120Y53000D03*
X198120Y74000D03*
X175260Y42840D03*
X175260Y63840D03*
X129540Y42840D03*
X129540Y63840D03*
X106680Y53000D03*
X106680Y74000D03*
X83820Y70780D03*
X83820Y91780D03*
D14*
X177400Y209700D03*
X152400Y209700D03*
X127400Y209700D03*
D15*
X207400Y139700D03*
X97400Y139700D03*
D16*
X171278Y250018D02*
X181941Y260681D01*
X234974Y207648D02*
X224311Y196985D01*
D17*
X196734Y238704D03*
X212997Y222441D03*
D18*
G36*
X163680Y228289D02*
X179954Y244563D01*
X189158Y235359D01*
X172884Y219085D01*
X163680Y228289D01*
G37*
G36*
X192730Y198123D02*
X209004Y214397D01*
X218208Y205193D01*
X201934Y188919D01*
X192730Y198123D01*
G37*
D16*
X80182Y196678D02*
X69519Y207341D01*
X122552Y260374D02*
X133215Y249711D01*
D17*
X91496Y222134D03*
X107759Y238397D03*
D18*
G36*
X101911Y189080D02*
X85637Y205354D01*
X94841Y214558D01*
X111115Y198284D01*
X101911Y189080D01*
G37*
G36*
X132077Y218130D02*
X115803Y234404D01*
X125007Y243608D01*
X141281Y227334D01*
X132077Y218130D01*
G37*
M02*
